{
.appVersion = "1271";
copyright = "Copyright 2019 Google Inc. All Rights Reserved.";
customParameters = (
{
name = vendorID;
value = GOOG;
},
{
name = panose;
value = (
2,
11,
5,
2,
4,
5,
4,
2,
2,
4
);
},
{
name = unicodeRanges;
value = (
0,
1,
6,
31,
45,
98
);
},
{
name = codePageRanges;
value = (
1252
);
},
{
name = fsType;
value = (
);
},
{
name = description;
value = "Designed by Mark Jamra, Neil Patel.\012";
},
{
name = openTypeNameLicense;
value = "This Font Software is licensed under the SIL Open Font License, Version 1.1. This Font Software is distributed on an \"AS IS\" BASIS, WITHOUT WARRANTIES OR CONDITIONS OF ANY KIND, either express or implied. See the SIL Open Font License for the specific language, permissions and limitations governing your use of this Font Software.";
},
{
name = openTypeNameLicenseURL;
value = "http://scripts.sil.org/OFL";
},
{
name = trademark;
value = "Noto is a trademark of Google Inc.";
}
);
date = "2019-12-15 20:43:37 +0000";
designer = JamraPatel;
designerURL = "http://www.jamra-patel.com";
disablesNiceNames = 1;
familyName = "Noto Sans Tifinagh SIL";
featurePrefixes = (
{
code = "lookup ccmp0 {\012\012	sub yal-tifi yal-tifi by yal_yal-tifi;\012	sub yal-tifi yan-tifi by yal_yan-tifi;\012	\012	sub yan-tifi yal-tifi by yan_yal-tifi;\012	sub yan-tifi yan-tifi by yan_yan-tifi;\012	\012	} ccmp0;\012";
name = lookup_ccmp0;
},
{

glyphs = (
{
color = 3;
glyphname = "yab_yat-tifi";
layers = (
{
anchors = (
{
name = bottom;
position = "{390, 0}";
}
);
layerId = "87A198ED-C658-42EA-BEAB-8875AC5554B6";
paths = (
{
closed = 1;
nodes = (
"924 186 LINE",
"924 321 LINE",
"1058 321 LINE",
"1058 400 LINE",
"924 400 LINE",
"924 535 LINE",
"835 535 LINE",
"835 400 LINE",
"697 400 LINE",
"697 321 LINE",
"835 321 LINE",
"835 186 LINE"
);
},
{
closed = 1;
nodes = (
"665 318 LINE",
"665 397 LINE",
"113 397 LINE",
"112 318 LINE"
);
},
{
closed = 1;
nodes = (
"595 -10 OFFCURVE",
"719 137 OFFCURVE",
"719 357 CURVE SMOOTH",
"719 577 OFFCURVE",
"593 725 OFFCURVE",
"389 725 CURVE SMOOTH",
"185 725 OFFCURVE",
"60 577 OFFCURVE",
"60 357 CURVE SMOOTH",
"60 137 OFFCURVE",
"183 -10 OFFCURVE",
"389 -10 CURVE SMOOTH"
);
},
{
closed = 1;
nodes = (
"236 72 OFFCURVE",
"155 177 OFFCURVE",
"155 357 CURVE SMOOTH",
"155 537 OFFCURVE",
"235 643 OFFCURVE",
"389 643 CURVE SMOOTH",
"543 643 OFFCURVE",
"624 537 OFFCURVE",
"624 357 CURVE SMOOTH",
"624 177 OFFCURVE",
"542 72 OFFCURVE",
"389 72 CURVE SMOOTH"
);
}
);
width = 1078;
}
);
leftKerningGroup = yar;
note = uni2D402D5C;
rightKerningGroup = ligyat;
},
{
color = 3;
glyphname = "yag_yat-tifi";
layers = (
{
layerId = "87A198ED-C658-42EA-BEAB-8875AC5554B6";
paths = (
{
closed = 1;
nodes = (
"414 292 LINE",
"694 40 LINE",
"753 103 LINE",
"612 229 LINE SMOOTH",
"573 264 OFFCURVE",
"551 286 OFFCURVE",
"502 314 CURVE",
"504 319 LINE",
"563 310 OFFCURVE",
"605 311 OFFCURVE",
"655 311 CURVE SMOOTH",
"767 311 LINE",
"767 183 LINE",
"848 183 LINE",
"848 309 LINE",
"962 309 LINE",
"962 388 LINE",
"848 388 LINE",
"848 514 LINE",
"767 514 LINE",
"767 386 LINE",
"655 386 LINE SMOOTH",
"602 386 OFFCURVE",
"560 385 OFFCURVE",
"499 378 CURVE",
"498 383 LINE",
"546 413 OFFCURVE",
"587 448 OFFCURVE",
"627 483 CURVE SMOOTH",
"753 596 LINE",
"699 656 LINE",
"416 406 LINE",
"127 666 LINE",
"90 652 LINE",
"90 56 LINE",
"128 40 LINE"
);
},
{
closed = 1;
nodes = (
"175 191 LINE",
"178 228 OFFCURVE",
"179 258 OFFCURVE",
"179 298 CURVE SMOOTH",
"179 402 LINE SMOOTH",
"179 441 OFFCURVE",
"178 475 OFFCURVE",
"175 508 CURVE",
"180 510 LINE",
"202 485 OFFCURVE",
"213 474 OFFCURVE",
"245 444 CURVE SMOOTH",
"271 420 LINE SMOOTH",
"300 394 OFFCURVE",
"326 373 OFFCURVE",
"359 351 CURVE",
"359 345 LINE",
"329 325 OFFCURVE",
"304 302 OFFCURVE",
"275 278 CURVE SMOOTH",
"259 265 LINE SMOOTH",
"225 237 OFFCURVE",
"204 217 OFFCURVE",
"180 189 CURVE"
);
}
);
width = 982;
}
);
note = uni2D33;
rightKerningGroup = ligyat;
},
{
color = 0;
glyphname = "yaf_yat-tifi";
layers = (
{
layerId = "87A198ED-C658-42EA-BEAB-8875AC5554B6";
paths = (
{
closed = 1;
nodes = (
"280 0 LINE",
"280 328 LINE",
"381 328 LINE",
"381 199 LINE",
"462 199 LINE",
"462 328 LINE",
"563 328 LINE",
"563 0 LINE",
"798 0 LINE",
"798 79 LINE",
"652 79 LINE",
"652 635 LINE",
"798 635 LINE",
"798 714 LINE",
"563 714 LINE",
"563 407 LINE",
"462 407 LINE",
"462 532 LINE",
"381 532 LINE",
"381 407 LINE",
"280 407 LINE",
"280 714 LINE",
"45 714 LINE",
"45 635 LINE",
"191 635 LINE",
"191 79 LINE",
"45 79 LINE",
"45 0 LINE"
);
}
);
width = 843;
}
);
note = uni2D3C2D5C;
},
{
color = 0;
glyphname = "yah_yat-tifi";
layers = (
{
anchors = (
{
name = bottom;
position = "{389, 0}";
}
);
layerId = "87A198ED-C658-42EA-BEAB-8875AC5554B6";
paths = (
{
closed = 1;
nodes = (
"924 186 LINE",
"924 321 LINE",
"1058 321 LINE",
"1058 400 LINE",
"924 400 LINE",
"924 535 LINE",
"835 535 LINE",
"835 400 LINE",
"697 400 LINE",
"697 321 LINE",
"835 321 LINE",
"835 186 LINE"
);
},
{
closed = 1;
nodes = (
"434 18 LINE",
"434 683 LINE",
"345 683 LINE",
"345 18 LINE"
);
},
{
closed = 1;
nodes = (
"595 -10 OFFCURVE",
"719 137 OFFCURVE",
"719 357 CURVE SMOOTH",
"719 577 OFFCURVE",
"593 725 OFFCURVE",
"389 725 CURVE SMOOTH",
"185 725 OFFCURVE",
"60 577 OFFCURVE",
"60 357 CURVE SMOOTH",
"60 137 OFFCURVE",
"183 -10 OFFCURVE",
"389 -10 CURVE SMOOTH"
);
},
{
closed = 1;
nodes = (
"236 72 OFFCURVE",
"155 177 OFFCURVE",
"155 357 CURVE SMOOTH",
"155 537 OFFCURVE",
"235 643 OFFCURVE",
"389 643 CURVE SMOOTH",
"543 643 OFFCURVE",
"624 537 OFFCURVE",
"624 357 CURVE SMOOTH",
"624 177 OFFCURVE",
"542 72 OFFCURVE",
"389 72 CURVE SMOOTH"
);
}
);
width = 1078;
}
);
leftKerningGroup = yar;
note = uni2D402D5C;
rightKerningGroup = ligyat;
},
{
color = 0;
glyphname = "yazhTuareg_yat-tifi";
layers = (
{
layerId = "87A198ED-C658-42EA-BEAB-8875AC5554B6";
paths = (
{
closed = 1;
nodes = (
"241 0 LINE",
"241 113 LINE",
"602 113 LINE",
"602 0 LINE",
"691 0 LINE",
"691 113 LINE",
"798 113 LINE",
"798 192 LINE",
"691 192 LINE",
"691 522 LINE",
"798 522 LINE",
"798 601 LINE",
"691 601 LINE",
"691 714 LINE",
"602 714 LINE",
"602 601 LINE",
"241 601 LINE",
"241 714 LINE",
"152 714 LINE",
"152 601 LINE",
"45 601 LINE",
"45 522 LINE",
"152 522 LINE",
"152 192 LINE",
"45 192 LINE",
"45 113 LINE",
"152 113 LINE",
"152 0 LINE"
);
},
{
closed = 1;
nodes = (
"241 323 LINE",
"383 323 LINE",
"383 192 LINE",
"241 192 LINE"
);
},
{
closed = 1;
nodes = (
"241 522 LINE",
"383 522 LINE",
"383 394 LINE",
"241 394 LINE"
);
},
{
closed = 1;
nodes = (
"460 323 LINE",
"602 323 LINE",
"602 192 LINE",
"460 192 LINE"
);
},
{
closed = 1;
nodes = (
"460 522 LINE",
"602 522 LINE",
"602 394 LINE",
"460 394 LINE"
);
}
);
width = 843;
}
);
note = uni2D4C2D5C;
},
{
color = 0;
glyphname = "yal_yal-tifi";
layers = (
{
anchors = (
{
name = bottom;
position = "{248, 0}";
}
);
layerId = "87A198ED-C658-42EA-BEAB-8875AC5554B6";
paths = (
{
closed = 1;
nodes = (
"905 20 LINE",
"745 714 LINE",
"658 695 LINE",
"817 0 LINE"
);
},
{
closed = 1;
nodes = (
"186 0 LINE",
"186 714 LINE",
"97 714 LINE",
"97 0 LINE"
);
},
{
closed = 1;
nodes = (
"399 0 LINE",
"399 714 LINE",
"310 714 LINE",
"310 0 LINE"
);
},
{
closed = 1;
nodes = (
"709 20 LINE",
"549 714 LINE",
"462 695 LINE",
"621 0 LINE"
);
}
);
width = 955;
}
);
note = uni2D4D2D4D;
rightKerningGroup = yan_yan;
},
{
color = 0;
glyphname = "yal_yan-tifi";
layers = (
{
anchors = (
{
name = bottom;
position = "{248, 0}";
}
);
layerId = "87A198ED-C658-42EA-BEAB-8875AC5554B6";
paths = (
{
closed = 1;
nodes = (
"709 20 LINE",
"549 714 LINE",
"462 695 LINE",
"621 0 LINE"
);
},
{
closed = 1;
nodes = (
"186 0 LINE",
"186 714 LINE",
"97 714 LINE",
"97 0 LINE"
);
},
{
closed = 1;
nodes = (
"399 0 LINE",
"399 714 LINE",
"310 714 LINE",
"310 0 LINE"
);
}
);
width = 759;
}
);
note = uni2D4D2D4F;
rightKerningGroup = yan_yan;
},
{
color = 8;
glyphname = "yal_yat-tifi";
production = uni2D4D2D5C;
layers = (
{
anchors = (
{
name = bottom;
position = "{317, 0}";
}
);
layerId = "87A198ED-C658-42EA-BEAB-8875AC5554B6";
paths = (
{
closed = 1;
nodes = (
"124 0 LINE",
"228 155 LINE SMOOTH",
"263 207 OFFCURVE",
"304 263 OFFCURVE",
"314 299 CURVE",
"319 299 LINE",
"330 264 OFFCURVE",
"373 199 OFFCURVE",
"402 155 CURVE SMOOTH",
"505 0 LINE",
"607 0 LINE",
"607 8 LINE",
"370 365 LINE",
"600 706 LINE",
"600 714 LINE",
"510 714 LINE",
"413 570 LINE SMOOTH",
"378 518 OFFCURVE",
"333 462 OFFCURVE",
"323 426 CURVE",
"318 426 LINE",
"305 461 OFFCURVE",
"263 526 OFFCURVE",
"234 570 CURVE SMOOTH",
"138 714 LINE",
"36 714 LINE",
"36 706 LINE",
"269 357 LINE",
"34 8 LINE",
"34 0 LINE"
);
}
);
width = 641;
}
);
leftKerningGroup = yath;
note = uni2D5D;
rightKerningGroup = yath;
subCategory = Composition;
},
{
color = 8;
glyphname = "yam_yab-tifi";
layers = (
{
anchors = (
{
name = bottom;
position = "{389, 0}";
}
);
layerId = "87A198ED-C658-42EA-BEAB-8875AC5554B6";
paths = (
{
closed = 1;
nodes = (
"665 318 LINE",
"665 397 LINE",
"113 397 LINE",
"112 318 LINE"
);
},
{
closed = 1;
nodes = (
"595 -10 OFFCURVE",
"719 137 OFFCURVE",
"719 357 CURVE SMOOTH",
"719 577 OFFCURVE",
"593 725 OFFCURVE",
"389 725 CURVE SMOOTH",
"185 725 OFFCURVE",
"60 577 OFFCURVE",
"60 357 CURVE SMOOTH",
"60 137 OFFCURVE",
"183 -10 OFFCURVE",
"389 -10 CURVE SMOOTH"
);
},
{
closed = 1;
nodes = (
"236 72 OFFCURVE",
"155 177 OFFCURVE",
"155 357 CURVE SMOOTH",
"155 537 OFFCURVE",
"235 643 OFFCURVE",
"389 643 CURVE SMOOTH",
"543 643 OFFCURVE",
"624 537 OFFCURVE",
"624 357 CURVE SMOOTH",
"624 177 OFFCURVE",
"542 72 OFFCURVE",
"389 72 CURVE SMOOTH"
);
}
);
width = 779;
}
);
leftKerningGroup = yar;
note = uni2D40;
rightKerningGroup = yar;
},
{
color = 0;
glyphname = "yam_yah-tifi";
layers = (
{
layerId = "87A198ED-C658-42EA-BEAB-8875AC5554B6";
paths = (
{
closed = 1;
nodes = (
"660 0 LINE",
"660 79 LINE",
"186 79 LINE",
"186 635 LINE",
"650 635 LINE",
"650 714 LINE",
"97 714 LINE",
"97 0 LINE"
);
},
{
closed = 1;
nodes = (
"541 143 OFFCURVE",
"621 218 OFFCURVE",
"621 350 CURVE SMOOTH",
"621 482 OFFCURVE",
"541 558 OFFCURVE",
"425 558 CURVE SMOOTH",
"309 558 OFFCURVE",
"229 482 OFFCURVE",
"229 350 CURVE SMOOTH",
"229 218 OFFCURVE",
"309 143 OFFCURVE",
"425 143 CURVE SMOOTH"
);
},
{
closed = 1;
nodes = (
"351 212 OFFCURVE",
"309 261 OFFCURVE",
"309 350 CURVE SMOOTH",
"309 439 OFFCURVE",
"348 489 OFFCURVE",
"425 489 CURVE SMOOTH",
"500 489 OFFCURVE",
"541 439 OFFCURVE",
"541 350 CURVE SMOOTH",
"541 261 OFFCURVE",
"500 212 OFFCURVE",
"425 212 CURVE SMOOTH"
);
},
{
closed = 1;
nodes = (
"464 171 LINE",
"464 534 LINE",
"386 534 LINE",
"386 171 LINE"
);
}
);
width = 740;
}
);
note = uni2D4E2D40;
},
{
color = 0;
glyphname = "yam_yas-tifi";
layers = (
{
layerId = "87A198ED-C658-42EA-BEAB-8875AC5554B6";
paths = (
{
closed = 1;
nodes = (
"660 0 LINE",
"660 79 LINE",
"186 79 LINE",
"186 635 LINE",
"650 635 LINE",
"650 714 LINE",
"97 714 LINE",
"97 0 LINE"
);
},
{
closed = 1;
nodes = (
"541 143 OFFCURVE",
"621 218 OFFCURVE",
"621 350 CURVE SMOOTH",
"621 482 OFFCURVE",
"541 558 OFFCURVE",
"425 558 CURVE SMOOTH",
"309 558 OFFCURVE",
"229 482 OFFCURVE",
"229 350 CURVE SMOOTH",
"229 218 OFFCURVE",
"309 143 OFFCURVE",
"425 143 CURVE SMOOTH"
);
},
{
closed = 1;
nodes = (
"351 212 OFFCURVE",
"309 261 OFFCURVE",
"309 350 CURVE SMOOTH",
"309 439 OFFCURVE",
"348 489 OFFCURVE",
"425 489 CURVE SMOOTH",
"500 489 OFFCURVE",
"541 439 OFFCURVE",
"541 350 CURVE SMOOTH",
"541 261 OFFCURVE",
"500 212 OFFCURVE",
"425 212 CURVE SMOOTH"
);
},
{
closed = 1;
nodes = (
"452 295 OFFCURVE",
"476 310 OFFCURVE",
"476 350 CURVE SMOOTH",
"476 389 OFFCURVE",
"452 404 OFFCURVE",
"424 404 CURVE SMOOTH",
"396 404 OFFCURVE",
"374 389 OFFCURVE",
"374 350 CURVE SMOOTH",
"374 310 OFFCURVE",
"396 295 OFFCURVE",
"424 295 CURVE SMOOTH"
);
}
);
width = 740;
}
);
note = uni2D4E2D59;
},
{
color = 8;
glyphname = "yam_yat-tifi";
production = uni2D4E2D5C;
layers = (
{
layerId = "87A198ED-C658-42EA-BEAB-8875AC5554B6";
paths = (
{
closed = 1;
nodes = (
"557 0 LINE",
"557 79 LINE",
"186 79 LINE",
"186 318 LINE",
"311 318 LINE",
"311 193 LINE",
"392 193 LINE",
"392 318 LINE",
"506 318 LINE",
"506 397 LINE",
"392 397 LINE",
"392 522 LINE",
"311 522 LINE",
"311 397 LINE",
"186 397 LINE",
"186 635 LINE",
"547 635 LINE",
"547 714 LINE",
"97 714 LINE",
"97 0 LINE"
);
}
);
width = 617;
}
);
note = uni2D5F;
subCategory = Composition;
},
{
color = 3;
glyphname = "yan_yab-tifi";
layers = (
{
layerId = "87A198ED-C658-42EA-BEAB-8875AC5554B6";
paths = (
{
closed = 1;
nodes = (
"176 -115 LINE",
"176 -15 LINE SMOOTH",
"176 32 OFFCURVE",
"176 79 OFFCURVE",
"174 118 CURVE",
"179 120 LINE",
"207 50 OFFCURVE",
"294 -10 OFFCURVE",
"429 -10 CURVE SMOOTH",
"622 -10 OFFCURVE",
"746 137 OFFCURVE",
"746 357 CURVE SMOOTH",
"746 577 OFFCURVE",
"620 725 OFFCURVE",
"416 725 CURVE SMOOTH",
"212 725 OFFCURVE",
"87 591 OFFCURVE",
"87 328 CURVE SMOOTH",
"87 -115 LINE"
);
},
{
closed = 1;
nodes = (
"263 72 OFFCURVE",
"182 177 OFFCURVE",
"182 357 CURVE SMOOTH",
"182 530 OFFCURVE",
"262 643 OFFCURVE",
"416 643 CURVE SMOOTH",
"570 643 OFFCURVE",
"651 537 OFFCURVE",
"651 357 CURVE SMOOTH",
"651 177 OFFCURVE",
"570 72 OFFCURVE",
"429 72 CURVE SMOOTH"
);
},
{
closed = 1;
nodes = (
"691 318 LINE",
"691 397 LINE",
"139 397 LINE",
"138 318 LINE"
);
}
);
width = 806;
}
);
leftKerningGroup = yan_yab;
note = uni2D4F2D40;
rightKerningGroup = yar;
},
{
color = 8;
glyphname = "yan_yag-tifi";
production = uni2D4F2D33;
layers = (
{
layerId = "87A198ED-C658-42EA-BEAB-8875AC5554B6";
paths = (
{
closed = 1;
nodes = (
"332 0 LINE",
"332 714 LINE",
"243 714 LINE",
"243 0 LINE"
);
},
{
closed = 1;
nodes = (
"135 0 OFFCURVE",
"159 24 OFFCURVE",
"159 67 CURVE SMOOTH",
"159 108 OFFCURVE",
"135 135 OFFCURVE",
"96 135 CURVE SMOOTH",
"57 135 OFFCURVE",
"35 110 OFFCURVE",
"35 67 CURVE SMOOTH",
"35 22 OFFCURVE",
"55 0 OFFCURVE",
"96 0 CURVE SMOOTH"
);
},
{
closed = 1;
nodes = (
"517 0 OFFCURVE",
"540 25 OFFCURVE",
"540 68 CURVE SMOOTH",
"540 113 OFFCURVE",
"519 135 OFFCURVE",
"477 135 CURVE SMOOTH",
"440 135 OFFCURVE",
"416 113 OFFCURVE",
"416 68 CURVE SMOOTH",
"416 24 OFFCURVE",
"440 0 OFFCURVE",
"477 0 CURVE SMOOTH"
);
},
{
closed = 1;
nodes = (
"135 579 OFFCURVE",
"159 606 OFFCURVE",
"159 647 CURVE SMOOTH",
"159 690 OFFCURVE",
"135 714 OFFCURVE",
"96 714 CURVE SMOOTH",
"55 714 OFFCURVE",
"35 692 OFFCURVE",
"35 647 CURVE SMOOTH",
"35 604 OFFCURVE",
"57 579 OFFCURVE",
"96 579 CURVE SMOOTH"
);
},
{
closed = 1;
nodes = (
"519 579 OFFCURVE",
"540 601 OFFCURVE",
"540 646 CURVE SMOOTH",
"540 689 OFFCURVE",
"517 714 OFFCURVE",
"477 714 CURVE SMOOTH",
"440 714 OFFCURVE",
"416 690 OFFCURVE",
"416 646 CURVE SMOOTH",
"416 601 OFFCURVE",
"440 579 OFFCURVE",
"477 579 CURVE SMOOTH"
);
}
);
width = 575;
}
);
note = uni2D4F2D57;
subCategory = Composition;
},
{
color = 0;
glyphname = "yan_yaj-tifi";
layers = (
{
layerId = "87A198ED-C658-42EA-BEAB-8875AC5554B6";
paths = (
{
closed = 1;
nodes = (
"563 225 LINE",
"510 290 LINE",
"385 184 LINE SMOOTH",
"352 156 OFFCURVE",
"339 141 OFFCURVE",
"321 118 CURVE",
"319 119 LINE",
"326 148 OFFCURVE",
"327 162 OFFCURVE",
"327 205 CURVE SMOOTH",
"327 714 LINE",
"238 714 LINE",
"238 8 LINE",
"287 -10 LINE"
);
},
{
closed = 1;
nodes = (
"130 579 OFFCURVE",
"154 606 OFFCURVE",
"154 647 CURVE SMOOTH",
"154 690 OFFCURVE",
"130 714 OFFCURVE",
"91 714 CURVE SMOOTH",
"50 714 OFFCURVE",
"30 692 OFFCURVE",
"30 647 CURVE SMOOTH",
"30 604 OFFCURVE",
"52 579 OFFCURVE",
"91 579 CURVE SMOOTH"
);
},
{
closed = 1;
nodes = (
"512 579 OFFCURVE",
"535 606 OFFCURVE",
"535 647 CURVE SMOOTH",
"535 692 OFFCURVE",
"514 714 OFFCURVE",
"472 714 CURVE SMOOTH",
"435 714 OFFCURVE",
"411 692 OFFCURVE",
"411 647 CURVE SMOOTH",
"411 604 OFFCURVE",
"435 579 OFFCURVE",
"472 579 CURVE SMOOTH"
);
}
);
width = 613;
}
);
note = uni2D4F2D36;
},
{
color = 8;
glyphname = "yan_yad-tifi";
layers = (
{
layerId = "87A198ED-C658-42EA-BEAB-8875AC5554B6";
paths = (
{
closed = 1;
nodes = (
"866 0 LINE",
"866 714 LINE",
"777 714 LINE",
"777 79 LINE",
"524 79 LINE",
"435 0 LINE"
);
},
{
closed = 1;
nodes = (
"526 0 LINE",
"526 714 LINE",
"437 714 LINE",
"437 79 LINE",
"186 79 LINE",
"186 714 LINE",
"97 714 LINE",
"97 0 LINE"
);
}
);
width = 963;
}
);
note = uni2D61;
},
{
color = 0;
glyphname = "yan_yadh-tifi";
layers = (
{
layerId = "87A198ED-C658-42EA-BEAB-8875AC5554B6";
paths = (
{
closed = 1;
nodes = (
"389 532 LINE",
"389 829 LINE",
"308 829 LINE",
"308 532 LINE"
);
},
{
closed = 1;
nodes = (
"379 0 LINE",
"649 706 LINE",
"649 714 LINE",
"564 714 LINE",
"393 271 LINE SMOOTH",
"375 225 OFFCURVE",
"358 180 OFFCURVE",
"347 127 CURVE",
"342 127 LINE",
"334 180 OFFCURVE",
"318 225 OFFCURVE",
"301 271 CURVE SMOOTH",
"135 714 LINE",
"40 714 LINE",
"40 706 LINE",
"302 0 LINE"
);
}
);
width = 689;
}
);
leftKerningGroup = yadh;
note = uni2D4F2D38;
rightKerningGroup = yadh;
},
{
color = 0;
glyphname = "yan_yadd-tifi";
layers = (
{
layerId = "87A198ED-C658-42EA-BEAB-8875AC5554B6";
paths = (
{
closed = 1;
nodes = (
"537 0 LINE",
"537 79 LINE",
"186 79 LINE",
"186 328 LINE",
"487 328 LINE",
"487 407 LINE",
"186 407 LINE",
"186 635 LINE",
"527 635 LINE",
"527 829 LINE",
"446 829 LINE",
"446 714 LINE",
"97 714 LINE",
"97 0 LINE"
);
}
);
width = 597;
}
);
note = uni2D4F2D39;
},
{
color = 0;
glyphname = "yan_yaf-tifi";
layers = (
{
layerId = "87A198ED-C658-42EA-BEAB-8875AC5554B6";
paths = (
{
closed = 1;
nodes = (
"186 0 LINE",
"186 186 LINE",
"582 186 LINE",
"582 0 LINE",
"671 0 LINE",
"671 265 LINE",
"428 265 LINE",
"428 449 LINE",
"671 449 LINE",
"671 714 LINE",
"582 714 LINE",
"582 528 LINE",
"186 528 LINE",
"186 714 LINE",
"97 714 LINE",
"97 449 LINE",
"339 449 LINE",
"339 265 LINE",
"97 265 LINE",
"97 0 LINE"
);
}
);
width = 768;
}
);
note = uni2D4F2D3C;
},
{
color = 0;
glyphname = "yan_yakTuareg-tifi";
layers = (
{
layerId = "87A198ED-C658-42EA-BEAB-8875AC5554B6";
paths = (
{
closed = 1;
nodes = (
"228 125 LINE",
"228 571 LINE",
"140 571 LINE",
"140 125 LINE"
);
},
{
closed = 1;
nodes = (
"211 -166 OFFCURVE",
"235 -151 OFFCURVE",
"235 -111 CURVE SMOOTH",
"235 -72 OFFCURVE",
"211 -57 OFFCURVE",
"183 -57 CURVE SMOOTH",
"155 -57 OFFCURVE",
"133 -72 OFFCURVE",
"133 -111 CURVE SMOOTH",
"133 -151 OFFCURVE",
"155 -166 OFFCURVE",
"183 -166 CURVE SMOOTH"
);
},
{
closed = 1;
nodes = (
"123 -49 OFFCURVE",
"147 -34 OFFCURVE",
"147 6 CURVE SMOOTH",
"147 45 OFFCURVE",
"123 61 OFFCURVE",
"96 61 CURVE SMOOTH",
"67 61 OFFCURVE",
"45 45 OFFCURVE",
"45 6 CURVE SMOOTH",
"45 -34 OFFCURVE",
"67 -49 OFFCURVE",
"96 -49 CURVE SMOOTH"
);
},
{
closed = 1;
nodes = (
"299 -49 OFFCURVE",
"323 -34 OFFCURVE",
"323 6 CURVE SMOOTH",
"323 45 OFFCURVE",
"299 61 OFFCURVE",
"271 61 CURVE SMOOTH",
"243 61 OFFCURVE",
"221 45 OFFCURVE",
"221 6 CURVE SMOOTH",
"221 -34 OFFCURVE",
"243 -49 OFFCURVE",
"271 -49 CURVE SMOOTH"
);
},
{
closed = 1;
nodes = (
"123 635 OFFCURVE",
"147 651 OFFCURVE",
"147 690 CURVE SMOOTH",
"147 729 OFFCURVE",
"123 745 OFFCURVE",
"96 745 CURVE SMOOTH",
"67 745 OFFCURVE",
"45 729 OFFCURVE",
"45 690 CURVE SMOOTH",
"45 651 OFFCURVE",
"67 635 OFFCURVE",
"96 635 CURVE SMOOTH"
);
},
{
closed = 1;
nodes = (
"299 635 OFFCURVE",
"323 651 OFFCURVE",
"323 690 CURVE SMOOTH",
"323 729 OFFCURVE",
"299 745 OFFCURVE",
"271 745 CURVE SMOOTH",
"243 745 OFFCURVE",
"221 729 OFFCURVE",
"221 690 CURVE SMOOTH",
"221 651 OFFCURVE",
"243 635 OFFCURVE",
"271 635 CURVE SMOOTH"
);
},
{
closed = 1;
nodes = (
"211 752 OFFCURVE",
"235 768 OFFCURVE",
"235 807 CURVE SMOOTH",
"235 847 OFFCURVE",
"211 862 OFFCURVE",
"183 862 CURVE SMOOTH",
"155 862 OFFCURVE",
"133 847 OFFCURVE",
"133 807 CURVE SMOOTH",
"133 768 OFFCURVE",
"155 752 OFFCURVE",
"183 752 CURVE SMOOTH"
);
}
);
width = 368;
}
);
note = uni2D4F2D3E;
},
{
color = 0;
glyphname = "yan_yah-tifi";
layers = (
{
layerId = "87A198ED-C658-42EA-BEAB-8875AC5554B6";
paths = (
{
closed = 1;
nodes = (
"176 -115 LINE",
"176 -15 LINE SMOOTH",
"176 32 OFFCURVE",
"176 79 OFFCURVE",
"174 118 CURVE",
"179 120 LINE",
"207 50 OFFCURVE",
"294 -10 OFFCURVE",
"429 -10 CURVE SMOOTH",
"622 -10 OFFCURVE",
"746 137 OFFCURVE",
"746 357 CURVE SMOOTH",
"746 577 OFFCURVE",
"620 725 OFFCURVE",
"416 725 CURVE SMOOTH",
"212 725 OFFCURVE",
"87 591 OFFCURVE",
"87 328 CURVE SMOOTH",
"87 -115 LINE"
);
},
{
closed = 1;
nodes = (
"460 18 LINE",
"460 683 LINE",
"371 683 LINE",
"371 18 LINE"
);
},
{
closed = 1;
nodes = (
"263 72 OFFCURVE",
"182 177 OFFCURVE",
"182 357 CURVE SMOOTH",
"182 530 OFFCURVE",
"262 643 OFFCURVE",
"416 643 CURVE SMOOTH",
"570 643 OFFCURVE",
"651 537 OFFCURVE",
"651 357 CURVE SMOOTH",
"651 177 OFFCURVE",
"570 72 OFFCURVE",
"429 72 CURVE SMOOTH"
);
}
);
width = 806;
}
);
leftKerningGroup = yan_yab;
note = uni2D4F2D40;
rightKerningGroup = yar;
},
{
color = 0;
glyphname = "yan_yazhTuareg-tifi";
layers = (
{
layerId = "87A198ED-C658-42EA-BEAB-8875AC5554B6";
paths = (
{
closed = 1;
nodes = (
"279 0 LINE",
"279 449 LINE",
"453 449 LINE",
"453 0 LINE",
"542 0 LINE",
"542 449 LINE",
"707 449 LINE",
"707 528 LINE",
"542 528 LINE",
"542 714 LINE",
"453 714 LINE",
"453 528 LINE",
"279 528 LINE",
"279 714 LINE",
"190 714 LINE",
"190 528 LINE",
"25 528 LINE",
"25 449 LINE",
"190 449 LINE",
"190 0 LINE"
);
}
);
width = 732;
}
);
note = uni2D4F2D4C;
},
{
color = 0;
glyphname = "yan_yal-tifi";
layers = (
{
layerId = "87A198ED-C658-42EA-BEAB-8875AC5554B6";
paths = (
{
closed = 1;
nodes = (
"673 20 LINE",
"513 714 LINE",
"426 695 LINE",
"585 0 LINE"
);
},
{
closed = 1;
nodes = (
"186 0 LINE",
"186 714 LINE",
"97 714 LINE",
"97 0 LINE"
);
},
{
closed = 1;
nodes = (
"477 20 LINE",
"317 714 LINE",
"230 695 LINE",
"389 0 LINE"
);
}
);
width = 723;
}
);
note = uni2D4F2D4D;
rightKerningGroup = yan_yan;
},
{
color = 0;
glyphname = "yan_yan-tifi";
layers = (
{
layerId = "87A198ED-C658-42EA-BEAB-8875AC5554B6";
paths = (
{
closed = 1;
nodes = (
"477 20 LINE",
"317 714 LINE",
"230 695 LINE",
"389 0 LINE"
);
},
{
closed = 1;
nodes = (
"186 0 LINE",
"186 714 LINE",
"97 714 LINE",
"97 0 LINE"
);
}
);
width = 527;
}
);
note = uni2D4F2D4F;
rightKerningGroup = yan_yan;
},
{
color = 0;
glyphname = "yan_yaghTuareg-tifi";
layers = (
{
layerId = "87A198ED-C658-42EA-BEAB-8875AC5554B6";
paths = (
{
closed = 1;
nodes = (
"322 0 LINE",
"322 714 LINE",
"233 714 LINE",
"233 0 LINE"
);
},
{
closed = 1;
nodes = (
"507 0 OFFCURVE",
"530 25 OFFCURVE",
"530 68 CURVE SMOOTH",
"530 113 OFFCURVE",
"509 135 OFFCURVE",
"467 135 CURVE SMOOTH",
"430 135 OFFCURVE",
"406 113 OFFCURVE",
"406 68 CURVE SMOOTH",
"406 24 OFFCURVE",
"430 0 OFFCURVE",
"467 0 CURVE SMOOTH"
);
},
{
closed = 1;
nodes = (
"125 579 OFFCURVE",
"149 606 OFFCURVE",
"149 647 CURVE SMOOTH",
"149 690 OFFCURVE",
"125 714 OFFCURVE",
"86 714 CURVE SMOOTH",
"45 714 OFFCURVE",
"25 692 OFFCURVE",
"25 647 CURVE SMOOTH",
"25 604 OFFCURVE",
"47 579 OFFCURVE",
"86 579 CURVE SMOOTH"
);
}
);
width = 555;
}
);
note = uni2D4F2D57;
},
{
color = 0;
glyphname = "yan_yas-tifi";
layers = (
{
anchors = (
{
name = bottom;
position = "{389, 0}";
}
);
layerId = "87A198ED-C658-42EA-BEAB-8875AC5554B6";
paths = (
{
closed = 1;
nodes = (
"371 131 LINE",
"371 574 LINE",
"287 574 LINE",
"287 131 LINE"
);
},
{
closed = 1;
nodes = (
"548 277 OFFCURVE",
"581 316 OFFCURVE",
"581 357 CURVE SMOOTH",
"581 398 OFFCURVE",
"546 438 OFFCURVE",
"501 438 CURVE SMOOTH",
"456 438 OFFCURVE",
"421 401 OFFCURVE",
"421 357 CURVE SMOOTH",
"421 314 OFFCURVE",
"456 277 OFFCURVE",
"501 277 CURVE SMOOTH"
);
},
{
closed = 1;
nodes = (
"595 -10 OFFCURVE",
"719 137 OFFCURVE",
"719 357 CURVE SMOOTH",
"719 577 OFFCURVE",
"593 725 OFFCURVE",
"389 725 CURVE SMOOTH",
"185 725 OFFCURVE",
"60 577 OFFCURVE",
"60 357 CURVE SMOOTH",
"60 137 OFFCURVE",
"183 -10 OFFCURVE",
"389 -10 CURVE SMOOTH"
);
},
{
closed = 1;
nodes = (
"236 72 OFFCURVE",
"155 177 OFFCURVE",
"155 357 CURVE SMOOTH",
"155 537 OFFCURVE",
"235 643 OFFCURVE",
"389 643 CURVE SMOOTH",
"543 643 OFFCURVE",
"624 537 OFFCURVE",
"624 357 CURVE SMOOTH",
"624 177 OFFCURVE",
"542 72 OFFCURVE",
"389 72 CURVE SMOOTH"
);
}
);
width = 779;
}
);
leftKerningGroup = yar;
note = uni2D4F2D59;
rightKerningGroup = yar;
},
{
color = 0;
glyphname = "yan_yat-tifi";
layers = (
{
layerId = "87A198ED-C658-42EA-BEAB-8875AC5554B6";
paths = (
{
closed = 1;
nodes = (
"332 0 LINE",
"332 635 LINE",
"550 635 LINE",
"550 714 LINE",
"25 714 LINE",
"25 635 LINE",
"243 635 LINE",
"243 0 LINE"
);
}
);
width = 575;
}
);
note = uni2D4F2D5C;
},
{
color = 3;
glyphname = "yan_yach-tifi";
layers = (
{
layerId = "87A198ED-C658-42EA-BEAB-8875AC5554B6";
paths = (
{
closed = 1;
nodes = (
"601 44 OFFCURVE",
"752 156 OFFCURVE",
"752 331 CURVE SMOOTH",
"752 439 OFFCURVE",
"680 496 OFFCURVE",
"596 496 CURVE SMOOTH",
"520 496 OFFCURVE",
"459 441 OFFCURVE",
"459 367 CURVE SMOOTH",
"459 286 OFFCURVE",
"513 239 OFFCURVE",
"585 239 CURVE SMOOTH",
"629 239 OFFCURVE",
"652 258 OFFCURVE",
"660 273 CURVE",
"664 273 LINE",
"655 208 OFFCURVE",
"562 126 OFFCURVE",
"401 126 CURVE",
"401 44 LINE"
);
},
{
closed = 1;
nodes = (
"401 126 LINE",
"240 126 OFFCURVE",
"147 208 OFFCURVE",
"138 273 CURVE",
"142 273 LINE",
"150 258 OFFCURVE",
"173 239 OFFCURVE",
"217 239 CURVE SMOOTH",
"289 239 OFFCURVE",
"343 286 OFFCURVE",
"343 367 CURVE SMOOTH",
"343 441 OFFCURVE",
"282 496 OFFCURVE",
"206 496 CURVE SMOOTH",
"122 496 OFFCURVE",
"50 439 OFFCURVE",
"50 331 CURVE SMOOTH",
"50 156 OFFCURVE",
"201 44 OFFCURVE",
"401 44 CURVE"
);
},
{
closed = 1;
nodes = (
"168 312 OFFCURVE",
"141 332 OFFCURVE",
"141 364 CURVE SMOOTH",
"141 399 OFFCURVE",
"165 421 OFFCURVE",
"198 421 CURVE SMOOTH",
"231 421 OFFCURVE",
"252 400 OFFCURVE",
"252 364 CURVE SMOOTH",
"252 329 OFFCURVE",
"228 312 OFFCURVE",
"199 312 CURVE SMOOTH"
);
},
{
closed = 1;
nodes = (
"574 312 OFFCURVE",
"550 329 OFFCURVE",
"550 364 CURVE SMOOTH",
"550 400 OFFCURVE",
"571 421 OFFCURVE",
"604 421 CURVE SMOOTH",
"637 421 OFFCURVE",
"661 399 OFFCURVE",
"661 364 CURVE SMOOTH",
"661 332 OFFCURVE",
"634 312 OFFCURVE",
"603 312 CURVE SMOOTH"
);
}
);
width = 802;
}
);
note = uni2D63;
},
{
color = 3;
glyphname = "yan_yaz-tifi";
layers = (
{
layerId = "87A198ED-C658-42EA-BEAB-8875AC5554B6";
paths = (
{
closed = 1;
nodes = (
"90 0 LINE",
"189 148 LINE SMOOTH",
"220 194 OFFCURVE",
"265 261 OFFCURVE",
"288 313 CURVE",
"293 311 LINE",
"284 250 OFFCURVE",
"284 180 OFFCURVE",
"284 118 CURVE SMOOTH",
"284 0 LINE",
"369 0 LINE",
"369 118 LINE SMOOTH",
"369 180 OFFCURVE",
"369 250 OFFCURVE",
"360 311 CURVE",
"365 313 LINE",
"383 259 OFFCURVE",
"431 194 OFFCURVE",
"462 150 CURVE SMOOTH",
"567 0 LINE",
"663 0 LINE",
"663 13 LINE",
"371 432 LINE",
"371 714 LINE",
"282 714 LINE",
"282 428 LINE",
"0 8 LINE",
"0 0 LINE"
);
}
);
width = 663;
}
);
note = uni2D43;
},
{
color = 0;
glyphname = "yu_yat-tifi";
layers = (
{
layerId = "87A198ED-C658-42EA-BEAB-8875AC5554B6";
paths = (
{
closed = 1;
nodes = (
"417 0 LINE",
"417 331 LINE",
"699 331 LINE",
"699 410 LINE",
"417 410 LINE",
"417 714 LINE",
"328 714 LINE",
"328 410 LINE",
"45 410 LINE",
"45 331 LINE",
"328 331 LINE",
"328 0 LINE"
);
},
{
closed = 1;
nodes = (
"225 475 OFFCURVE",
"254 505 OFFCURVE",
"254 554 CURVE SMOOTH",
"254 605 OFFCURVE",
"227 633 OFFCURVE",
"180 633 CURVE SMOOTH",
"132 633 OFFCURVE",
"108 607 OFFCURVE",
"108 554 CURVE SMOOTH",
"108 503 OFFCURVE",
"135 475 OFFCURVE",
"180 475 CURVE SMOOTH"
);
},
{
closed = 1;
nodes = (
"609 108 OFFCURVE",
"636 138 OFFCURVE",
"636 187 CURVE SMOOTH",
"636 240 OFFCURVE",
"611 266 OFFCURVE",
"562 266 CURVE SMOOTH",
"514 266 OFFCURVE",
"490 240 OFFCURVE",
"490 187 CURVE SMOOTH",
"490 138 OFFCURVE",
"517 108 OFFCURVE",
"562 108 CURVE SMOOTH"
);
}
);
width = 744;
}
);
note = uni2D532D5C;
},
{
color = 10;
glyphname = "yar_yab-tifi";
layers = (
{
anchors = (
{
name = bottom;
position = "{395, 0}";
}
);
layerId = "87A198ED-C658-42EA-BEAB-8875AC5554B6";
paths = (
{
closed = 1;
nodes = (
"604 -10 OFFCURVE",
"731 137 OFFCURVE",
"731 357 CURVE SMOOTH",
"731 577 OFFCURVE",
"602 725 OFFCURVE",
"395 725 CURVE SMOOTH",
"188 725 OFFCURVE",
"60 577 OFFCURVE",
"60 357 CURVE SMOOTH",
"60 137 OFFCURVE",
"186 -10 OFFCURVE",
"395 -10 CURVE SMOOTH"
);
},
{
closed = 1;
nodes = (
"239 72 OFFCURVE",
"155 177 OFFCURVE",
"155 357 CURVE SMOOTH",
"155 537 OFFCURVE",
"238 643 OFFCURVE",
"395 643 CURVE SMOOTH",
"552 643 OFFCURVE",
"636 537 OFFCURVE",
"636 357 CURVE SMOOTH",
"636 177 OFFCURVE",
"551 72 OFFCURVE",
"395 72 CURVE SMOOTH"
);
},
{
closed = 1;
nodes = (
"505 150 OFFCURVE",
"571 229 OFFCURVE",
"571 357 CURVE SMOOTH",
"571 485 OFFCURVE",
"505 565 OFFCURVE",
"395 565 CURVE SMOOTH",
"286 565 OFFCURVE",
"220 485 OFFCURVE",
"220 357 CURVE SMOOTH",
"220 229 OFFCURVE",
"286 150 OFFCURVE",
"395 150 CURVE SMOOTH"
);
},
{
closed = 1;
nodes = (
"325 216 OFFCURVE",
"300 265 OFFCURVE",
"300 357 CURVE SMOOTH",
"300 449 OFFCURVE",
"322 499 OFFCURVE",
"395 499 CURVE SMOOTH",
"467 499 OFFCURVE",
"491 449 OFFCURVE",
"491 357 CURVE SMOOTH",
"491 265 OFFCURVE",
"467 216 OFFCURVE",
"395 216 CURVE SMOOTH"
);
},
{
closed = 1;
nodes = (
"431 178 LINE",
"431 541 LINE",
"359 541 LINE",
"359 178 LINE"
);
}
);
width = 791;
}
);
leftKerningGroup = yar;
note = uni2D54;
rightKerningGroup = yar;
},
{
color = 10;
glyphname = "yar_yaj-tifi";
layers = (
{
anchors = (
{
name = bottom;
position = "{395, 0}";
}
);
layerId = "87A198ED-C658-42EA-BEAB-8875AC5554B6";
paths = (
{
closed = 1;
nodes = (
"604 -10 OFFCURVE",
"731 137 OFFCURVE",
"731 357 CURVE SMOOTH",
"731 577 OFFCURVE",
"602 725 OFFCURVE",
"395 725 CURVE SMOOTH",
"188 725 OFFCURVE",
"60 577 OFFCURVE",
"60 357 CURVE SMOOTH",
"60 137 OFFCURVE",
"186 -10 OFFCURVE",
"395 -10 CURVE SMOOTH"
);
},
{
closed = 1;
nodes = (
"351 178 LINE",
"351 541 LINE",
"279 541 LINE",
"279 178 LINE"
);
},
{
closed = 1;
nodes = (
"576 248 LINE",
"576 312 LINE",
"214 312 LINE",
"214 248 LINE"
);
},
{
closed = 1;
nodes = (
"239 72 OFFCURVE",
"155 177 OFFCURVE",
"155 357 CURVE SMOOTH",
"155 537 OFFCURVE",
"238 643 OFFCURVE",
"395 643 CURVE SMOOTH",
"552 643 OFFCURVE",
"636 537 OFFCURVE",
"636 357 CURVE SMOOTH",
"636 177 OFFCURVE",
"551 72 OFFCURVE",
"395 72 CURVE SMOOTH"
);
},
{
closed = 1;
nodes = (
"576 407 LINE",
"576 471 LINE",
"214 471 LINE",
"214 407 LINE"
);
},
{
closed = 1;
nodes = (
"511 178 LINE",
"511 541 LINE",
"439 541 LINE",
"439 178 LINE"
);
}
);
width = 791;
}
);
leftKerningGroup = yar;
note = uni2D54;
rightKerningGroup = yar;
},
{
color = 10;
glyphname = "yar_yad-tifi";
layers = (
{
anchors = (
{
name = bottom;
position = "{395, 0}";
}
);
layerId = "87A198ED-C658-42EA-BEAB-8875AC5554B6";
paths = (
{
closed = 1;
nodes = (
"604 -10 OFFCURVE",
"731 137 OFFCURVE",
"731 357 CURVE SMOOTH",
"731 577 OFFCURVE",
"602 725 OFFCURVE",
"395 725 CURVE SMOOTH",
"188 725 OFFCURVE",
"60 577 OFFCURVE",
"60 357 CURVE SMOOTH",
"60 137 OFFCURVE",
"186 -10 OFFCURVE",
"395 -10 CURVE SMOOTH"
);
},
{
closed = 1;
nodes = (
"512 178 LINE",
"512 242 LINE",
"310 242 LINE",
"310 178 LINE"
);
},
{
closed = 1;
nodes = (
"347 178 LINE",
"347 541 LINE",
"275 541 LINE",
"275 178 LINE"
);
},
{
closed = 1;
nodes = (
"239 72 OFFCURVE",
"155 177 OFFCURVE",
"155 357 CURVE SMOOTH",
"155 537 OFFCURVE",
"238 643 OFFCURVE",
"395 643 CURVE SMOOTH",
"552 643 OFFCURVE",
"636 537 OFFCURVE",
"636 357 CURVE SMOOTH",
"636 177 OFFCURVE",
"551 72 OFFCURVE",
"395 72 CURVE SMOOTH"
);
},
{
closed = 1;
nodes = (
"497 328 LINE",
"497 392 LINE",
"310 392 LINE",
"310 328 LINE"
);
},
{
closed = 1;
nodes = (
"507 477 LINE",
"507 541 LINE",
"310 541 LINE",
"310 477 LINE"
);
}
);
width = 791;
}
);
leftKerningGroup = yar;
note = uni2D54;
rightKerningGroup = yar;
},
{
color = 3;
glyphname = "yar_yak-tifi";
layers = (
{
anchors = (
{
name = bottom;
position = "{389, 0}";
}
);
layerId = "87A198ED-C658-42EA-BEAB-8875AC5554B6";
paths = (
{
closed = 1;
nodes = (
"430 389 OFFCURVE",
"453 416 OFFCURVE",
"453 457 CURVE SMOOTH",
"453 502 OFFCURVE",
"432 524 OFFCURVE",
"390 524 CURVE SMOOTH",
"349 524 OFFCURVE",
"329 502 OFFCURVE",
"329 457 CURVE SMOOTH",
"329 414 OFFCURVE",
"351 389 OFFCURVE",
"390 389 CURVE SMOOTH"
);
},
{
closed = 1;
nodes = (
"332 212 OFFCURVE",
"355 239 OFFCURVE",
"355 280 CURVE SMOOTH",
"355 325 OFFCURVE",
"334 347 OFFCURVE",
"292 347 CURVE SMOOTH",
"251 347 OFFCURVE",
"231 325 OFFCURVE",
"231 280 CURVE SMOOTH",
"231 237 OFFCURVE",
"253 212 OFFCURVE",
"292 212 CURVE SMOOTH"
);
},
{
closed = 1;
nodes = (
"527 212 OFFCURVE",
"550 239 OFFCURVE",
"550 280 CURVE SMOOTH",
"550 325 OFFCURVE",
"529 347 OFFCURVE",
"487 347 CURVE SMOOTH",
"446 347 OFFCURVE",
"426 325 OFFCURVE",
"426 280 CURVE SMOOTH",
"426 237 OFFCURVE",
"448 212 OFFCURVE",
"487 212 CURVE SMOOTH"
);
},
{
closed = 1;
nodes = (
"595 -10 OFFCURVE",
"719 137 OFFCURVE",
"719 357 CURVE SMOOTH",
"719 577 OFFCURVE",
"593 725 OFFCURVE",
"389 725 CURVE SMOOTH",
"185 725 OFFCURVE",
"60 577 OFFCURVE",
"60 357 CURVE SMOOTH",
"60 137 OFFCURVE",
"183 -10 OFFCURVE",
"389 -10 CURVE SMOOTH"
);
},
{
closed = 1;
nodes = (
"236 72 OFFCURVE",
"155 177 OFFCURVE",
"155 357 CURVE SMOOTH",
"155 537 OFFCURVE",
"235 643 OFFCURVE",
"389 643 CURVE SMOOTH",
"543 643 OFFCURVE",
"624 537 OFFCURVE",
"624 357 CURVE SMOOTH",
"624 177 OFFCURVE",
"542 72 OFFCURVE",
"389 72 CURVE SMOOTH"
);
}
);
width = 779;
}
);
leftKerningGroup = yar;
note = uni2D59;
rightKerningGroup = yar;
},
{
color = 3;
glyphname = "yar_yan-tifi";
layers = (
{
layerId = "87A198ED-C658-42EA-BEAB-8875AC5554B6";
paths = (
{
closed = 1;
nodes = (
"594 -10 OFFCURVE",
"719 124 OFFCURVE",
"719 387 CURVE SMOOTH",
"719 829 LINE",
"630 829 LINE",
"630 730 LINE SMOOTH",
"630 683 OFFCURVE",
"630 636 OFFCURVE",
"632 597 CURVE",
"627 595 LINE",
"599 665 OFFCURVE",
"512 725 OFFCURVE",
"377 725 CURVE SMOOTH",
"184 725 OFFCURVE",
"60 578 OFFCURVE",
"60 358 CURVE SMOOTH",
"60 138 OFFCURVE",
"186 -10 OFFCURVE",
"390 -10 CURVE SMOOTH"
);
},
{
closed = 1;
nodes = (
"236 72 OFFCURVE",
"155 178 OFFCURVE",
"155 358 CURVE SMOOTH",
"155 538 OFFCURVE",
"236 643 OFFCURVE",
"377 643 CURVE SMOOTH",
"543 643 OFFCURVE",
"624 538 OFFCURVE",
"624 358 CURVE SMOOTH",
"624 185 OFFCURVE",
"544 72 OFFCURVE",
"390 72 CURVE SMOOTH"
);
}
);
width = 806;
}
);
leftKerningGroup = yar;
note = uni2D4F2D40;
},
{
color = 10;
glyphname = "yar_yas-tifi";
layers = (
{
anchors = (
{
name = bottom;
position = "{395, 0}";
}
);
layerId = "87A198ED-C658-42EA-BEAB-8875AC5554B6";
paths = (
{
closed = 1;
nodes = (
"604 -10 OFFCURVE",
"731 137 OFFCURVE",
"731 357 CURVE SMOOTH",
"731 577 OFFCURVE",
"602 725 OFFCURVE",
"395 725 CURVE SMOOTH",
"188 725 OFFCURVE",
"60 577 OFFCURVE",
"60 357 CURVE SMOOTH",
"60 137 OFFCURVE",
"186 -10 OFFCURVE",
"395 -10 CURVE SMOOTH"
);
},
{
closed = 1;
nodes = (
"239 72 OFFCURVE",
"155 177 OFFCURVE",
"155 357 CURVE SMOOTH",
"155 537 OFFCURVE",
"238 643 OFFCURVE",
"395 643 CURVE SMOOTH",
"552 643 OFFCURVE",
"636 537 OFFCURVE",
"636 357 CURVE SMOOTH",
"636 177 OFFCURVE",
"551 72 OFFCURVE",
"395 72 CURVE SMOOTH"
);
},
{
closed = 1;
nodes = (
"505 150 OFFCURVE",
"571 229 OFFCURVE",
"571 357 CURVE SMOOTH",
"571 485 OFFCURVE",
"505 565 OFFCURVE",
"395 565 CURVE SMOOTH",
"286 565 OFFCURVE",
"220 485 OFFCURVE",
"220 357 CURVE SMOOTH",
"220 229 OFFCURVE",
"286 150 OFFCURVE",
"395 150 CURVE SMOOTH"
);
},
{
closed = 1;
nodes = (
"325 216 OFFCURVE",
"300 265 OFFCURVE",
"300 357 CURVE SMOOTH",
"300 449 OFFCURVE",
"322 499 OFFCURVE",
"395 499 CURVE SMOOTH",
"467 499 OFFCURVE",
"491 449 OFFCURVE",
"491 357 CURVE SMOOTH",
"491 265 OFFCURVE",
"467 216 OFFCURVE",
"395 216 CURVE SMOOTH"
);
},
{
closed = 1;
nodes = (
"423 303 OFFCURVE",
"447 318 OFFCURVE",
"447 358 CURVE SMOOTH",
"447 397 OFFCURVE",
"423 412 OFFCURVE",
"395 412 CURVE SMOOTH",
"367 412 OFFCURVE",
"345 397 OFFCURVE",
"345 358 CURVE SMOOTH",
"345 318 OFFCURVE",
"367 303 OFFCURVE",
"395 303 CURVE SMOOTH"
);
}
);
width = 791;
}
);
leftKerningGroup = yar;
note = uni2D54;
rightKerningGroup = yar;
},
{
color = 0;
glyphname = "yar_yat-tifi";
layers = (
{
anchors = (
{
name = bottom;
position = "{389, 0}";
}
);
layerId = "87A198ED-C658-42EA-BEAB-8875AC5554B6";
paths = (
{
closed = 1;
nodes = (
"920 186 LINE",
"920 321 LINE",
"1058 321 LINE",
"1058 400 LINE",
"920 400 LINE",
"920 535 LINE",
"839 535 LINE",
"839 400 LINE",
"697 400 LINE",
"697 321 LINE",
"839 321 LINE",
"839 186 LINE"
);
},
{
closed = 1;
nodes = (
"595 -10 OFFCURVE",
"719 137 OFFCURVE",
"719 357 CURVE SMOOTH",
"719 577 OFFCURVE",
"593 725 OFFCURVE",
"389 725 CURVE SMOOTH",
"185 725 OFFCURVE",
"60 577 OFFCURVE",
"60 357 CURVE SMOOTH",
"60 137 OFFCURVE",
"183 -10 OFFCURVE",
"389 -10 CURVE SMOOTH"
);
},
{
closed = 1;
nodes = (
"236 72 OFFCURVE",
"155 177 OFFCURVE",
"155 357 CURVE SMOOTH",
"155 537 OFFCURVE",
"235 643 OFFCURVE",
"389 643 CURVE SMOOTH",
"543 643 OFFCURVE",
"624 537 OFFCURVE",
"624 357 CURVE SMOOTH",
"624 177 OFFCURVE",
"542 72 OFFCURVE",
"389 72 CURVE SMOOTH"
);
}
);
width = 1078;
}
);
leftKerningGroup = yar;
note = uni2D542D5C;
rightKerningGroup = ligyat;
},
{
color = 3;
glyphname = "yagh_yat-tifi";
layers = (
{
layerId = "87A198ED-C658-42EA-BEAB-8875AC5554B6";
paths = (
{
closed = 1;
nodes = (
"357 0 LINE",
"357 714 LINE",
"268 714 LINE",
"268 0 LINE"
);
},
{
closed = 1;
nodes = (
"542 228 LINE",
"542 307 LINE",
"83 307 LINE",
"83 228 LINE"
);
},
{
closed = 1;
nodes = (
"161 579 OFFCURVE",
"184 606 OFFCURVE",
"184 647 CURVE SMOOTH",
"184 692 OFFCURVE",
"163 714 OFFCURVE",
"121 714 CURVE SMOOTH",
"80 714 OFFCURVE",
"60 692 OFFCURVE",
"60 647 CURVE SMOOTH",
"60 604 OFFCURVE",
"82 579 OFFCURVE",
"121 579 CURVE SMOOTH"
);
},
{
closed = 1;
nodes = (
"542 579 OFFCURVE",
"565 606 OFFCURVE",
"565 647 CURVE SMOOTH",
"565 692 OFFCURVE",
"544 714 OFFCURVE",
"502 714 CURVE SMOOTH",
"461 714 OFFCURVE",
"441 692 OFFCURVE",
"441 647 CURVE SMOOTH",
"441 602 OFFCURVE",
"461 579 OFFCURVE",
"502 579 CURVE SMOOTH"
);
}
);
width = 625;
}
);
note = uni2D36;
},
{
color = 0;
glyphname = "yas_yan-tifi";
layers = (
{
anchors = (
{
name = bottom;
position = "{389, 0}";
}
);
layerId = "87A198ED-C658-42EA-BEAB-8875AC5554B6";
paths = (
{
closed = 1;
nodes = (
"429 -115 LINE",
"429 190 LINE",
"348 190 LINE",
"348 -115 LINE"
);
},
{
closed = 1;
nodes = (
"434 277 OFFCURVE",
"470 314 OFFCURVE",
"470 357 CURVE SMOOTH",
"470 401 OFFCURVE",
"434 438 OFFCURVE",
"389 438 CURVE SMOOTH",
"345 438 OFFCURVE",
"309 401 OFFCURVE",
"309 357 CURVE SMOOTH",
"309 314 OFFCURVE",
"345 277 OFFCURVE",
"389 277 CURVE SMOOTH"
);
},
{
closed = 1;
nodes = (
"595 -10 OFFCURVE",
"719 137 OFFCURVE",
"719 357 CURVE SMOOTH",
"719 577 OFFCURVE",
"593 725 OFFCURVE",
"389 725 CURVE SMOOTH",
"185 725 OFFCURVE",
"60 577 OFFCURVE",
"60 357 CURVE SMOOTH",
"60 137 OFFCURVE",
"183 -10 OFFCURVE",
"389 -10 CURVE SMOOTH"
);
},
{
closed = 1;
nodes = (
"236 72 OFFCURVE",
"155 177 OFFCURVE",
"155 357 CURVE SMOOTH",
"155 537 OFFCURVE",
"235 643 OFFCURVE",
"389 643 CURVE SMOOTH",
"543 643 OFFCURVE",
"624 537 OFFCURVE",
"624 357 CURVE SMOOTH",
"624 177 OFFCURVE",
"542 72 OFFCURVE",
"389 72 CURVE SMOOTH"
);
}
);
width = 779;
}
);
leftKerningGroup = yar;
note = uni2D592D4F;
rightKerningGroup = yar;
},
{
color = 0;
glyphname = "yas_yat-tifi";
layers = (
{
anchors = (
{
name = bottom;
position = "{389, 0}";
}
);
layerId = "87A198ED-C658-42EA-BEAB-8875AC5554B6";
paths = (
{
closed = 1;
nodes = (
"920 186 LINE",
"920 321 LINE",
"1058 321 LINE",
"1058 400 LINE",
"920 400 LINE",
"920 535 LINE",
"838 535 LINE",
"838 400 LINE",
"697 400 LINE",
"697 321 LINE",
"838 321 LINE",
"838 186 LINE"
);
},
{
closed = 1;
nodes = (
"434 277 OFFCURVE",
"470 314 OFFCURVE",
"470 357 CURVE SMOOTH",
"470 401 OFFCURVE",
"434 438 OFFCURVE",
"389 438 CURVE SMOOTH",
"345 438 OFFCURVE",
"309 401 OFFCURVE",
"309 357 CURVE SMOOTH",
"309 314 OFFCURVE",
"345 277 OFFCURVE",
"389 277 CURVE SMOOTH"
);
},
{
closed = 1;
nodes = (
"595 -10 OFFCURVE",
"719 137 OFFCURVE",
"719 357 CURVE SMOOTH",
"719 577 OFFCURVE",
"593 725 OFFCURVE",
"389 725 CURVE SMOOTH",
"185 725 OFFCURVE",
"60 577 OFFCURVE",
"60 357 CURVE SMOOTH",
"60 137 OFFCURVE",
"183 -10 OFFCURVE",
"389 -10 CURVE SMOOTH"
);
},
{
closed = 1;
nodes = (
"236 72 OFFCURVE",
"155 177 OFFCURVE",
"155 357 CURVE SMOOTH",
"155 537 OFFCURVE",
"235 643 OFFCURVE",
"389 643 CURVE SMOOTH",
"543 643 OFFCURVE",
"624 537 OFFCURVE",
"624 357 CURVE SMOOTH",
"624 177 OFFCURVE",
"542 72 OFFCURVE",
"389 72 CURVE SMOOTH"
);
}
);
width = 1078;
}
);
leftKerningGroup = yar;
note = uni2D592D5C;
rightKerningGroup = ligyat;
},
{
color = 0;
glyphname = "yash_yat-tifi";
layers = (
{
layerId = "87A198ED-C658-42EA-BEAB-8875AC5554B6";
paths = (
{
closed = 1;
nodes = (
"549 -10 OFFCURVE",
"648 54 OFFCURVE",
"648 151 CURVE SMOOTH",
"648 231 OFFCURVE",
"585 281 OFFCURVE",
"510 281 CURVE SMOOTH",
"441 281 OFFCURVE",
"377 240 OFFCURVE",
"377 163 CURVE SMOOTH",
"377 114 OFFCURVE",
"403 84 OFFCURVE",
"428 79 CURVE",
"428 74 LINE",
"413 72 OFFCURVE",
"399 72 OFFCURVE",
"393 72 CURVE SMOOTH",
"260 72 OFFCURVE",
"155 166 OFFCURVE",
"155 358 CURVE",
"60 358 LINE",
"60 133 OFFCURVE",
"209 -10 OFFCURVE",
"407 -10 CURVE SMOOTH"
);
},
{
closed = 1;
nodes = (
"477 90 OFFCURVE",
"457 113 OFFCURVE",
"457 148 CURVE SMOOTH",
"457 183 OFFCURVE",
"478 202 OFFCURVE",
"511 202 CURVE SMOOTH",
"543 202 OFFCURVE",
"563 177 OFFCURVE",
"563 147 CURVE SMOOTH",
"563 112 OFFCURVE",
"541 90 OFFCURVE",
"506 90 CURVE SMOOTH"
);
},
{
closed = 1;
nodes = (
"544 322 LINE",
"544 393 LINE",
"132 393 LINE",
"132 322 LINE"
);
},
{
closed = 1;
nodes = (
"155 358 LINE",
"155 549 OFFCURVE",
"260 643 OFFCURVE",
"393 643 CURVE SMOOTH",
"399 643 OFFCURVE",
"413 643 OFFCURVE",
"428 641 CURVE",
"428 636 LINE",
"403 631 OFFCURVE",
"377 601 OFFCURVE",
"377 552 CURVE SMOOTH",
"377 475 OFFCURVE",
"441 434 OFFCURVE",
"510 434 CURVE SMOOTH",
"585 434 OFFCURVE",
"648 484 OFFCURVE",
"648 564 CURVE SMOOTH",
"648 661 OFFCURVE",
"549 725 OFFCURVE",
"407 725 CURVE SMOOTH",
"209 725 OFFCURVE",
"60 582 OFFCURVE",
"60 358 CURVE"
);
},
{
closed = 1;
nodes = (
"478 513 OFFCURVE",
"457 532 OFFCURVE",
"457 567 CURVE SMOOTH",
"457 602 OFFCURVE",
"477 625 OFFCURVE",
"506 625 CURVE SMOOTH",
"541 625 OFFCURVE",
"563 603 OFFCURVE",
"563 568 CURVE SMOOTH",
"563 538 OFFCURVE",
"543 513 OFFCURVE",
"511 513 CURVE SMOOTH"
);
},
{
closed = 1;
nodes = (
"796 183 LINE",
"796 318 LINE",
"934 318 LINE",
"934 397 LINE",
"796 397 LINE",
"796 532 LINE",
"715 532 LINE",
"715 393 LINE",
"533 393 LINE",
"533 322 LINE",
"715 322 LINE",
"715 183 LINE"
);
}
);
width = 954;
}
);
note = uni2D5B2D5C;
rightKerningGroup = ligyat;
},
{
color = 0;
glyphname = "yat_yas-tifi";
layers = (
{
layerId = "87A198ED-C658-42EA-BEAB-8875AC5554B6";
paths = (
{
closed = 1;
nodes = (
"527 0 LINE",
"527 79 LINE",
"186 79 LINE",
"186 343 LINE",
"471 343 LINE",
"471 422 LINE",
"186 422 LINE",
"186 714 LINE",
"97 714 LINE",
"97 0 LINE"
);
}
);
width = 557;
}
);
note = uni2D5C2D59;
},
{
color = 10;
glyphname = "yaw_yat-tifi";
layers = (
{
layerId = "87A198ED-C658-42EA-BEAB-8875AC5554B6";
paths = (
{
closed = 1;
nodes = (
"417 0 LINE",
"417 331 LINE",
"699 331 LINE",
"699 410 LINE",
"417 410 LINE",
"417 714 LINE",
"328 714 LINE",
"328 410 LINE",
"45 410 LINE",
"45 331 LINE",
"328 331 LINE",
"328 0 LINE"
);
},
{
closed = 1;
nodes = (
"227 108 OFFCURVE",
"254 138 OFFCURVE",
"254 187 CURVE SMOOTH",
"254 240 OFFCURVE",
"229 266 OFFCURVE",
"180 266 CURVE SMOOTH",
"132 266 OFFCURVE",
"108 240 OFFCURVE",
"108 187 CURVE SMOOTH",
"108 138 OFFCURVE",
"135 108 OFFCURVE",
"180 108 CURVE SMOOTH"
);
},
{
closed = 1;
nodes = (
"225 475 OFFCURVE",
"254 505 OFFCURVE",
"254 554 CURVE SMOOTH",
"254 605 OFFCURVE",
"227 633 OFFCURVE",
"180 633 CURVE SMOOTH",
"132 633 OFFCURVE",
"108 607 OFFCURVE",
"108 554 CURVE SMOOTH",
"108 503 OFFCURVE",
"135 475 OFFCURVE",
"180 475 CURVE SMOOTH"
);
}
);
width = 724;
}
);
note = uni2D532D5C;
},
{
color = 0;
glyphname = "yazz_yat-tifi";
layers = (
{
layerId = "87A198ED-C658-42EA-BEAB-8875AC5554B6";
paths = (
{
closed = 1;
nodes = (
"241 0 LINE",
"241 113 LINE",
"602 113 LINE",
"602 0 LINE",
"691 0 LINE",
"691 113 LINE",
"798 113 LINE",
"798 192 LINE",
"691 192 LINE",
"691 522 LINE",
"798 522 LINE",
"798 601 LINE",
"691 601 LINE",
"691 714 LINE",
"602 714 LINE",
"602 601 LINE",
"241 601 LINE",
"241 714 LINE",
"152 714 LINE",
"152 601 LINE",
"45 601 LINE",
"45 522 LINE",
"152 522 LINE",
"152 192 LINE",
"45 192 LINE",
"45 113 LINE",
"152 113 LINE",
"152 0 LINE"
);
},
{
closed = 1;
nodes = (
"241 323 LINE",
"383 323 LINE",
"383 192 LINE",
"241 192 LINE"
);
},
{
closed = 1;
nodes = (
"241 522 LINE",
"383 522 LINE",
"383 394 LINE",
"241 394 LINE"
);
},
{
closed = 1;
nodes = (
"460 323 LINE",
"602 323 LINE",
"602 192 LINE",
"460 192 LINE"
);
},
{
closed = 1;
nodes = (
"460 522 LINE",
"602 522 LINE",
"602 394 LINE",
"460 394 LINE"
);
}
);
width = 843;
}
);
note = uni2D4C2D5C;
},
{
color = 0;
glyphname = "yay_yat-tifi.RTL";
layers = (
{
layerId = "87A198ED-C658-42EA-BEAB-8875AC5554B6";
paths = (
{
closed = 1;
nodes = (
"509 68 LINE",
"278 120 LINE SMOOTH",
"243 128 OFFCURVE",
"209 135 OFFCURVE",
"160 137 CURVE",
"160 142 LINE",
"199 160 OFFCURVE",
"231 184 OFFCURVE",
"259 204 CURVE SMOOTH",
"442 333 LINE",
"442 383 LINE",
"276 488 LINE SMOOTH",
"239 512 OFFCURVE",
"202 537 OFFCURVE",
"164 552 CURVE",
"164 558 LINE",
"203 566 OFFCURVE",
"241 575 OFFCURVE",
"276 587 CURVE SMOOTH",
"468 652 LINE",
"442 725 LINE",
"55 594 LINE",
"55 530 LINE",
"246 409 LINE SMOOTH",
"276 390 OFFCURVE",
"299 377 OFFCURVE",
"342 359 CURVE",
"342 353 LINE",
"312 339 OFFCURVE",
"289 323 OFFCURVE",
"265 306 CURVE SMOOTH",
"55 157 LINE",
"55 87 LINE",
"492 -10 LINE"
);
},
{
closed = 1;
nodes = (
"415 -115 LINE",
"415 188 LINE",
"334 188 LINE",
"334 -115 LINE"
);
}
);
width = 554;
}
);
note = uni2D622D5C;
},
{
color = 8;
glyphname = "ya-tifi";
production = uni2D30;
layers = (
{
components = (
{
name = circumflexcomb;
transform = "{1, 0, 0, 1, 374, -250}";
}
);
layerId = "87A198ED-C658-42EA-BEAB-8875AC5554B6";
paths = (
{
closed = 1;
nodes = (
"237 100 OFFCURVE",
"276 135 OFFCURVE",
"276 195 CURVE SMOOTH",
"276 255 OFFCURVE",
"237 290 OFFCURVE",
"181 290 CURVE SMOOTH",
"125 290 OFFCURVE",
"86 255 OFFCURVE",
"86 195 CURVE SMOOTH",
"86 135 OFFCURVE",
"125 100 OFFCURVE",
"181 100 CURVE SMOOTH"
);
}
);
width = 362;
}
);
note = uni2D30;
unicode = 2D30;
category = "";
subCategory = "";
},
{
color = 1;
glyphname = "yab-tifi";
production = uni2D31;
layers = (
{
anchors = (
{
name = bottom;
position = "{389, 0}";
}
);
components = (
{
name = "yar-tifi";
}
);
layerId = "87A198ED-C658-42EA-BEAB-8875AC5554B6";
paths = (
{
closed = 1;
nodes = (
"434 18 LINE",
"434 683 LINE",
"345 683 LINE",
"345 18 LINE"
);
}
);
width = 779;
}
);
leftKerningGroup = yar;
note = uni2D40;
rightKerningGroup = yar;
unicode = 2D31;
category = "";
subCategory = "";
},
{
color = 0;
glyphname = "yabh-tifi";
layers = (
{
components = (
{
name = "yar-tifi";
}
);
layerId = "87A198ED-C658-42EA-BEAB-8875AC5554B6";
paths = (
{
closed = 1;
nodes = (
"427 27 LINE",
"427 322 LINE",
"654 322 LINE",
"654 394 LINE",
"427 394 LINE",
"427 688 LINE",
"350 688 LINE",
"350 394 LINE",
"131 394 LINE",
"131 322 LINE",
"350 322 LINE",
"350 27 LINE"
);
}
);
width = 779;
}
);
leftKerningGroup = yar;
note = uni2D32;
rightKerningGroup = yar;
unicode = 2D32;
},
{
color = 8;
glyphname = "yag-tifi";
production = uni2D33;
layers = (
{
layerId = "87A198ED-C658-42EA-BEAB-8875AC5554B6";
paths = (
{
closed = 1;
nodes = (
"322 0 LINE",
"322 714 LINE",
"233 714 LINE",
"233 0 LINE"
);
},
{
closed = 1;
nodes = (
"125 579 OFFCURVE",
"149 603 OFFCURVE",
"149 646 CURVE SMOOTH",
"149 687 OFFCURVE",
"125 714 OFFCURVE",
"86 714 CURVE SMOOTH",
"47 714 OFFCURVE",
"25 689 OFFCURVE",
"25 646 CURVE SMOOTH",
"25 601 OFFCURVE",
"45 579 OFFCURVE",
"86 579 CURVE SMOOTH"
);
},
{
closed = 1;
nodes = (
"507 579 OFFCURVE",
"530 604 OFFCURVE",
"530 647 CURVE SMOOTH",
"530 692 OFFCURVE",
"509 714 OFFCURVE",
"467 714 CURVE SMOOTH",
"430 714 OFFCURVE",
"406 692 OFFCURVE",
"406 647 CURVE SMOOTH",
"406 603 OFFCURVE",
"430 579 OFFCURVE",
"467 579 CURVE SMOOTH"
);
}
);
width = 555;
}
);
note = uni2D4F2D57;
unicode = 2D33;
category = "";
subCategory = "";
},
{
color = 0;
glyphname = "yaghh-tifi";
layers = (
{
anchors = (
{
name = bottom;
position = "{337, 0}";
}
);
layerId = "87A198ED-C658-42EA-BEAB-8875AC5554B6";
paths = (
{
closed = 1;
nodes = (
"613 0 LINE",
"629 36 LINE",
"390 361 LINE",
"645 706 LINE",
"645 714 LINE",
"548 714 LINE",
"417 536 LINE SMOOTH",
"392 502 OFFCURVE",
"358 457 OFFCURVE",
"341 421 CURVE",
"336 421 LINE",
"320 457 OFFCURVE",
"285 503 OFFCURVE",
"262 536 CURVE SMOOTH",
"131 714 LINE",
"30 714 LINE",
"30 706 LINE",
"285 358 LINE",
"48 36 LINE",
"64 0 LINE"
);
},
{
closed = 1;
nodes = (
"174 81 LINE",
"200 107 OFFCURVE",
"218 127 OFFCURVE",
"249 169 CURVE SMOOTH",
"265 191 LINE SMOOTH",
"288 223 OFFCURVE",
"317 261 OFFCURVE",
"334 298 CURVE",
"339 298 LINE",
"355 262 OFFCURVE",
"385 223 OFFCURVE",
"408 191 CURVE SMOOTH",
"425 168 LINE SMOOTH",
"455 127 OFFCURVE",
"474 106 OFFCURVE",
"499 81 CURVE",
"497 75 LINE",
"465 78 OFFCURVE",
"423 79 OFFCURVE",
"385 79 CURVE SMOOTH",
"288 79 LINE SMOOTH",
"250 79 OFFCURVE",
"212 78 OFFCURVE",
"176 75 CURVE"
);
}
);
width = 675;
}
);
note = uni2D34;
unicode = 2D34;
},
{
color = 0;
glyphname = "yajBerberacademy-tifi";
layers = (
{
layerId = "87A198ED-C658-42EA-BEAB-8875AC5554B6";
paths = (
{
closed = 1;
nodes = (
"613 0 LINE",
"629 36 LINE",
"388 357 LINE",
"626 678 LINE",
"610 714 LINE",
"56 714 LINE",
"40 678 LINE",
"281 353 LINE",
"44 36 LINE",
"60 0 LINE"
);
},
{
closed = 1;
nodes = (
"173 81 LINE",
"201 107 OFFCURVE",
"221 131 OFFCURVE",
"246 166 CURVE SMOOTH",
"264 191 LINE SMOOTH",
"287 222 OFFCURVE",
"313 256 OFFCURVE",
"330 293 CURVE",
"335 293 LINE",
"351 257 OFFCURVE",
"376 226 OFFCURVE",
"395 199 CURVE SMOOTH",
"416 171 LINE SMOOTH",
"441 137 OFFCURVE",
"463 111 OFFCURVE",
"492 81 CURVE",
"490 75 LINE",
"458 78 OFFCURVE",
"416 79 OFFCURVE",
"378 79 CURVE SMOOTH",
"287 79 LINE SMOOTH",
"249 79 OFFCURVE",
"211 78 OFFCURVE",
"175 75 CURVE"
);
},
{
closed = 1;
nodes = (
"316 452 OFFCURVE",
"287 492 OFFCURVE",
"264 523 CURVE SMOOTH",
"247 545 LINE SMOOTH",
"218 582 OFFCURVE",
"201 605 OFFCURVE",
"172 633 CURVE",
"174 639 LINE",
"206 636 OFFCURVE",
"248 635 OFFCURVE",
"286 635 CURVE SMOOTH",
"386 635 LINE SMOOTH",
"424 635 OFFCURVE",
"462 636 OFFCURVE",
"498 639 CURVE",
"500 633 LINE",
"472 607 OFFCURVE",
"456 588 OFFCURVE",
"424 545 CURVE SMOOTH",
"407 522 LINE SMOOTH",
"383 491 OFFCURVE",
"354 453 OFFCURVE",
"337 416 CURVE",
"332 416 LINE"
);
}
);
width = 668;
}
);
note = uni2D35;
unicode = 2D35;
},
{
color = 0;
glyphname = "yaj-tifi";
lastChange = "2019-12-16 19:29:39 +0000";
layers = (
{
layerId = "87A198ED-C658-42EA-BEAB-8875AC5554B6";
paths = (
{
closed = 1;
nodes = (
"347 0 LINE",
"347 714 LINE",
"258 714 LINE",
"258 0 LINE"
);
},
{
closed = 1;
nodes = (
"151 579 OFFCURVE",
"174 606 OFFCURVE",
"174 647 CURVE SMOOTH",
"174 692 OFFCURVE",
"153 714 OFFCURVE",
"111 714 CURVE SMOOTH",
"70 714 OFFCURVE",
"50 692 OFFCURVE",
"50 647 CURVE SMOOTH",
"50 604 OFFCURVE",
"72 579 OFFCURVE",
"111 579 CURVE SMOOTH"
);
},
{
closed = 1;
nodes = (
"532 579 OFFCURVE",
"555 606 OFFCURVE",
"555 647 CURVE SMOOTH",
"555 692 OFFCURVE",
"534 714 OFFCURVE",
"492 714 CURVE SMOOTH",
"451 714 OFFCURVE",
"431 692 OFFCURVE",
"431 647 CURVE SMOOTH",
"431 602 OFFCURVE",
"451 579 OFFCURVE",
"492 579 CURVE SMOOTH"
);
}
);
width = 605;
}
);
note = uni2D36;
unicode = 2D36;
},
{
color = 6;
glyphname = "yad-tifi";
production = uni2D37;
layers = (
{
anchors = (
{
name = bottom;
position = "{321, 0}";
}
);
layerId = "87A198ED-C658-42EA-BEAB-8875AC5554B6";
paths = (
{
closed = 1;
nodes = (
"537 0 LINE",
"537 79 LINE",
"186 79 LINE",
"186 328 LINE",
"487 328 LINE",
"487 407 LINE",
"186 407 LINE",
"186 635 LINE",
"527 635 LINE",
"527 714 LINE",
"97 714 LINE",
"97 0 LINE"
);
}
);
width = 597;
}
);
note = uni2D39;
unicode = 2D37;
category = "";
subCategory = "";
},
{
color = 0;
glyphname = "yadh-tifi";
layers = (
{
layerId = "87A198ED-C658-42EA-BEAB-8875AC5554B6";
paths = (
{
closed = 1;
nodes = (
"379 0 LINE",
"649 706 LINE",
"649 714 LINE",
"564 714 LINE",
"393 271 LINE SMOOTH",
"375 225 OFFCURVE",
"358 180 OFFCURVE",
"347 127 CURVE",
"342 127 LINE",
"334 180 OFFCURVE",
"318 225 OFFCURVE",
"301 271 CURVE SMOOTH",
"135 714 LINE",
"40 714 LINE",
"40 706 LINE",
"302 0 LINE"
);
}
);
width = 689;
}
);
leftKerningGroup = yadh;
note = uni2D38;
rightKerningGroup = yadh;
unicode = 2D38;
},
{
color = 0;
glyphname = "yadd-tifi";
layers = (
{
anchors = (
{
name = bottom;
position = "{321, 0}";
}
);
layerId = "87A198ED-C658-42EA-BEAB-8875AC5554B6";
paths = (
{
closed = 1;
nodes = (
"537 0 LINE",
"537 79 LINE",
"186 79 LINE",
"186 328 LINE",
"487 328 LINE",
"487 407 LINE",
"186 407 LINE",
"186 635 LINE",
"527 635 LINE",
"527 714 LINE",
"97 714 LINE",
"97 0 LINE"
);
}
);
width = 597;
}
);
note = uni2D39;
unicode = 2D39;
},
{
color = 0;
glyphname = "yaddh-tifi";
layers = (
{
layerId = "87A198ED-C658-42EA-BEAB-8875AC5554B6";
paths = (
{
closed = 1;
nodes = (
"490 0 LINE",
"490 714 LINE",
"60 714 LINE",
"60 635 LINE",
"401 635 LINE",
"401 407 LINE",
"100 407 LINE",
"100 328 LINE",
"401 328 LINE",
"401 79 LINE",
"50 79 LINE",
"50 0 LINE"
);
}
);
width = 587;
}
);
note = uni2D3A;
unicode = 2D3A;
},
{
color = 8;
glyphname = "yey-tifi";
production = uni2D3B;
layers = (
{
components = (
{
name = brevecomb;
transform = "{1, 0, 0, 1, 368, -260}";
}
);
layerId = "87A198ED-C658-42EA-BEAB-8875AC5554B6";
paths = (
{
closed = 1;
nodes = (
"231 100 OFFCURVE",
"270 135 OFFCURVE",
"270 195 CURVE SMOOTH",
"270 255 OFFCURVE",
"231 290 OFFCURVE",
"175 290 CURVE SMOOTH",
"119 290 OFFCURVE",
"80 255 OFFCURVE",
"80 195 CURVE SMOOTH",
"80 135 OFFCURVE",
"119 100 OFFCURVE",
"175 100 CURVE SMOOTH"
);
}
);
width = 370;
}
);
note = uni2D30;
unicode = 2D3B;
category = "";
subCategory = "";
},
{
color = 3;
export = 0;
glyphname = "yaf_yatAhaggar-tifi";
layers = (
{
layerId = "87A198ED-C658-42EA-BEAB-8875AC5554B6";
paths = (
{
closed = 1;
nodes = (
"186 0 LINE",
"186 186 LINE",
"582 186 LINE",
"582 0 LINE",
"671 0 LINE",
"671 265 LINE",
"428 265 LINE",
"428 449 LINE",
"671 449 LINE",
"671 714 LINE",
"582 714 LINE",
"582 528 LINE",
"186 528 LINE",
"186 714 LINE",
"97 714 LINE",
"97 449 LINE",
"339 449 LINE",
"339 265 LINE",
"97 265 LINE",
"97 0 LINE"
);
}
);
width = 768;
}
);
note = uni2D4F2D3C;
},
{
color = 8;
export = 0;
glyphname = "yaf_yatTawellemmet-tifi";
layers = (
{
layerId = "87A198ED-C658-42EA-BEAB-8875AC5554B6";
paths = (
{
closed = 1;
nodes = (
"174 0 LINE",
"174 165 LINE",
"570 165 LINE",
"570 0 LINE",
"659 0 LINE",
"659 244 LINE",
"416 244 LINE",
"416 479 LINE",
"659 479 LINE",
"659 714 LINE",
"570 714 LINE",
"570 558 LINE",
"174 558 LINE",
"174 714 LINE",
"85 714 LINE",
"85 479 LINE",
"327 479 LINE",
"327 244 LINE",
"85 244 LINE",
"85 0 LINE"
);
},
{
closed = 1;
nodes = (
"524 324 LINE",
"524 399 LINE",
"219 399 LINE",
"219 324 LINE"
);
}
);
width = 744;
}
);
note = uni2D4F2D3C;
},
{
color = 8;
glyphname = "yaf-tifi";
production = uni2D3C;
layers = (
{
layerId = "87A198ED-C658-42EA-BEAB-8875AC5554B6";
paths = (
{
closed = 1;
nodes = (
"671 449 LINE",
"671 714 LINE",
"582 714 LINE",
"582 528 LINE",
"186 528 LINE",
"186 714 LINE",
"97 714 LINE",
"97 449 LINE"
);
},
{
closed = 1;
nodes = (
"186 0 LINE",
"186 186 LINE",
"582 186 LINE",
"582 0 LINE",
"671 0 LINE",
"671 265 LINE",
"97 265 LINE",
"97 0 LINE"
);
}
);
width = 768;
}
);
note = uni2D4F2D3C;
unicode = 2D3C;
category = "";
subCategory = "";
},
{
color = 4;
export = 0;
glyphname = "yaf_yatAdrar-tifi";
layers = (
{
anchors = (
{
name = bottom;
position = "{275, 0}";
}
);
layerId = "87A198ED-C658-42EA-BEAB-8875AC5554B6";
paths = (
{
closed = 1;
nodes = (
"481 0 LINE",
"481 79 LINE",
"320 79 LINE",
"320 635 LINE",
"481 635 LINE",
"481 714 LINE",
"70 714 LINE",
"70 635 LINE",
"231 635 LINE",
"231 79 LINE",
"70 79 LINE",
"70 0 LINE"
);
},
{
closed = 1;
nodes = (
"476 338 LINE",
"476 417 LINE",
"75 417 LINE",
"75 338 LINE"
);
}
);
width = 551;
}
);
note = uni2D4A;
},
{
color = 0;
glyphname = "yak-tifi";
layers = (
{
layerId = "87A198ED-C658-42EA-BEAB-8875AC5554B6";
paths = (
{
closed = 1;
nodes = (
"152 0 LINE",
"355 284 LINE",
"552 0 LINE",
"657 0 LINE",
"657 8 LINE",
"411 362 LINE",
"633 670 LINE",
"615 714 LINE",
"97 714 LINE",
"97 0 LINE"
);
},
{
closed = 1;
nodes = (
"173 160 LINE",
"183 220 OFFCURVE",
"186 287 OFFCURVE",
"186 351 CURVE SMOOTH",
"186 635 LINE",
"403 635 LINE SMOOTH",
"453 635 OFFCURVE",
"478 636 OFFCURVE",
"515 639 CURVE",
"517 633 LINE",
"479 596 OFFCURVE",
"447 553 OFFCURVE",
"411 503 CURVE SMOOTH",
"286 330 LINE SMOOTH",
"243 270 OFFCURVE",
"212 222 OFFCURVE",
"179 158 CURVE"
);
}
);
width = 687;
}
);
note = uni2D3D;
rightKerningGroup = yak;
unicode = 2D3D;
},
{
color = 0;
glyphname = "yakTuareg-tifi";
layers = (
{
layerId = "87A198ED-C658-42EA-BEAB-8875AC5554B6";
paths = (
{
closed = 1;
nodes = (
"197 536 OFFCURVE",
"226 565 OFFCURVE",
"226 616 CURVE SMOOTH",
"226 668 OFFCURVE",
"199 695 OFFCURVE",
"152 695 CURVE SMOOTH",
"104 695 OFFCURVE",
"80 669 OFFCURVE",
"80 616 CURVE SMOOTH",
"80 565 OFFCURVE",
"107 536 OFFCURVE",
"152 536 CURVE SMOOTH"
);
},
{
closed = 1;
nodes = (
"199 20 OFFCURVE",
"226 49 OFFCURVE",
"226 100 CURVE SMOOTH",
"226 151 OFFCURVE",
"199 179 OFFCURVE",
"152 179 CURVE SMOOTH",
"107 179 OFFCURVE",
"80 151 OFFCURVE",
"80 100 CURVE SMOOTH",
"80 49 OFFCURVE",
"107 20 OFFCURVE",
"152 20 CURVE SMOOTH"
);
},
{
closed = 1;
nodes = (
"429 278 OFFCURVE",
"458 307 OFFCURVE",
"458 358 CURVE SMOOTH",
"458 409 OFFCURVE",
"431 437 OFFCURVE",
"384 437 CURVE SMOOTH",
"336 437 OFFCURVE",
"312 411 OFFCURVE",
"312 358 CURVE SMOOTH",
"312 307 OFFCURVE",
"339 278 OFFCURVE",
"384 278 CURVE SMOOTH"
);
}
);
width = 513;
}
);
note = uni2D3E;
unicode = 2D3E;
},
{
color = 0;
glyphname = "yakhh-tifi";
layers = (
{
layerId = "87A198ED-C658-42EA-BEAB-8875AC5554B6";
paths = (
{
closed = 1;
nodes = (
"615 0 LINE",
"633 44 LINE",
"410 354 LINE",
"654 706 LINE",
"654 714 LINE",
"557 714 LINE",
"357 427 LINE",
"152 714 LINE",
"97 714 LINE",
"97 0 LINE"
);
},
{
closed = 1;
nodes = (
"471 78 OFFCURVE",
"446 79 OFFCURVE",
"396 79 CURVE SMOOTH",
"186 79 LINE",
"186 363 LINE SMOOTH",
"186 427 OFFCURVE",
"180 505 OFFCURVE",
"174 543 CURVE",
"180 545 LINE",
"204 495 OFFCURVE",
"248 429 OFFCURVE",
"283 380 CURVE SMOOTH",
"411 201 LINE SMOOTH",
"449 149 OFFCURVE",
"480 107 OFFCURVE",
"510 81 CURVE",
"508 75 LINE"
);
}
);
width = 684;
}
);
note = uni2D3F;
rightKerningGroup = yak;
unicode = 2D3F;
},
{
color = 0;
glyphname = "yah-tifi";
layers = (
{
components = (
{
name = "yar-tifi";
}
);
layerId = "87A198ED-C658-42EA-BEAB-8875AC5554B6";
paths = (
{
closed = 1;
nodes = (
"434 18 LINE",
"434 683 LINE",
"345 683 LINE",
"345 18 LINE"
);
}
);
width = 779;
}
);
leftKerningGroup = yar;
note = uni2D40;
rightKerningGroup = yar;
unicode = 2D40;
},
{
color = 0;
glyphname = "yahBerberacademy-tifi";
layers = (
{
components = (
{
name = "yar-tifi";
transform = "{1, 0, 0, 1, 6, 0}";
}
);
layerId = "87A198ED-C658-42EA-BEAB-8875AC5554B6";
paths = (
{
closed = 1;
nodes = (
"766 675 LINE",
"707 735 LINE",
"25 39 LINE",
"84 -20 LINE"
);
}
);
width = 791;
}
);
note = uni2D41;
unicode = 2D41;
},
{
color = 0;
glyphname = "yahTuareg-tifi";
layers = (
{
layerId = "87A198ED-C658-42EA-BEAB-8875AC5554B6";
paths = (
{
closed = 1;
nodes = (
"193 593 OFFCURVE",
"219 619 OFFCURVE",
"219 663 CURVE SMOOTH",
"219 706 OFFCURVE",
"196 733 OFFCURVE",
"153 733 CURVE SMOOTH",
"112 733 OFFCURVE",
"90 707 OFFCURVE",
"90 663 CURVE SMOOTH",
"90 618 OFFCURVE",
"114 593 OFFCURVE",
"153 593 CURVE SMOOTH"
);
},
{
closed = 1;
nodes = (
"194 -19 OFFCURVE",
"219 7 OFFCURVE",
"219 51 CURVE SMOOTH",
"219 95 OFFCURVE",
"196 121 OFFCURVE",
"153 121 CURVE SMOOTH",
"112 121 OFFCURVE",
"90 95 OFFCURVE",
"90 51 CURVE SMOOTH",
"90 4 OFFCURVE",
"111 -19 OFFCURVE",
"153 -19 CURVE SMOOTH"
);
},
{
closed = 1;
nodes = (
"193 185 OFFCURVE",
"219 212 OFFCURVE",
"219 256 CURVE SMOOTH",
"219 301 OFFCURVE",
"194 325 OFFCURVE",
"153 325 CURVE SMOOTH",
"111 325 OFFCURVE",
"90 302 OFFCURVE",
"90 256 CURVE SMOOTH",
"90 211 OFFCURVE",
"114 185 OFFCURVE",
"153 185 CURVE SMOOTH"
);
},
{
closed = 1;
nodes = (
"194 389 OFFCURVE",
"219 415 OFFCURVE",
"219 459 CURVE SMOOTH",
"219 503 OFFCURVE",
"194 529 OFFCURVE",
"153 529 CURVE SMOOTH",
"113 529 OFFCURVE",
"90 503 OFFCURVE",
"90 459 CURVE SMOOTH",
"90 412 OFFCURVE",
"111 389 OFFCURVE",
"153 389 CURVE SMOOTH"
);
}
);
width = 309;
}
);
note = uni2D42;
unicode = 2D42;
},
{
color = 0;
glyphname = "yahh-tifi";
layers = (
{
layerId = "87A198ED-C658-42EA-BEAB-8875AC5554B6";
paths = (
{
closed = 1;
nodes = (
"94 0 LINE",
"178 131 LINE SMOOTH",
"213 185 OFFCURVE",
"249 242 OFFCURVE",
"283 307 CURVE",
"289 307 LINE",
"322 242 OFFCURVE",
"348 196 OFFCURVE",
"388 131 CURVE SMOOTH",
"469 0 LINE",
"568 0 LINE",
"568 8 LINE",
"338 382 LINE",
"545 706 LINE",
"545 714 LINE",
"451 714 LINE",
"0 8 LINE",
"0 0 LINE"
);
}
);
width = 600;
}
);
note = uni2D43;
unicode = 2D43;
},
{
color = 0;
glyphname = "yaa-tifi";
layers = (
{
layerId = "87A198ED-C658-42EA-BEAB-8875AC5554B6";
paths = (
{
closed = 1;
nodes = (
"159 0 LINE",
"159 318 LINE",
"512 318 LINE",
"512 0 LINE",
"601 0 LINE",
"601 397 LINE",
"380 397 LINE",
"380 714 LINE",
"291 714 LINE",
"291 397 LINE",
"70 397 LINE",
"70 0 LINE"
);
}
);
width = 671;
}
);
note = uni2D44;
unicode = 2D44;
},
{
color = 0;
glyphname = "yakh-tifi";
layers = (
{
layerId = "87A198ED-C658-42EA-BEAB-8875AC5554B6";
paths = (
{
closed = 1;
nodes = (
"124 0 LINE",
"228 155 LINE SMOOTH",
"263 207 OFFCURVE",
"304 263 OFFCURVE",
"314 299 CURVE",
"319 299 LINE",
"330 264 OFFCURVE",
"373 199 OFFCURVE",
"402 155 CURVE SMOOTH",
"505 0 LINE",
"607 0 LINE",
"607 8 LINE",
"370 365 LINE",
"600 706 LINE",
"600 714 LINE",
"510 714 LINE",
"440 610 LINE SMOOTH",
"407 562 OFFCURVE",
"380 525 OFFCURVE",
"354 458 CURVE",
"349 460 LINE",
"362 541 OFFCURVE",
"361 575 OFFCURVE",
"361 639 CURVE SMOOTH",
"361 714 LINE",
"276 714 LINE",
"276 639 LINE SMOOTH",
"276 575 OFFCURVE",
"277 539 OFFCURVE",
"295 460 CURVE",
"290 458 LINE",
"263 523 OFFCURVE",
"242 559 OFFCURVE",
"209 608 CURVE SMOOTH",
"138 714 LINE",
"36 714 LINE",
"36 706 LINE",
"269 357 LINE",
"34 8 LINE",
"34 0 LINE"
);
}
);
width = 639;
}
);
leftKerningGroup = yath;
note = uni2D45;
rightKerningGroup = yath;
unicode = 2D45;
},
{
color = 0;
glyphname = "yakhTuareg-tifi";
production = uni2D46;
layers = (
{
layerId = "87A198ED-C658-42EA-BEAB-8875AC5554B6";
paths = (
{
closed = 1;
nodes = (
"634 278 OFFCURVE",
"663 309 OFFCURVE",
"663 358 CURVE SMOOTH",
"663 411 OFFCURVE",
"638 437 OFFCURVE",
"589 437 CURVE SMOOTH",
"541 437 OFFCURVE",
"517 411 OFFCURVE",
"517 358 CURVE SMOOTH",
"517 307 OFFCURVE",
"544 278 OFFCURVE",
"589 278 CURVE SMOOTH"
);
},
{
closed = 1;
nodes = (
"162 278 OFFCURVE",
"191 309 OFFCURVE",
"191 358 CURVE SMOOTH",
"191 411 OFFCURVE",
"166 437 OFFCURVE",
"117 437 CURVE SMOOTH",
"69 437 OFFCURVE",
"45 411 OFFCURVE",
"45 358 CURVE SMOOTH",
"45 307 OFFCURVE",
"72 278 OFFCURVE",
"117 278 CURVE SMOOTH"
);
},
{
closed = 1;
nodes = (
"398 278 OFFCURVE",
"427 309 OFFCURVE",
"427 358 CURVE SMOOTH",
"427 411 OFFCURVE",
"402 437 OFFCURVE",
"353 437 CURVE SMOOTH",
"305 437 OFFCURVE",
"281 411 OFFCURVE",
"281 358 CURVE SMOOTH",
"281 307 OFFCURVE",
"308 278 OFFCURVE",
"353 278 CURVE SMOOTH"
);
}
);
width = 708;
}
);
note = uni2D48;
unicode = 2D46;
},
{
color = 0;
glyphname = "yaq-tifi";
layers = (
{
layerId = "87A198ED-C658-42EA-BEAB-8875AC5554B6";
paths = (
{
closed = 1;
nodes = (
"628 0 LINE",
"628 79 LINE",
"208 79 LINE",
"633 670 LINE",
"615 714 LINE",
"97 714 LINE",
"97 0 LINE"
);
},
{
closed = 1;
nodes = (
"173 161 LINE",
"181 211 OFFCURVE",
"186 287 OFFCURVE",
"186 351 CURVE SMOOTH",
"186 635 LINE",
"403 635 LINE SMOOTH",
"453 635 OFFCURVE",
"476 636 OFFCURVE",
"515 639 CURVE",
"517 633 LINE",
"487 607 OFFCURVE",
"447 553 OFFCURVE",
"411 503 CURVE SMOOTH",
"288 333 LINE SMOOTH",
"249 278 OFFCURVE",
"208 214 OFFCURVE",
"179 159 CURVE"
);
}
);
width = 678;
}
);
note = uni2D47;
unicode = 2D47;
},
{
color = 0;
glyphname = "yaqTuareg-tifi";
production = uni2D48;
layers = (
{
layerId = "87A198ED-C658-42EA-BEAB-8875AC5554B6";
paths = (
{
closed = 1;
nodes = (
"544 479 OFFCURVE",
"573 510 OFFCURVE",
"573 559 CURVE SMOOTH",
"573 612 OFFCURVE",
"548 638 OFFCURVE",
"499 638 CURVE SMOOTH",
"451 638 OFFCURVE",
"427 612 OFFCURVE",
"427 559 CURVE SMOOTH",
"427 508 OFFCURVE",
"454 479 OFFCURVE",
"499 479 CURVE SMOOTH"
);
},
{
closed = 1;
nodes = (
"190 81 OFFCURVE",
"216 110 OFFCURVE",
"216 161 CURVE SMOOTH",
"216 212 OFFCURVE",
"189 240 OFFCURVE",
"142 240 CURVE SMOOTH",
"94 240 OFFCURVE",
"70 214 OFFCURVE",
"70 161 CURVE SMOOTH",
"70 110 OFFCURVE",
"95 81 OFFCURVE",
"142 81 CURVE SMOOTH"
);
},
{
closed = 1;
nodes = (
"547 81 OFFCURVE",
"573 110 OFFCURVE",
"573 161 CURVE SMOOTH",
"573 212 OFFCURVE",
"546 240 OFFCURVE",
"499 240 CURVE SMOOTH",
"451 240 OFFCURVE",
"427 214 OFFCURVE",
"427 161 CURVE SMOOTH",
"427 110 OFFCURVE",
"452 81 OFFCURVE",
"499 81 CURVE SMOOTH"
);
},
{
closed = 1;
nodes = (
"187 479 OFFCURVE",
"216 510 OFFCURVE",
"216 559 CURVE SMOOTH",
"216 612 OFFCURVE",
"191 638 OFFCURVE",
"142 638 CURVE SMOOTH",
"94 638 OFFCURVE",
"70 612 OFFCURVE",
"70 559 CURVE SMOOTH",
"70 508 OFFCURVE",
"97 479 OFFCURVE",
"142 479 CURVE SMOOTH"
);
}
);
width = 643;
}
);
note = uni2D46;
unicode = 2D48;
},
{
color = 8;
glyphname = "yi-tifi";
production = uni2D49;
layers = (
{
anchors = (
{
name = top;
position = "{250, 714}";
}
);
layerId = "87A198ED-C658-42EA-BEAB-8875AC5554B6";
paths = (
{
closed = 1;
nodes = (
"425 298 LINE",
"425 351 LINE",
"266 487 LINE SMOOTH",
"236 513 OFFCURVE",
"206 541 OFFCURVE",
"165 564 CURVE",
"165 571 LINE",
"212 578 OFFCURVE",
"243 587 OFFCURVE",
"290 600 CURVE SMOOTH",
"466 649 LINE",
"446 725 LINE",
"59 612 LINE",
"59 550 LINE",
"256 381 LINE SMOOTH",
"278 362 OFFCURVE",
"302 342 OFFCURVE",
"334 322 CURVE",
"334 316 LINE",
"305 296 OFFCURVE",
"287 277 OFFCURVE",
"262 252 CURVE SMOOTH",
"55 45 LINE",
"119 -10 LINE"
);
},
{
closed = 1;
nodes = (
"155 239 OFFCURVE",
"179 266 OFFCURVE",
"179 307 CURVE SMOOTH",
"179 350 OFFCURVE",
"155 374 OFFCURVE",
"116 374 CURVE SMOOTH",
"75 374 OFFCURVE",
"55 352 OFFCURVE",
"55 307 CURVE SMOOTH",
"55 264 OFFCURVE",
"77 239 OFFCURVE",
"116 239 CURVE SMOOTH"
);
}
);
width = 516;
}
);
note = uni2D62;
unicode = 2D49;
category = "";
subCategory = "";
},
{
color = 0;
glyphname = "yazh-tifi";
layers = (
{
anchors = (
{
name = bottom;
position = "{255, 0}";
}
);
layerId = "87A198ED-C658-42EA-BEAB-8875AC5554B6";
paths = (
{
closed = 1;
nodes = (
"461 0 LINE",
"461 79 LINE",
"300 79 LINE",
"300 635 LINE",
"461 635 LINE",
"461 714 LINE",
"50 714 LINE",
"50 635 LINE",
"211 635 LINE",
"211 79 LINE",
"50 79 LINE",
"50 0 LINE"
);
}
);
width = 511;
}
);
leftKerningGroup = yazh;
note = uni2D4A;
rightKerningGroup = yazh;
unicode = 2D4A;
},
{
color = 0;
glyphname = "yazhAhaggar-tifi";
layers = (
{
layerId = "87A198ED-C658-42EA-BEAB-8875AC5554B6";
paths = (
{
closed = 1;
nodes = (
"170 -10 OFFCURVE",
"272 50 OFFCURVE",
"317 171 CURVE",
"318 171 LINE",
"363 50 OFFCURVE",
"465 -10 OFFCURVE",
"600 -10 CURVE",
"600 72 LINE",
"446 72 OFFCURVE",
"365 177 OFFCURVE",
"365 357 CURVE SMOOTH",
"365 537 OFFCURVE",
"446 643 OFFCURVE",
"600 643 CURVE",
"600 725 LINE",
"464 725 OFFCURVE",
"363 665 OFFCURVE",
"318 542 CURVE",
"317 542 LINE",
"272 665 OFFCURVE",
"170 725 OFFCURVE",
"35 725 CURVE",
"35 643 LINE",
"189 643 OFFCURVE",
"270 537 OFFCURVE",
"270 357 CURVE SMOOTH",
"270 177 OFFCURVE",
"189 72 OFFCURVE",
"35 72 CURVE",
"35 -10 LINE"
);
}
);
width = 635;
}
);
note = uni2D4B;
unicode = 2D4B;
},
{
color = 0;
glyphname = "yazhTuareg-tifi";
layers = (
{
layerId = "87A198ED-C658-42EA-BEAB-8875AC5554B6";
paths = (
{
closed = 1;
nodes = (
"305 0 LINE",
"305 186 LINE",
"479 186 LINE",
"479 0 LINE",
"568 0 LINE",
"568 186 LINE",
"739 186 LINE",
"739 265 LINE",
"568 265 LINE",
"568 449 LINE",
"739 449 LINE",
"739 528 LINE",
"568 528 LINE",
"568 714 LINE",
"479 714 LINE",
"479 528 LINE",
"305 528 LINE",
"305 714 LINE",
"216 714 LINE",
"216 528 LINE",
"45 528 LINE",
"45 449 LINE",
"216 449 LINE",
"216 265 LINE",
"45 265 LINE",
"45 186 LINE",
"216 186 LINE",
"216 0 LINE"
);
},
{
closed = 1;
nodes = (
"305 449 LINE",
"479 449 LINE",
"479 265 LINE",
"305 265 LINE"
);
}
);
width = 784;
}
);
note = uni2D4C;
unicode = 2D4C;
},
{
color = 0;
export = 0;
glyphname = "yal_yatTawellemmet-tifi";
layers = (
{
layerId = "87A198ED-C658-42EA-BEAB-8875AC5554B6";
paths = (
{
closed = 1;
nodes = (
"169 83 LINE",
"169 304 LINE",
"325 304 LINE",
"325 169 LINE",
"414 169 LINE",
"414 304 LINE",
"570 304 LINE",
"570 83 LINE",
"659 83 LINE",
"659 615 LINE",
"570 615 LINE",
"570 383 LINE",
"414 383 LINE",
"414 518 LINE",
"325 518 LINE",
"325 383 LINE",
"169 383 LINE",
"169 615 LINE",
"80 615 LINE",
"80 83 LINE"
);
}
);
width = 739;
}
);
note = uni2D4D2D5C;
subCategory = Ligature;
},
{
color = 1;
glyphname = "yal-tifi";
production = uni2D4D;
layers = (
{
anchors = (
{
name = bottom;
position = "{248, 0}";
}
);
layerId = "87A198ED-C658-42EA-BEAB-8875AC5554B6";
paths = (
{
closed = 1;
nodes = (
"399 0 LINE",
"399 714 LINE",
"310 714 LINE",
"310 0 LINE"
);
},
{
closed = 1;
nodes = (
"186 0 LINE",
"186 714 LINE",
"97 714 LINE",
"97 0 LINE"
);
}
);
width = 496;
}
);
note = uni2D4D;
unicode = 2D4D;
category = "";
subCategory = "";
},
{
color = 4;
export = 0;
glyphname = "yam_yatAdrar-tifi";
layers = (
{
layerId = "87A198ED-C658-42EA-BEAB-8875AC5554B6";
paths = (
{
closed = 1;
nodes = (
"498 -115 LINE",
"498 0 LINE",
"613 0 LINE",
"613 79 LINE",
"498 79 LINE",
"498 194 LINE",
"417 194 LINE",
"417 79 LINE",
"186 79 LINE",
"186 635 LINE",
"537 635 LINE",
"537 714 LINE",
"97 714 LINE",
"97 0 LINE",
"417 0 LINE",
"417 -115 LINE"
);
}
);
width = 633;
}
);
note = uni2D4E2D5C;
},
{
color = 0;
glyphname = "yam-tifi";
layers = (
{
layerId = "87A198ED-C658-42EA-BEAB-8875AC5554B6";
paths = (
{
closed = 1;
nodes = (
"537 0 LINE",
"537 79 LINE",
"186 79 LINE",
"186 635 LINE",
"527 635 LINE",
"527 714 LINE",
"97 714 LINE",
"97 0 LINE"
);
}
);
width = 587;
}
);
note = uni2D4E;
unicode = 2D4E;
},
{
color = 0;
export = 0;
glyphname = "yam_yatSIL-tifi";
layers = (
{
layerId = "87A198ED-C658-42EA-BEAB-8875AC5554B6";
paths = (
{
closed = 1;
nodes = (
"537 0 LINE",
"537 79 LINE",
"186 79 LINE",
"186 635 LINE",
"417 635 LINE",
"417 520 LINE",
"498 520 LINE",
"498 635 LINE",
"613 635 LINE",
"613 714 LINE",
"498 714 LINE",
"498 829 LINE",
"417 829 LINE",
"417 714 LINE",
"97 714 LINE",
"97 0 LINE"
);
}
);
width = 633;
}
);
note = uni2D4E2D5C;
subCategory = Ligature;
},
{
color = 0;
export = 0;
glyphname = "yan_yazTawellemmet-tifi";
layers = (
{
layerId = "87A198ED-C658-42EA-BEAB-8875AC5554B6";
paths = (
{
closed = 1;
nodes = (
"651 0 LINE",
"669 49 LINE",
"434 325 LINE",
"369 272 LINE",
"473 150 LINE SMOOTH",
"493 127 OFFCURVE",
"515 101 OFFCURVE",
"547 79 CURVE",
"545 74 LINE",
"507 79 OFFCURVE",
"471 79 OFFCURVE",
"433 79 CURVE SMOOTH",
"25 79 LINE",
"25 0 LINE"
);
}
);
width = 699;
}
);
note = uni2D4F2D64;
},
{
color = 6;
export = 0;
glyphname = "yan_yatAPT-tifi";
layers = (
{
layerId = "87A198ED-C658-42EA-BEAB-8875AC5554B6";
paths = (
{
closed = 1;
nodes = (
"422 225 LINE",
"369 290 LINE",
"244 184 LINE SMOOTH",
"211 156 OFFCURVE",
"198 141 OFFCURVE",
"180 118 CURVE",
"178 119 LINE",
"185 148 OFFCURVE",
"186 162 OFFCURVE",
"186 205 CURVE SMOOTH",
"186 714 LINE",
"97 714 LINE",
"97 8 LINE",
"146 -10 LINE"
);
}
);
width = 472;
}
);
note = uni2D4F2D36;
},
{
color = 0;
export = 0;
glyphname = "yan_yagTawellemmet-tifi";
layers = (
{
anchors = (
{
name = bottom;
position = "{335, 0}";
}
);
layerId = "87A198ED-C658-42EA-BEAB-8875AC5554B6";
paths = (
{
closed = 1;
nodes = (
"611 0 LINE",
"627 36 LINE",
"388 361 LINE",
"643 706 LINE",
"643 714 LINE",
"546 714 LINE",
"415 536 LINE SMOOTH",
"390 502 OFFCURVE",
"356 457 OFFCURVE",
"339 421 CURVE",
"334 421 LINE",
"318 457 OFFCURVE",
"283 503 OFFCURVE",
"260 536 CURVE SMOOTH",
"129 714 LINE",
"28 714 LINE",
"28 706 LINE",
"283 358 LINE",
"46 36 LINE",
"62 0 LINE"
);
},
{
closed = 1;
nodes = (
"172 81 LINE",
"198 107 OFFCURVE",
"216 127 OFFCURVE",
"247 169 CURVE SMOOTH",
"263 191 LINE SMOOTH",
"286 223 OFFCURVE",
"315 261 OFFCURVE",
"332 298 CURVE",
"337 298 LINE",
"353 262 OFFCURVE",
"383 223 OFFCURVE",
"406 191 CURVE SMOOTH",
"423 168 LINE SMOOTH",
"453 127 OFFCURVE",
"472 106 OFFCURVE",
"497 81 CURVE",
"495 75 LINE",
"463 78 OFFCURVE",
"421 79 OFFCURVE",
"383 79 CURVE SMOOTH",
"286 79 LINE SMOOTH",
"248 79 OFFCURVE",
"210 78 OFFCURVE",
"174 75 CURVE"
);
},
{
closed = 1;
nodes = (
"378 557 LINE",
"378 829 LINE",
"297 829 LINE",
"297 557 LINE"
);
}
);
width = 675;
}
);
note = uni2D4F2D34;
subCategory = Ligature;
},
{
color = 8;
export = 0;
glyphname = "yan_yatTawellemmet-tifi";
layers = (
{
layerId = "87A198ED-C658-42EA-BEAB-8875AC5554B6";
paths = (
{
closed = 1;
nodes = (
"186 0 LINE",
"186 343 LINE",
"471 343 LINE",
"471 422 LINE",
"186 422 LINE",
"186 714 LINE",
"97 714 LINE",
"97 0 LINE"
);
}
);
width = 491;
}
);
note = uni2D5C2D59;
},
{
color = 0;
glyphname = "yan-tifi";
layers = (
{
layerId = "87A198ED-C658-42EA-BEAB-8875AC5554B6";
paths = (
{
closed = 1;
nodes = (
"186 0 LINE",
"186 714 LINE",
"97 714 LINE",
"97 0 LINE"
);
}
);
width = 283;
}
);
note = uni2D4F;
unicode = 2D4F;
},
{
color = 8;
export = 0;
glyphname = "yan_yafTawellemmet-tifi";
layers = (
{
layerId = "87A198ED-C658-42EA-BEAB-8875AC5554B6";
paths = (
{
closed = 1;
nodes = (
"704 0 LINE",
"704 79 LINE",
"528 79 LINE",
"528 635 LINE",
"704 635 LINE",
"704 714 LINE",
"439 714 LINE",
"439 0 LINE"
);
},
{
closed = 1;
nodes = (
"315 0 LINE",
"315 714 LINE",
"50 714 LINE",
"50 635 LINE",
"226 635 LINE",
"226 79 LINE",
"50 79 LINE",
"50 0 LINE"
);
}
);
width = 754;
}
);
note = uni2D3C;
},
{
color = 4;
export = 0;
glyphname = "yan_yadAdrar-tifi";
layers = (
{
layerId = "87A198ED-C658-42EA-BEAB-8875AC5554B6";
paths = (
{
closed = 1;
nodes = (
"363 391 LINE",
"603 706 LINE",
"603 714 LINE",
"513 714 LINE",
"418 590 LINE SMOOTH",
"386 549 OFFCURVE",
"347 496 OFFCURVE",
"321 455 CURVE",
"315 455 LINE",
"290 496 OFFCURVE",
"250 549 OFFCURVE",
"220 590 CURVE SMOOTH",
"128 714 LINE",
"30 714 LINE",
"30 706 LINE",
"264 391 LINE"
);
},
{
closed = 1;
nodes = (
"120 0 LINE",
"215 124 LINE SMOOTH",
"247 165 OFFCURVE",
"286 218 OFFCURVE",
"312 259 CURVE",
"318 259 LINE",
"343 218 OFFCURVE",
"383 165 OFFCURVE",
"413 124 CURVE SMOOTH",
"505 0 LINE",
"603 0 LINE",
"603 8 LINE",
"369 323 LINE",
"270 323 LINE",
"30 8 LINE",
"30 0 LINE"
);
}
);
width = 633;
}
);
note = uni2D37;
},
{
color = 4;
export = 0;
glyphname = "yan_yafAdrar-tifi";
layers = (
{
layerId = "87A198ED-C658-42EA-BEAB-8875AC5554B6";
paths = (
{
closed = 1;
nodes = (
"654 0 LINE",
"654 79 LINE",
"503 79 LINE",
"503 635 LINE",
"654 635 LINE",
"654 714 LINE",
"253 714 LINE",
"253 635 LINE",
"414 635 LINE",
"414 79 LINE",
"253 79 LINE",
"253 0 LINE"
);
},
{
closed = 1;
nodes = (
"441 0 LINE",
"441 79 LINE",
"280 79 LINE",
"280 635 LINE",
"441 635 LINE",
"441 714 LINE",
"40 714 LINE",
"40 635 LINE",
"191 635 LINE",
"191 79 LINE",
"40 79 LINE",
"40 0 LINE"
);
}
);
width = 694;
}
);
note = uni2D4A;
},
{
color = 8;
export = 0;
glyphname = "yan_yabTuareg-tifi";
layers = (
{
layerId = "87A198ED-C658-42EA-BEAB-8875AC5554B6";
paths = (
{
closed = 1;
nodes = (
"186 -135 LINE",
"186 0 LINE",
"804 0 LINE",
"804 714 LINE",
"97 714 LINE",
"97 -135 LINE"
);
},
{
closed = 1;
nodes = (
"186 635 LINE",
"406 635 LINE",
"406 79 LINE",
"186 79 LINE"
);
},
{
closed = 1;
nodes = (
"495 635 LINE",
"715 635 LINE",
"715 79 LINE",
"495 79 LINE"
);
}
);
width = 901;
}
);
note = uni2D3C;
},
{
color = 6;
export = 0;
glyphname = "yan_yakAPT-tifi";
layers = (
{
layerId = "87A198ED-C658-42EA-BEAB-8875AC5554B6";
paths = (
{
closed = 1;
nodes = (
"181 0 LINE",
"181 503 LINE",
"92 503 LINE",
"92 0 LINE"
);
},
{
closed = 1;
nodes = (
"178 589 OFFCURVE",
"199 611 OFFCURVE",
"199 656 CURVE SMOOTH",
"199 697 OFFCURVE",
"176 724 OFFCURVE",
"136 724 CURVE SMOOTH",
"95 724 OFFCURVE",
"75 701 OFFCURVE",
"75 656 CURVE SMOOTH",
"75 611 OFFCURVE",
"95 589 OFFCURVE",
"136 589 CURVE SMOOTH"
);
}
);
width = 274;
}
);
note = uni2D51;
},
{
color = 0;
glyphname = "yagnTuareg-tifi";
layers = (
{
layerId = "87A198ED-C658-42EA-BEAB-8875AC5554B6";
paths = (
{
closed = 1;
nodes = (
"319 0 LINE",
"319 221 LINE",
"524 221 LINE",
"524 300 LINE",
"319 300 LINE",
"319 434 LINE",
"524 434 LINE",
"524 513 LINE",
"319 513 LINE",
"319 714 LINE",
"230 714 LINE",
"230 513 LINE",
"25 513 LINE",
"25 434 LINE",
"230 434 LINE",
"230 300 LINE",
"25 300 LINE",
"25 221 LINE",
"230 221 LINE",
"230 0 LINE"
);
}
);
width = 549;
}
);
note = uni2D50;
unicode = 2D50;
},
{
color = 0;
glyphname = "yangTuareg-tifi";
layers = (
{
layerId = "87A198ED-C658-42EA-BEAB-8875AC5554B6";
paths = (
{
closed = 1;
nodes = (
"181 211 LINE",
"181 714 LINE",
"92 714 LINE",
"92 211 LINE"
);
},
{
closed = 1;
nodes = (
"176 -10 OFFCURVE",
"199 17 OFFCURVE",
"199 58 CURVE SMOOTH",
"199 103 OFFCURVE",
"178 125 OFFCURVE",
"136 125 CURVE SMOOTH",
"95 125 OFFCURVE",
"75 103 OFFCURVE",
"75 58 CURVE SMOOTH",
"75 13 OFFCURVE",
"95 -10 OFFCURVE",
"136 -10 CURVE SMOOTH"
);
}
);
width = 274;
}
);
note = uni2D51;
unicode = 2D51;
},
{
color = 0;
glyphname = "yap-tifi";
layers = (
{
layerId = "87A198ED-C658-42EA-BEAB-8875AC5554B6";
paths = (
{
closed = 1;
nodes = (
"446 -10 OFFCURVE",
"547 64 OFFCURVE",
"547 203 CURVE SMOOTH",
"547 344 OFFCURVE",
"464 406 OFFCURVE",
"342 406 CURVE SMOOTH",
"270 406 OFFCURVE",
"233 386 OFFCURVE",
"204 359 CURVE",
"201 362 LINE",
"224 424 OFFCURVE",
"348 561 OFFCURVE",
"543 654 CURVE",
"533 714 LINE",
"74 714 LINE",
"74 635 LINE",
"263 635 LINE SMOOTH",
"297 635 OFFCURVE",
"349 638 OFFCURVE",
"366 641 CURVE",
"367 635 LINE",
"327 613 OFFCURVE",
"276 577 OFFCURVE",
"230 533 CURVE SMOOTH",
"153 460 OFFCURVE",
"60 335 OFFCURVE",
"60 202 CURVE SMOOTH",
"60 67 OFFCURVE",
"144 -10 OFFCURVE",
"304 -10 CURVE SMOOTH"
);
},
{
closed = 1;
nodes = (
"204 72 OFFCURVE",
"155 113 OFFCURVE",
"155 201 CURVE SMOOTH",
"155 275 OFFCURVE",
"214 324 OFFCURVE",
"309 324 CURVE SMOOTH",
"404 324 OFFCURVE",
"452 293 OFFCURVE",
"452 204 CURVE SMOOTH",
"452 120 OFFCURVE",
"393 72 OFFCURVE",
"307 72 CURVE SMOOTH"
);
}
);
width = 622;
}
);
leftKerningGroup = yap;
note = uni2D52;
rightKerningGroup = yap;
unicode = 2D52;
},
{
color = 0;
glyphname = "yar-tifi";
layers = (
{
anchors = (
{
name = bottom;
position = "{389, 0}";
}
);
layerId = "87A198ED-C658-42EA-BEAB-8875AC5554B6";
paths = (
{
closed = 1;
nodes = (
"595 -10 OFFCURVE",
"719 137 OFFCURVE",
"719 357 CURVE SMOOTH",
"719 577 OFFCURVE",
"593 725 OFFCURVE",
"389 725 CURVE SMOOTH",
"185 725 OFFCURVE",
"60 577 OFFCURVE",
"60 357 CURVE SMOOTH",
"60 137 OFFCURVE",
"183 -10 OFFCURVE",
"389 -10 CURVE SMOOTH"
);
},
{
closed = 1;
nodes = (
"236 72 OFFCURVE",
"155 177 OFFCURVE",
"155 357 CURVE SMOOTH",
"155 537 OFFCURVE",
"235 643 OFFCURVE",
"389 643 CURVE SMOOTH",
"543 643 OFFCURVE",
"624 537 OFFCURVE",
"624 357 CURVE SMOOTH",
"624 177 OFFCURVE",
"542 72 OFFCURVE",
"389 72 CURVE SMOOTH"
);
}
);
width = 779;
}
);
leftKerningGroup = yar;
note = uni2D54;
rightKerningGroup = yar;
unicode = 2D54;
},
{
color = 8;
export = 0;
glyphname = "yar_yatTawellemmet-tifi";
layers = (
{
components = (
{
name = "yar-tifi";
}
);
layerId = "87A198ED-C658-42EA-BEAB-8875AC5554B6";
paths = (
{
closed = 1;
nodes = (
"427 27 LINE",
"427 322 LINE",
"654 322 LINE",
"654 393 LINE",
"427 393 LINE",
"427 688 LINE",
"350 688 LINE",
"350 393 LINE",
"131 393 LINE",
"131 322 LINE",
"350 322 LINE",
"350 27 LINE"
);
}
);
width = 779;
}
);
leftKerningGroup = yar;
note = uni2D32;
rightKerningGroup = yar;
},
{
color = 0;
glyphname = "yarr-tifi";
layers = (
{
components = (
{
name = "yar-tifi";
}
);
layerId = "87A198ED-C658-42EA-BEAB-8875AC5554B6";
paths = (
{
closed = 1;
nodes = (
"747 39 LINE",
"421 374 LINE",
"362 314 LINE",
"688 -20 LINE"
);
}
);
width = 789;
}
);
leftKerningGroup = yar;
note = uni2D55;
unicode = 2D55;
},
{
color = 0;
glyphname = "yagh-tifi";
layers = (
{
layerId = "87A198ED-C658-42EA-BEAB-8875AC5554B6";
paths = (
{
closed = 1;
nodes = (
"380 0 LINE",
"380 298 LINE",
"601 298 LINE",
"601 714 LINE",
"512 714 LINE",
"512 377 LINE",
"159 377 LINE",
"159 714 LINE",
"70 714 LINE",
"70 298 LINE",
"291 298 LINE",
"291 0 LINE"
);
}
);
width = 671;
}
);
note = uni2D56;
unicode = 2D56;
},
{
color = 0;
glyphname = "yaghTuareg-tifi";
layers = (
{
layerId = "87A198ED-C658-42EA-BEAB-8875AC5554B6";
paths = (
{
closed = 1;
nodes = (
"194 538 OFFCURVE",
"221 567 OFFCURVE",
"221 618 CURVE SMOOTH",
"221 670 OFFCURVE",
"192 697 OFFCURVE",
"147 697 CURVE SMOOTH",
"102 697 OFFCURVE",
"75 669 OFFCURVE",
"75 618 CURVE SMOOTH",
"75 567 OFFCURVE",
"102 538 OFFCURVE",
"147 538 CURVE SMOOTH"
);
},
{
closed = 1;
nodes = (
"194 20 OFFCURVE",
"221 49 OFFCURVE",
"221 100 CURVE SMOOTH",
"221 151 OFFCURVE",
"194 179 OFFCURVE",
"147 179 CURVE SMOOTH",
"102 179 OFFCURVE",
"75 151 OFFCURVE",
"75 100 CURVE SMOOTH",
"75 49 OFFCURVE",
"102 20 OFFCURVE",
"147 20 CURVE SMOOTH"
);
},
{
closed = 1;
nodes = (
"192 279 OFFCURVE",
"221 308 OFFCURVE",
"221 359 CURVE SMOOTH",
"221 410 OFFCURVE",
"194 438 OFFCURVE",
"147 438 CURVE SMOOTH",
"99 438 OFFCURVE",
"75 412 OFFCURVE",
"75 359 CURVE SMOOTH",
"75 308 OFFCURVE",
"102 279 OFFCURVE",
"147 279 CURVE SMOOTH"
);
}
);
width = 296;
}
);
note = uni2D57;
unicode = 2D57;
},
{
color = 0;
glyphname = "yaghAyer-tifi";
layers = (
{
layerId = "87A198ED-C658-42EA-BEAB-8875AC5554B6";
paths = (
{
closed = 1;
nodes = (
"573 479 OFFCURVE",
"600 508 OFFCURVE",
"600 559 CURVE SMOOTH",
"600 610 OFFCURVE",
"573 638 OFFCURVE",
"526 638 CURVE SMOOTH",
"481 638 OFFCURVE",
"454 610 OFFCURVE",
"454 559 CURVE SMOOTH",
"454 508 OFFCURVE",
"481 479 OFFCURVE",
"526 479 CURVE SMOOTH"
);
},
{
closed = 1;
nodes = (
"188 81 OFFCURVE",
"214 112 OFFCURVE",
"214 161 CURVE SMOOTH",
"214 212 OFFCURVE",
"187 240 OFFCURVE",
"140 240 CURVE SMOOTH",
"92 240 OFFCURVE",
"68 214 OFFCURVE",
"68 161 CURVE SMOOTH",
"68 112 OFFCURVE",
"93 81 OFFCURVE",
"140 81 CURVE SMOOTH"
);
},
{
closed = 1;
nodes = (
"573 81 OFFCURVE",
"600 110 OFFCURVE",
"600 161 CURVE SMOOTH",
"600 212 OFFCURVE",
"573 240 OFFCURVE",
"526 240 CURVE SMOOTH",
"481 240 OFFCURVE",
"454 212 OFFCURVE",
"454 161 CURVE SMOOTH",
"454 110 OFFCURVE",
"481 81 OFFCURVE",
"526 81 CURVE SMOOTH"
);
},
{
closed = 1;
nodes = (
"378 280 OFFCURVE",
"407 309 OFFCURVE",
"407 360 CURVE SMOOTH",
"407 411 OFFCURVE",
"380 439 OFFCURVE",
"333 439 CURVE SMOOTH",
"285 439 OFFCURVE",
"261 413 OFFCURVE",
"261 360 CURVE SMOOTH",
"261 309 OFFCURVE",
"288 280 OFFCURVE",
"333 280 CURVE SMOOTH"
);
},
{
closed = 1;
nodes = (
"188 479 OFFCURVE",
"214 510 OFFCURVE",
"214 559 CURVE SMOOTH",
"214 610 OFFCURVE",
"187 638 OFFCURVE",
"140 638 CURVE SMOOTH",
"92 638 OFFCURVE",
"68 612 OFFCURVE",
"68 559 CURVE SMOOTH",
"68 510 OFFCURVE",
"93 479 OFFCURVE",
"140 479 CURVE SMOOTH"
);
}
);
width = 668;
}
);
note = uni2D58;
unicode = 2D58;
},
{
color = 0;
glyphname = "yas-tifi";
layers = (
{
anchors = (
{
name = bottom;
position = "{389, 0}";
}
);
components = (
{
name = "yar-tifi";
}
);
layerId = "87A198ED-C658-42EA-BEAB-8875AC5554B6";
paths = (
{
closed = 1;
nodes = (
"434 277 OFFCURVE",
"470 314 OFFCURVE",
"470 357 CURVE SMOOTH",
"470 401 OFFCURVE",
"434 438 OFFCURVE",
"389 438 CURVE SMOOTH",
"345 438 OFFCURVE",
"309 401 OFFCURVE",
"309 357 CURVE SMOOTH",
"309 314 OFFCURVE",
"345 277 OFFCURVE",
"389 277 CURVE SMOOTH"
);
}
);
width = 779;
}
);
leftKerningGroup = yar;
note = uni2D59;
rightKerningGroup = yar;
unicode = 2D59;
},
{
color = 4;
export = 0;
glyphname = "yas_yatAdrar-tifi";
layers = (
{
anchors = (
{
name = bottom;
position = "{389, 0}";
}
);
layerId = "87A198ED-C658-42EA-BEAB-8875AC5554B6";
paths = (
{
closed = 1;
nodes = (
"595 -10 OFFCURVE",
"719 137 OFFCURVE",
"719 357 CURVE SMOOTH",
"719 577 OFFCURVE",
"593 725 OFFCURVE",
"389 725 CURVE SMOOTH",
"185 725 OFFCURVE",
"60 577 OFFCURVE",
"60 357 CURVE SMOOTH",
"60 137 OFFCURVE",
"183 -10 OFFCURVE",
"389 -10 CURVE SMOOTH"
);
},
{
closed = 1;
nodes = (
"417 27 LINE",
"417 301 LINE",
"654 301 LINE",
"654 373 LINE",
"417 373 LINE",
"417 688 LINE",
"339 688 LINE",
"339 373 LINE",
"131 373 LINE",
"131 301 LINE",
"339 301 LINE",
"339 27 LINE"
);
},
{
closed = 1;
nodes = (
"236 68 OFFCURVE",
"151 177 OFFCURVE",
"151 357 CURVE SMOOTH",
"151 537 OFFCURVE",
"235 647 OFFCURVE",
"389 647 CURVE SMOOTH",
"543 647 OFFCURVE",
"628 537 OFFCURVE",
"628 357 CURVE SMOOTH",
"628 177 OFFCURVE",
"542 68 OFFCURVE",
"389 68 CURVE SMOOTH"
);
},
{
closed = 1;
nodes = (
"535 425 OFFCURVE",
"559 440 OFFCURVE",
"559 480 CURVE SMOOTH",
"559 519 OFFCURVE",
"535 535 OFFCURVE",
"507 535 CURVE SMOOTH",
"479 535 OFFCURVE",
"457 519 OFFCURVE",
"457 480 CURVE SMOOTH",
"457 440 OFFCURVE",
"479 425 OFFCURVE",
"507 425 CURVE SMOOTH"
);
}
);
width = 779;
}
);
leftKerningGroup = yar;
note = uni2D32;
rightKerningGroup = yar;
},
{
color = 8;
export = 0;
glyphname = "yas_yatTawellemmet-tifi";
layers = (
{
anchors = (
{
name = bottom;
position = "{389, 0}";
}
);
layerId = "87A198ED-C658-42EA-BEAB-8875AC5554B6";
paths = (
{
closed = 1;
nodes = (
"595 -10 OFFCURVE",
"719 137 OFFCURVE",
"719 357 CURVE SMOOTH",
"719 577 OFFCURVE",
"593 725 OFFCURVE",
"389 725 CURVE SMOOTH",
"185 725 OFFCURVE",
"60 577 OFFCURVE",
"60 357 CURVE SMOOTH",
"60 137 OFFCURVE",
"183 -10 OFFCURVE",
"389 -10 CURVE SMOOTH"
);
},
{
closed = 1;
nodes = (
"535 180 OFFCURVE",
"559 196 OFFCURVE",
"559 235 CURVE SMOOTH",
"559 275 OFFCURVE",
"535 290 OFFCURVE",
"507 290 CURVE SMOOTH",
"479 290 OFFCURVE",
"457 275 OFFCURVE",
"457 235 CURVE SMOOTH",
"457 196 OFFCURVE",
"479 180 OFFCURVE",
"507 180 CURVE SMOOTH"
);
},
{
closed = 1;
nodes = (
"417 27 LINE",
"417 342 LINE",
"654 342 LINE",
"654 414 LINE",
"417 414 LINE",
"417 688 LINE",
"339 688 LINE",
"339 414 LINE",
"131 414 LINE",
"131 342 LINE",
"339 342 LINE",
"339 27 LINE"
);
},
{
closed = 1;
nodes = (
"236 68 OFFCURVE",
"151 177 OFFCURVE",
"151 357 CURVE SMOOTH",
"151 537 OFFCURVE",
"235 647 OFFCURVE",
"389 647 CURVE SMOOTH",
"543 647 OFFCURVE",
"628 537 OFFCURVE",
"628 357 CURVE SMOOTH",
"628 177 OFFCURVE",
"542 68 OFFCURVE",
"389 68 CURVE SMOOTH"
);
}
);
width = 779;
}
);
leftKerningGroup = yar;
note = uni2D32;
rightKerningGroup = yar;
},
{
color = 7;
glyphname = "yass-tifi";
production = uni2D5A;
layers = (
{
anchors = (
{
name = bottom;
position = "{389, 0}";
}
);
components = (
{
name = "yar-tifi";
}
);
layerId = "87A198ED-C658-42EA-BEAB-8875AC5554B6";
paths = (
{
closed = 1;
nodes = (
"434 277 OFFCURVE",
"470 314 OFFCURVE",
"470 357 CURVE SMOOTH",
"470 401 OFFCURVE",
"434 438 OFFCURVE",
"389 438 CURVE SMOOTH",
"345 438 OFFCURVE",
"309 401 OFFCURVE",
"309 357 CURVE SMOOTH",
"309 314 OFFCURVE",
"345 277 OFFCURVE",
"389 277 CURVE SMOOTH"
);
}
);
width = 779;
}
);
leftKerningGroup = yar;
note = uni2D59;
rightKerningGroup = yar;
unicode = 2D5A;
category = "";
subCategory = "";
},
{
color = 8;
glyphname = "yash-tifi";
production = uni2D5B;
layers = (
{
layerId = "87A198ED-C658-42EA-BEAB-8875AC5554B6";
paths = (
{
closed = 1;
nodes = (
"155 357 LINE",
"155 534 OFFCURVE",
"237 627 OFFCURVE",
"302 636 CURVE",
"302 632 LINE",
"282 622 OFFCURVE",
"264 593 OFFCURVE",
"264 559 CURVE SMOOTH",
"264 476 OFFCURVE",
"321 433 OFFCURVE",
"404 433 CURVE SMOOTH",
"484 433 OFFCURVE",
"546 485 OFFCURVE",
"546 563 CURVE SMOOTH",
"546 652 OFFCURVE",
"480 724 OFFCURVE",
"355 724 CURVE SMOOTH",
"185 724 OFFCURVE",
"60 573 OFFCURVE",
"60 357 CURVE"
);
},
{
closed = 1;
nodes = (
"480 -10 OFFCURVE",
"546 62 OFFCURVE",
"546 151 CURVE SMOOTH",
"546 229 OFFCURVE",
"484 281 OFFCURVE",
"404 281 CURVE SMOOTH",
"321 281 OFFCURVE",
"264 238 OFFCURVE",
"264 155 CURVE SMOOTH",
"264 121 OFFCURVE",
"282 92 OFFCURVE",
"302 82 CURVE",
"302 78 LINE",
"237 87 OFFCURVE",
"155 180 OFFCURVE",
"155 357 CURVE",
"60 357 LINE",
"60 141 OFFCURVE",
"185 -10 OFFCURVE",
"355 -10 CURVE SMOOTH"
);
},
{
closed = 1;
nodes = (
"365 81 OFFCURVE",
"344 107 OFFCURVE",
"344 144 CURVE SMOOTH",
"344 180 OFFCURVE",
"367 202 OFFCURVE",
"404 202 CURVE SMOOTH",
"437 202 OFFCURVE",
"462 181 OFFCURVE",
"462 143 CURVE SMOOTH",
"462 105 OFFCURVE",
"435 81 OFFCURVE",
"402 81 CURVE SMOOTH"
);
},
{
closed = 1;
nodes = (
"367 512 OFFCURVE",
"344 534 OFFCURVE",
"344 570 CURVE SMOOTH",
"344 607 OFFCURVE",
"365 633 OFFCURVE",
"402 633 CURVE SMOOTH",
"435 633 OFFCURVE",
"462 609 OFFCURVE",
"462 571 CURVE SMOOTH",
"462 533 OFFCURVE",
"437 512 OFFCURVE",
"404 512 CURVE SMOOTH"
);
}
);
width = 611;
}
);
note = uni2D63;
unicode = 2D5B;
category = "";
subCategory = "";
},
{
color = 0;
glyphname = "yat-tifi";
layers = (
{
anchors = (
{
name = bottom;
position = "{275, 0}";
},
{
name = top;
position = "{275, 714}";
}
);
layerId = "87A198ED-C658-42EA-BEAB-8875AC5554B6";
paths = (
{
closed = 1;
nodes = (
"319 0 LINE",
"319 338 LINE",
"524 338 LINE",
"524 417 LINE",
"319 417 LINE",
"319 714 LINE",
"230 714 LINE",
"230 417 LINE",
"25 417 LINE",
"25 338 LINE",
"230 338 LINE",
"230 0 LINE"
);
}
);
width = 549;
}
);
leftKerningGroup = yat;
note = uni2D5C;
rightKerningGroup = yat;
unicode = 2D5C;
},
{
color = 0;
glyphname = "yath-tifi";
layers = (
{
anchors = (
{
name = bottom;
position = "{317, 0}";
}
);
layerId = "87A198ED-C658-42EA-BEAB-8875AC5554B6";
paths = (
{
closed = 1;
nodes = (
"124 0 LINE",
"228 155 LINE SMOOTH",
"263 207 OFFCURVE",
"304 263 OFFCURVE",
"314 299 CURVE",
"319 299 LINE",
"330 264 OFFCURVE",
"373 199 OFFCURVE",
"402 155 CURVE SMOOTH",
"505 0 LINE",
"609 0 LINE",
"609 8 LINE",
"369 366 LINE",
"600 706 LINE",
"600 714 LINE",
"506 714 LINE",
"409 570 LINE SMOOTH",
"374 518 OFFCURVE",
"333 462 OFFCURVE",
"323 426 CURVE",
"318 426 LINE",
"307 461 OFFCURVE",
"264 526 OFFCURVE",
"235 570 CURVE SMOOTH",
"140 714 LINE",
"36 714 LINE",
"36 706 LINE",
"269 358 LINE",
"30 8 LINE",
"30 0 LINE"
);
}
);
width = 639;
}
);
leftKerningGroup = yath;
note = uni2D5D;
rightKerningGroup = yath;
unicode = 2D5D;
},
{
color = 0;
glyphname = "yach-tifi";
layers = (
{
layerId = "87A198ED-C658-42EA-BEAB-8875AC5554B6";
paths = (
{
closed = 1;
nodes = (
"549 -10 OFFCURVE",
"648 54 OFFCURVE",
"648 151 CURVE SMOOTH",
"648 231 OFFCURVE",
"585 281 OFFCURVE",
"510 281 CURVE SMOOTH",
"441 281 OFFCURVE",
"377 240 OFFCURVE",
"377 163 CURVE SMOOTH",
"377 114 OFFCURVE",
"403 84 OFFCURVE",
"428 79 CURVE",
"428 74 LINE",
"413 72 OFFCURVE",
"399 72 OFFCURVE",
"393 72 CURVE SMOOTH",
"260 72 OFFCURVE",
"155 166 OFFCURVE",
"155 358 CURVE",
"60 358 LINE",
"60 133 OFFCURVE",
"209 -10 OFFCURVE",
"407 -10 CURVE SMOOTH"
);
},
{
closed = 1;
nodes = (
"333 218 LINE",
"333 322 LINE",
"438 322 LINE",
"438 397 LINE",
"333 397 LINE",
"333 502 LINE",
"256 502 LINE",
"256 397 LINE",
"134 397 LINE",
"134 322 LINE",
"256 322 LINE",
"256 218 LINE"
);
},
{
closed = 1;
nodes = (
"477 90 OFFCURVE",
"457 113 OFFCURVE",
"457 148 CURVE SMOOTH",
"457 183 OFFCURVE",
"478 202 OFFCURVE",
"511 202 CURVE SMOOTH",
"543 202 OFFCURVE",
"563 177 OFFCURVE",
"563 147 CURVE SMOOTH",
"563 112 OFFCURVE",
"541 90 OFFCURVE",
"506 90 CURVE SMOOTH"
);
},
{
closed = 1;
nodes = (
"155 358 LINE",
"155 549 OFFCURVE",
"260 643 OFFCURVE",
"393 643 CURVE SMOOTH",
"399 643 OFFCURVE",
"413 643 OFFCURVE",
"428 641 CURVE",
"428 636 LINE",
"403 631 OFFCURVE",
"377 601 OFFCURVE",
"377 552 CURVE SMOOTH",
"377 475 OFFCURVE",
"441 434 OFFCURVE",
"510 434 CURVE SMOOTH",
"585 434 OFFCURVE",
"648 484 OFFCURVE",
"648 564 CURVE SMOOTH",
"648 661 OFFCURVE",
"549 725 OFFCURVE",
"407 725 CURVE SMOOTH",
"209 725 OFFCURVE",
"60 582 OFFCURVE",
"60 358 CURVE"
);
},
{
closed = 1;
nodes = (
"478 513 OFFCURVE",
"457 532 OFFCURVE",
"457 567 CURVE SMOOTH",
"457 602 OFFCURVE",
"477 625 OFFCURVE",
"506 625 CURVE SMOOTH",
"541 625 OFFCURVE",
"563 603 OFFCURVE",
"563 568 CURVE SMOOTH",
"563 538 OFFCURVE",
"543 513 OFFCURVE",
"511 513 CURVE SMOOTH"
);
}
);
width = 719;
}
);
note = uni2D5E;
unicode = 2D5E;
},
{
color = 7;
glyphname = "yatt-tifi";
production = uni2D5F;
layers = (
{
anchors = (
{
name = bottom;
position = "{275, 0}";
},
{
name = top;
position = "{275, 714}";
}
);
layerId = "87A198ED-C658-42EA-BEAB-8875AC5554B6";
paths = (
{
closed = 1;
nodes = (
"319 0 LINE",
"319 338 LINE",
"524 338 LINE",
"524 417 LINE",
"319 417 LINE",
"319 714 LINE",
"230 714 LINE",
"230 417 LINE",
"25 417 LINE",
"25 338 LINE",
"230 338 LINE",
"230 0 LINE"
);
}
);
width = 549;
}
);
leftKerningGroup = yat;
note = uni2D5C;
rightKerningGroup = yat;
unicode = 2D5F;
category = "";
subCategory = "";
},
{
color = 0;
glyphname = "yav-tifi";
layers = (
{
anchors = (
{
name = top;
position = "{352, 714}";
}
);
layerId = "87A198ED-C658-42EA-BEAB-8875AC5554B6";
paths = (
{
closed = 1;
nodes = (
"638 0 LINE",
"658 44 LINE",
"392 714 LINE",
"306 714 LINE",
"40 45 LINE",
"60 0 LINE"
);
},
{
closed = 1;
nodes = (
"132 80 LINE",
"153 115 OFFCURVE",
"173 158 OFFCURVE",
"191 204 CURVE SMOOTH",
"283 437 LINE SMOOTH",
"312 510 OFFCURVE",
"332 559 OFFCURVE",
"342 610 CURVE",
"348 610 LINE",
"357 559 OFFCURVE",
"376 509 OFFCURVE",
"406 432 CURVE SMOOTH",
"496 204 LINE SMOOTH",
"514 158 OFFCURVE",
"534 116 OFFCURVE",
"555 80 CURVE",
"553 75 LINE",
"516 78 OFFCURVE",
"477 79 OFFCURVE",
"439 79 CURVE SMOOTH",
"248 79 LINE SMOOTH",
"210 79 OFFCURVE",
"170 78 OFFCURVE",
"134 75 CURVE"
);
}
);
width = 698;
}
);
note = uni2D60;
unicode = 2D60;
},
{
color = 1;
glyphname = "yaw-tifi";
production = uni2D61;
layers = (
{
layerId = "87A198ED-C658-42EA-BEAB-8875AC5554B6";
paths = (
{
closed = 1;
nodes = (
"541 318 LINE",
"541 397 LINE",
"50 397 LINE",
"50 318 LINE"
);
},
{
closed = 1;
nodes = (
"541 100 LINE",
"541 179 LINE",
"50 179 LINE",
"50 100 LINE"
);
}
);
width = 591;
}
);
note = uni2D61;
unicode = 2D61;
category = "";
subCategory = "";
},
{
color = 0;
glyphname = "yay-tifi";
layers = (
{
anchors = (
{
name = top;
position = "{255, 714}";
}
);
layerId = "87A198ED-C658-42EA-BEAB-8875AC5554B6";
paths = (
{
closed = 1;
nodes = (
"425 298 LINE",
"425 351 LINE",
"266 487 LINE SMOOTH",
"236 513 OFFCURVE",
"206 541 OFFCURVE",
"165 564 CURVE",
"165 571 LINE",
"212 578 OFFCURVE",
"243 587 OFFCURVE",
"290 600 CURVE SMOOTH",
"466 649 LINE",
"446 725 LINE",
"59 612 LINE",
"59 550 LINE",
"256 381 LINE SMOOTH",
"278 362 OFFCURVE",
"302 342 OFFCURVE",
"334 322 CURVE",
"334 316 LINE",
"305 296 OFFCURVE",
"287 277 OFFCURVE",
"262 252 CURVE SMOOTH",
"55 45 LINE",
"119 -10 LINE"
);
}
);
width = 516;
}
);
note = uni2D62;
unicode = 2D62;
},
{
color = 0;
glyphname = "yaz-tifi";
layers = (
{
anchors = (
{
name = bottom;
position = "{380, 0}";
}
);
layerId = "87A198ED-C658-42EA-BEAB-8875AC5554B6";
paths = (
{
closed = 1;
nodes = (
"561 421 OFFCURVE",
"685 536 OFFCURVE",
"711 714 CURVE",
"621 714 LINE",
"599 582 OFFCURVE",
"523 500 OFFCURVE",
"380 500 CURVE SMOOTH",
"237 500 OFFCURVE",
"162 582 OFFCURVE",
"140 714 CURVE",
"50 714 LINE",
"76 536 OFFCURVE",
"199 421 OFFCURVE",
"380 421 CURVE SMOOTH"
);
},
{
closed = 1;
nodes = (
"140 0 LINE",
"162 132 OFFCURVE",
"237 214 OFFCURVE",
"380 214 CURVE SMOOTH",
"523 214 OFFCURVE",
"599 132 OFFCURVE",
"621 0 CURVE",
"711 0 LINE",
"685 178 OFFCURVE",
"561 293 OFFCURVE",
"380 293 CURVE SMOOTH",
"199 293 OFFCURVE",
"76 178 OFFCURVE",
"50 0 CURVE"
);
},
{
closed = 1;
nodes = (
"425 0 LINE",
"425 714 LINE",
"336 714 LINE",
"336 0 LINE"
);
}
);
width = 761;
}
);
leftKerningGroup = yaz;
note = uni2D63;
rightKerningGroup = yaz;
unicode = 2D63;
},
{
color = 0;
glyphname = "yazTawellemmet-tifi";
layers = (
{
layerId = "87A198ED-C658-42EA-BEAB-8875AC5554B6";
paths = (
{
closed = 1;
nodes = (
"186 0 LINE",
"186 469 LINE SMOOTH",
"186 507 OFFCURVE",
"186 549 OFFCURVE",
"175 597 CURVE",
"180 599 LINE",
"197 571 OFFCURVE",
"222 549 OFFCURVE",
"245 529 CURVE SMOOTH",
"369 424 LINE",
"422 489 LINE",
"146 724 LINE",
"97 706 LINE",
"97 0 LINE"
);
}
);
width = 447;
}
);
note = uni2D64;
rightKerningGroup = yazT;
unicode = 2D64;
},
{
color = 8;
glyphname = "yazz-tifi";
production = uni2D65;
layers = (
{
layerId = "87A198ED-C658-42EA-BEAB-8875AC5554B6";
paths = (
{
closed = 1;
nodes = (
"186 0 LINE",
"186 469 LINE SMOOTH",
"186 507 OFFCURVE",
"186 549 OFFCURVE",
"175 597 CURVE",
"180 599 LINE",
"197 571 OFFCURVE",
"222 549 OFFCURVE",
"245 529 CURVE SMOOTH",
"369 424 LINE",
"422 489 LINE",
"146 724 LINE",
"97 706 LINE",
"97 0 LINE"
);
}
);
width = 447;
}
);
note = uni2D64;
rightKerningGroup = yazT;
unicode = 2D65;
category = "";
subCategory = "";
},
{
color = 8;
glyphname = "ye-tifi";
production = uni2D66;
layers = (
{
anchors = (
{
name = top;
position = "{250, 714}";
}
);
components = (
{
name = circumflexcomb;
transform = "{1, 0, 0, 1, 442, 0}";
}
);
layerId = "87A198ED-C658-42EA-BEAB-8875AC5554B6";
paths = (
{
closed = 1;
nodes = (
"425 298 LINE",
"425 351 LINE",
"266 487 LINE SMOOTH",
"236 513 OFFCURVE",
"206 541 OFFCURVE",
"165 564 CURVE",
"165 571 LINE",
"212 578 OFFCURVE",
"243 587 OFFCURVE",
"290 600 CURVE SMOOTH",
"466 649 LINE",
"446 725 LINE",
"59 612 LINE",
"59 550 LINE",
"256 381 LINE SMOOTH",
"278 362 OFFCURVE",
"302 342 OFFCURVE",
"334 322 CURVE",
"334 316 LINE",
"305 296 OFFCURVE",
"287 277 OFFCURVE",
"262 252 CURVE SMOOTH",
"55 45 LINE",
"119 -10 LINE"
);
}
);
width = 516;
}
);
note = uni2D62;
unicode = 2D66;
category = "";
subCategory = "";
},
{
color = 8;
glyphname = "yo-tifi";
production = uni2D67;
layers = (
{
anchors = (
{
name = bottom;
position = "{240, 0}";
}
);
components = (
{
name = circumflexcomb;
transform = "{1, 0, 0, 1, 434, -250}";
}
);
layerId = "87A198ED-C658-42EA-BEAB-8875AC5554B6";
paths = (
{
closed = 1;
nodes = (
"391 0 LINE",
"391 444 LINE",
"302 444 LINE",
"302 0 LINE"
);
},
{
closed = 1;
nodes = (
"178 0 LINE",
"178 444 LINE",
"89 444 LINE",
"89 0 LINE"
);
}
);
width = 482;
}
);
note = uni2D4D;
unicode = 2D67;
category = "";
subCategory = "";
},
{
color = 0;
glyphname = "labialization-tifi";
layers = (
{
layerId = "87A198ED-C658-42EA-BEAB-8875AC5554B6";
paths = (
{
closed = 1;
nodes = (
"313 537 LINE",
"313 714 LINE",
"240 714 LINE",
"240 610 LINE",
"119 610 LINE",
"119 714 LINE",
"45 714 LINE",
"45 537 LINE"
);
}
);
width = 358;
}
);
note = uni2D6F;
unicode = 2D6F;
},
{
color = 0;
glyphname = "yahh-tifi.RTL";
layers = (
{
layerId = "87A198ED-C658-42EA-BEAB-8875AC5554B6";
paths = (
{
closed = 1;
nodes = (
"125 0 LINE",
"206 131 LINE SMOOTH",
"240 186 OFFCURVE",
"275 242 OFFCURVE",
"308 307 CURVE",
"314 307 LINE",
"348 242 OFFCURVE",
"382 185 OFFCURVE",
"417 131 CURVE SMOOTH",
"501 0 LINE",
"600 0 LINE",
"600 8 LINE",
"149 714 LINE",
"50 714 LINE",
"50 706 LINE",
"258 376 LINE",
"30 8 LINE",
"30 0 LINE"
);
}
);
width = 620;
}
);
note = uni2D43;
},
{
color = 0;
glyphname = "yaq-tifi.RTL";
layers = (
{
layerId = "87A198ED-C658-42EA-BEAB-8875AC5554B6";
paths = (
{
closed = 1;
nodes = (
"581 0 LINE",
"581 714 LINE",
"63 714 LINE",
"45 670 LINE",
"470 79 LINE",
"50 79 LINE",
"50 0 LINE"
);
},
{
closed = 1;
nodes = (
"477 210 OFFCURVE",
"435 278 OFFCURVE",
"405 320 CURVE SMOOTH",
"267 513 LINE SMOOTH",
"230 565 OFFCURVE",
"198 607 OFFCURVE",
"168 633 CURVE",
"170 639 LINE",
"207 636 OFFCURVE",
"232 635 OFFCURVE",
"282 635 CURVE SMOOTH",
"492 635 LINE",
"492 351 LINE SMOOTH",
"492 287 OFFCURVE",
"498 197 OFFCURVE",
"504 171 CURVE",
"498 169 LINE"
);
}
);
width = 678;
}
);
note = uni2D47;
},
{
color = 0;
glyphname = "separator-tifi";
layers = (
{
layerId = "87A198ED-C658-42EA-BEAB-8875AC5554B6";
paths = (
{
closed = 1;
nodes = (
"394 -94 OFFCURVE",
"615 221 OFFCURVE",
"656 714 CURVE",
"567 714 LINE",
"528 280 OFFCURVE",
"352 -16 OFFCURVE",
"-60 -127 CURVE",
"-47 -195 LINE"
);
}
);
width = 676;
}
);
note = uni2D70;
unicode = 2D70;
},
{
glyphname = .notdef;
layers = (
{
layerId = "87A198ED-C658-42EA-BEAB-8875AC5554B6";
paths = (
{
closed = 1;
nodes = (
"505 0 LINE",
"505 714 LINE",
"94 714 LINE",
"94 0 LINE"
);
},
{
closed = 1;
nodes = (
"145 663 LINE",
"454 663 LINE",
"454 51 LINE",
"145 51 LINE"
);
}
);
width = 600;
}
);
note = .notdef;
},
{
glyphname = dottedCircle;
lastChange = "2019-12-16 19:29:39 +0000";
layers = (
{
layerId = "87A198ED-C658-42EA-BEAB-8875AC5554B6";
paths = (
{
closed = 1;
nodes = (
"470 423 OFFCURVE",
"481 434 OFFCURVE",
"481 449 CURVE SMOOTH",
"481 464 OFFCURVE",
"470 475 OFFCURVE",
"455 475 CURVE SMOOTH",
"440 475 OFFCURVE",
"429 464 OFFCURVE",
"429 449 CURVE SMOOTH",
"429 434 OFFCURVE",
"440 423 OFFCURVE",
"455 423 CURVE SMOOTH"
);
},
{
closed = 1;
nodes = (
"154 107 OFFCURVE",
"165 118 OFFCURVE",
"165 133 CURVE SMOOTH",
"165 148 OFFCURVE",
"154 159 OFFCURVE",
"139 159 CURVE SMOOTH",
"124 159 OFFCURVE",
"113 148 OFFCURVE",
"113 133 CURVE SMOOTH",
"113 118 OFFCURVE",
"124 107 OFFCURVE",
"139 107 CURVE SMOOTH"
);
},
{
closed = 1;
nodes = (
"105 181 OFFCURVE",
"118 192 OFFCURVE",
"118 207 CURVE SMOOTH",
"118 222 OFFCURVE",
"105 233 OFFCURVE",
"92 233 CURVE SMOOTH",
"79 233 OFFCURVE",
"66 222 OFFCURVE",
"66 207 CURVE SMOOTH",
"66 192 OFFCURVE",
"79 181 OFFCURVE",
"92 181 CURVE SMOOTH"
);
},
{
closed = 1;
nodes = (
"228 60 OFFCURVE",
"239 73 OFFCURVE",
"239 86 CURVE SMOOTH",
"239 99 OFFCURVE",
"228 112 OFFCURVE",
"213 112 CURVE SMOOTH",
"198 112 OFFCURVE",
"187 99 OFFCURVE",
"187 86 CURVE SMOOTH",
"187 73 OFFCURVE",
"198 60 OFFCURVE",
"213 60 CURVE SMOOTH"
);
},
{
closed = 1;
nodes = (
"87 265 OFFCURVE",
"100 276 OFFCURVE",
"100 291 CURVE SMOOTH",
"100 306 OFFCURVE",
"87 317 OFFCURVE",
"74 317 CURVE SMOOTH",
"61 317 OFFCURVE",
"48 306 OFFCURVE",
"48 291 CURVE SMOOTH",
"48 276 OFFCURVE",
"61 265 OFFCURVE",
"74 265 CURVE SMOOTH"
);
},
{
closed = 1;
nodes = (
"312 42 OFFCURVE",
"323 55 OFFCURVE",
"323 68 CURVE SMOOTH",
"323 81 OFFCURVE",
"312 94 OFFCURVE",
"297 94 CURVE SMOOTH",
"282 94 OFFCURVE",
"271 81 OFFCURVE",
"271 68 CURVE SMOOTH",
"271 55 OFFCURVE",
"282 42 OFFCURVE",
"297 42 CURVE SMOOTH"
);
},
{
closed = 1;
nodes = (
"105 349 OFFCURVE",
"118 360 OFFCURVE",
"118 375 CURVE SMOOTH",
"118 390 OFFCURVE",
"105 401 OFFCURVE",
"92 401 CURVE SMOOTH",
"79 401 OFFCURVE",
"66 390 OFFCURVE",
"66 375 CURVE SMOOTH",
"66 360 OFFCURVE",
"79 349 OFFCURVE",
"92 349 CURVE SMOOTH"
);
},
{
closed = 1;
nodes = (
"396 60 OFFCURVE",
"407 73 OFFCURVE",
"407 86 CURVE SMOOTH",
"407 99 OFFCURVE",
"396 112 OFFCURVE",
"381 112 CURVE SMOOTH",
"366 112 OFFCURVE",
"355 99 OFFCURVE",
"355 86 CURVE SMOOTH",
"355 73 OFFCURVE",
"366 60 OFFCURVE",
"381 60 CURVE SMOOTH"
);
},
{
closed = 1;
nodes = (
"154 423 OFFCURVE",
"165 434 OFFCURVE",
"165 449 CURVE SMOOTH",
"165 464 OFFCURVE",
"154 475 OFFCURVE",
"139 475 CURVE SMOOTH",
"124 475 OFFCURVE",
"113 464 OFFCURVE",
"113 449 CURVE SMOOTH",
"113 434 OFFCURVE",
"124 423 OFFCURVE",
"139 423 CURVE SMOOTH"
);
},
{
closed = 1;
nodes = (
"470 107 OFFCURVE",
"481 118 OFFCURVE",
"481 133 CURVE SMOOTH",
"481 148 OFFCURVE",
"470 159 OFFCURVE",
"455 159 CURVE SMOOTH",
"440 159 OFFCURVE",
"429 148 OFFCURVE",
"429 133 CURVE SMOOTH",
"429 118 OFFCURVE",
"440 107 OFFCURVE",
"455 107 CURVE SMOOTH"
);
},
{
closed = 1;
nodes = (
"228 470 OFFCURVE",
"239 483 OFFCURVE",
"239 496 CURVE SMOOTH",
"239 509 OFFCURVE",
"228 522 OFFCURVE",
"213 522 CURVE SMOOTH",
"198 522 OFFCURVE",
"187 509 OFFCURVE",
"187 496 CURVE SMOOTH",
"187 483 OFFCURVE",
"198 470 OFFCURVE",
"213 470 CURVE SMOOTH"
);
},
{
closed = 1;
nodes = (
"515 181 OFFCURVE",
"528 192 OFFCURVE",
"528 207 CURVE SMOOTH",
"528 222 OFFCURVE",
"515 233 OFFCURVE",
"502 233 CURVE SMOOTH",
"489 233 OFFCURVE",
"476 222 OFFCURVE",
"476 207 CURVE SMOOTH",
"476 192 OFFCURVE",
"489 181 OFFCURVE",
"502 181 CURVE SMOOTH"
);
},
{
closed = 1;
nodes = (
"312 488 OFFCURVE",
"323 501 OFFCURVE",
"323 514 CURVE SMOOTH",
"323 527 OFFCURVE",
"312 540 OFFCURVE",
"297 540 CURVE SMOOTH",
"282 540 OFFCURVE",
"271 527 OFFCURVE",
"271 514 CURVE SMOOTH",
"271 501 OFFCURVE",
"282 488 OFFCURVE",
"297 488 CURVE SMOOTH"
);
},
{
closed = 1;
nodes = (
"533 265 OFFCURVE",
"546 276 OFFCURVE",
"546 291 CURVE SMOOTH",
"546 306 OFFCURVE",
"533 317 OFFCURVE",
"520 317 CURVE SMOOTH",
"507 317 OFFCURVE",
"494 306 OFFCURVE",
"494 291 CURVE SMOOTH",
"494 276 OFFCURVE",
"507 265 OFFCURVE",
"520 265 CURVE SMOOTH"
);
},
{
closed = 1;
nodes = (
"396 470 OFFCURVE",
"407 483 OFFCURVE",
"407 496 CURVE SMOOTH",
"407 509 OFFCURVE",
"396 522 OFFCURVE",
"381 522 CURVE SMOOTH",
"366 522 OFFCURVE",
"355 509 OFFCURVE",
"355 496 CURVE SMOOTH",
"355 483 OFFCURVE",
"366 470 OFFCURVE",
"381 470 CURVE SMOOTH"
);
},
{
closed = 1;
nodes = (
"515 349 OFFCURVE",
"528 360 OFFCURVE",
"528 375 CURVE SMOOTH",
"528 390 OFFCURVE",
"515 401 OFFCURVE",
"502 401 CURVE SMOOTH",
"489 401 OFFCURVE",
"476 390 OFFCURVE",
"476 375 CURVE SMOOTH",
"476 360 OFFCURVE",
"489 349 OFFCURVE",
"502 349 CURVE SMOOTH"
);
}
);
width = 594;
}
);
note = uni25CC;
unicode = 25CC;
},
{
color = 7;
export = 0;
glyphname = dieresiscomb;
layers = (
{
anchors = (
{
name = _top;
position = "{-171, 714}";
}
);
layerId = "87A198ED-C658-42EA-BEAB-8875AC5554B6";
paths = (
{
closed = 1;
nodes = (
"-31 811 OFFCURVE",
"-5 837 OFFCURVE",
"-5 881 CURVE SMOOTH",
"-5 924 OFFCURVE",
"-28 951 OFFCURVE",
"-71 951 CURVE SMOOTH",
"-112 951 OFFCURVE",
"-134 925 OFFCURVE",
"-134 881 CURVE SMOOTH",
"-134 836 OFFCURVE",
"-110 811 OFFCURVE",
"-71 811 CURVE SMOOTH"
);
},
{
closed = 1;
nodes = (
"-231 811 OFFCURVE",
"-205 837 OFFCURVE",
"-205 881 CURVE SMOOTH",
"-205 924 OFFCURVE",
"-228 951 OFFCURVE",
"-271 951 CURVE SMOOTH",
"-312 951 OFFCURVE",
"-334 925 OFFCURVE",
"-334 881 CURVE SMOOTH",
"-334 836 OFFCURVE",
"-310 811 OFFCURVE",
"-271 811 CURVE SMOOTH"
);
}
);
width = 0;
}
);
note = uni0307;
unicode = 0308;
},
{
color = 0;
glyphname = dotaccentcomb;
layers = (
{
anchors = (
{
name = _top;
position = "{-76, 714}";
}
);
layerId = "87A198ED-C658-42EA-BEAB-8875AC5554B6";
paths = (
{
closed = 1;
nodes = (
"-36 811 OFFCURVE",
"-10 837 OFFCURVE",
"-10 881 CURVE SMOOTH",
"-10 924 OFFCURVE",
"-33 951 OFFCURVE",
"-76 951 CURVE SMOOTH",
"-117 951 OFFCURVE",
"-139 925 OFFCURVE",
"-139 881 CURVE SMOOTH",
"-139 836 OFFCURVE",
"-115 811 OFFCURVE",
"-76 811 CURVE SMOOTH"
);
}
);
width = 0;
}
);
note = uni0307;
unicode = 0307;
},
{
color = 6;
glyphname = acutecomb;
layers = (
{
anchors = (
{
name = _top;
position = "{-171, 714}";
}
);
layerId = "87A198ED-C658-42EA-BEAB-8875AC5554B6";
paths = (
{
closed = 1;
nodes = (
"-157 806 LINE",
"-24 956 LINE",
"-24 966 LINE",
"-130 966 LINE",
"-226 818 LINE",
"-226 806 LINE"
);
}
);
width = 0;
}
);
note = uni0301;
unicode = 0301;
},
{
color = 0;
glyphname = circumflexcomb;
layers = (
{
anchors = (
{
name = _top;
position = "{-195, 714}";
}
);
layerId = "87A198ED-C658-42EA-BEAB-8875AC5554B6";
paths = (
{
closed = 1;
nodes = (
"-292 806 LINE",
"-195 896 LINE",
"-96 806 LINE",
"-22 806 LINE",
"-22 814 LINE",
"-149 966 LINE",
"-239 966 LINE",
"-364 814 LINE",
"-364 806 LINE"
);
}
);
width = 0;
}
);
note = uni0302;
unicode = 0302;
},
{
color = 0;
glyphname = brevecomb;
layers = (
{
anchors = (
{
name = _top;
position = "{-183, 714}";
}
);
layerId = "87A198ED-C658-42EA-BEAB-8875AC5554B6";
paths = (
{
closed = 1;
nodes = (
"-85 805 OFFCURVE",
"-23 856 OFFCURVE",
"-23 955 CURVE",
"-92 955 LINE",
"-92 910 OFFCURVE",
"-121 875 OFFCURVE",
"-183 875 CURVE SMOOTH",
"-245 875 OFFCURVE",
"-274 910 OFFCURVE",
"-274 955 CURVE",
"-343 955 LINE",
"-343 856 OFFCURVE",
"-281 805 OFFCURVE",
"-183 805 CURVE SMOOTH"
);
}
);
width = 0;
}
);
note = uni0306;
unicode = 0306;
},
{
color = 0;
glyphname = macroncomb;
layers = (
{
anchors = (
{
name = _top;
position = "{-173, 714}";
}
);
layerId = "87A198ED-C658-42EA-BEAB-8875AC5554B6";
paths = (
{
closed = 1;
nodes = (
"-4 806 LINE",
"-4 877 LINE",
"-341 877 LINE",
"-341 806 LINE"
);
}
);
width = 0;
}
);
note = uni0304;
unicode = 0304;
},
{
color = 0;
glyphname = hookabovecomb;
lastChange = "2019-12-16 19:29:39 +0000";
layers = (
{
layerId = "87A198ED-C658-42EA-BEAB-8875AC5554B6";
paths = (
{
closed = 1;
nodes = (
"-190 585 LINE",
"-187 640 LINE",
"-151 652 OFFCURVE",
"-112 674 OFFCURVE",
"-112 732 CURVE SMOOTH",
"-112 785 OFFCURVE",
"-157 821 OFFCURVE",
"-236 821 CURVE SMOOTH",
"-263 821 OFFCURVE",
"-281 818 OFFCURVE",
"-293 814 CURVE",
"-286 758 LINE",
"-277 760 OFFCURVE",
"-260 763 OFFCURVE",
"-239 763 CURVE SMOOTH",
"-204 763 OFFCURVE",
"-180 752 OFFCURVE",
"-180 725 CURVE SMOOTH",
"-180 692 OFFCURVE",
"-212 679 OFFCURVE",
"-259 675 CURVE",
"-257 585 LINE"
);
}
);
width = 0;
}
);
note = hookabovecomb;
unicode = 0309;
},
{
color = 0;
glyphname = dotbelowcomb;
layers = (
{
anchors = (
{
name = _bottom;
position = "{-149, 0}";
}
);
layerId = "87A198ED-C658-42EA-BEAB-8875AC5554B6";
paths = (
{
closed = 1;
nodes = (
"-111 -250 OFFCURVE",
"-85 -224 OFFCURVE",
"-85 -180 CURVE SMOOTH",
"-85 -137 OFFCURVE",
"-108 -110 OFFCURVE",
"-151 -110 CURVE SMOOTH",
"-192 -110 OFFCURVE",
"-214 -136 OFFCURVE",
"-214 -180 CURVE SMOOTH",
"-214 -225 OFFCURVE",
"-190 -250 OFFCURVE",
"-151 -250 CURVE SMOOTH"
);
}
);
width = 0;
}
);
note = uni0323;
unicode = 0323;
},
{
color = 0;
glyphname = macronbelowcomb;
layers = (
{
anchors = (
{
name = _bottom;
position = "{-242, 0}";
}
);
layerId = "87A198ED-C658-42EA-BEAB-8875AC5554B6";
paths = (
{
closed = 1;
nodes = (
"-74 -206 LINE",
"-74 -135 LINE",
"-411 -135 LINE",
"-411 -206 LINE"
);
}
);
width = 0;
}
);
note = uni0331;
unicode = 0331;
},
{
color = 6;
glyphname = caron;
layers = (
{
layerId = "87A198ED-C658-42EA-BEAB-8875AC5554B6";
paths = (
{
closed = 1;
nodes = (
"97 484 LINE",
"114 694 LINE",
"114 714 LINE",
"20 714 LINE",
"20 694 LINE",
"28 484 LINE"
);
}
);
width = 134;
}
);
note = uni0301;
unicode = 02C7;
},
{
color = 0;
glyphname = "consonantjoiner-tifi";
lastChange = "2019-12-16 19:29:39 +0000";
layers = (
{
layerId = "87A198ED-C658-42EA-BEAB-8875AC5554B6";
paths = (
{
closed = 1;
nodes = (
"432 -174 OFFCURVE",
"456 -158 OFFCURVE",
"456 -119 CURVE SMOOTH",
"456 -82 OFFCURVE",
"439 -64 OFFCURVE",
"405 -64 CURVE SMOOTH",
"377 -64 OFFCURVE",
"355 -80 OFFCURVE",
"355 -119 CURVE SMOOTH",
"355 -158 OFFCURVE",
"377 -174 OFFCURVE",
"405 -174 CURVE SMOOTH"
);
},
{
closed = 1;
nodes = (
"-374 -174 OFFCURVE",
"-354 -154 OFFCURVE",
"-354 -119 CURVE SMOOTH",
"-354 -82 OFFCURVE",
"-371 -64 OFFCURVE",
"-405 -64 CURVE SMOOTH",
"-434 -64 OFFCURVE",
"-455 -80 OFFCURVE",
"-455 -119 CURVE SMOOTH",
"-455 -158 OFFCURVE",
"-434 -174 OFFCURVE",
"-405 -174 CURVE SMOOTH"
);
},
{
closed = 1;
nodes = (
"-216 -174 OFFCURVE",
"-192 -158 OFFCURVE",
"-192 -119 CURVE SMOOTH",
"-192 -82 OFFCURVE",
"-209 -64 OFFCURVE",
"-243 -64 CURVE SMOOTH",
"-271 -64 OFFCURVE",
"-293 -80 OFFCURVE",
"-293 -119 CURVE SMOOTH",
"-293 -158 OFFCURVE",
"-271 -174 OFFCURVE",
"-243 -174 CURVE SMOOTH"
);
},
{
closed = 1;
nodes = (
"-53 -174 OFFCURVE",
"-30 -158 OFFCURVE",
"-30 -119 CURVE SMOOTH",
"-30 -80 OFFCURVE",
"-53 -64 OFFCURVE",
"-81 -64 CURVE SMOOTH",
"-109 -64 OFFCURVE",
"-131 -80 OFFCURVE",
"-131 -119 CURVE SMOOTH",
"-131 -158 OFFCURVE",
"-109 -174 OFFCURVE",
"-81 -174 CURVE SMOOTH"
);
},
{
closed = 1;
nodes = (
"112 -174 OFFCURVE",
"132 -154 OFFCURVE",
"132 -119 CURVE SMOOTH",
"132 -82 OFFCURVE",
"115 -64 OFFCURVE",
"81 -64 CURVE SMOOTH",
"53 -64 OFFCURVE",
"31 -80 OFFCURVE",
"31 -119 CURVE SMOOTH",
"31 -158 OFFCURVE",
"53 -174 OFFCURVE",
"81 -174 CURVE SMOOTH"
);
},
{
closed = 1;
nodes = (
"271 -174 OFFCURVE",
"294 -158 OFFCURVE",
"294 -119 CURVE SMOOTH",
"294 -80 OFFCURVE",
"271 -64 OFFCURVE",
"243 -64 CURVE SMOOTH",
"214 -64 OFFCURVE",
"193 -80 OFFCURVE",
"193 -119 CURVE SMOOTH",
"193 -158 OFFCURVE",
"214 -174 OFFCURVE",
"243 -174 CURVE SMOOTH"
);
}
);
width = 0;
}
);
note = uni2D7F;
unicode = 2D7F;
},
{
color = 0;
glyphname = "yazTawellemmet-tifi.RTL";
layers = (
{
layerId = "87A198ED-C658-42EA-BEAB-8875AC5554B6";
paths = (
{
closed = 1;
nodes = (
"350 706 LINE",
"301 724 LINE",
"25 489 LINE",
"78 424 LINE",
"202 529 LINE SMOOTH",
"225 549 OFFCURVE",
"250 571 OFFCURVE",
"267 599 CURVE",
"272 597 LINE",
"261 549 OFFCURVE",
"261 507 OFFCURVE",
"261 469 CURVE SMOOTH",
"261 0 LINE",
"350 0 LINE"
);
}
);
width = 447;
}
);
leftKerningGroup = yazT;
note = uni2D64;
},
{
color = 8;
glyphname = "yazzSIL-tifi.RTL";
layers = (
{
layerId = "87A198ED-C658-42EA-BEAB-8875AC5554B6";
paths = (
{
closed = 1;
nodes = (
"350 706 LINE",
"301 724 LINE",
"25 489 LINE",
"78 424 LINE",
"202 529 LINE SMOOTH",
"225 549 OFFCURVE",
"250 571 OFFCURVE",
"267 599 CURVE",
"272 597 LINE",
"261 549 OFFCURVE",
"261 507 OFFCURVE",
"261 469 CURVE SMOOTH",
"261 0 LINE",
"350 0 LINE"
);
}
);
width = 447;
}
);
leftKerningGroup = yazT;
note = uni2D64;
},
{
color = 0;
export = 0;
glyphname = "yazzSIL-tifi";
layers = (
{
anchors = (
{
name = bottom;
position = "{381, 0}";
}
);
layerId = "87A198ED-C658-42EA-BEAB-8875AC5554B6";
paths = (
{
closed = 1;
nodes = (
"556 450 OFFCURVE",
"678 557 OFFCURVE",
"710 714 CURVE",
"620 714 LINE",
"593 601 OFFCURVE",
"519 527 OFFCURVE",
"380 527 CURVE SMOOTH",
"241 527 OFFCURVE",
"168 602 OFFCURVE",
"140 714 CURVE",
"50 714 LINE",
"82 558 OFFCURVE",
"203 450 OFFCURVE",
"380 450 CURVE SMOOTH"
);
},
{
closed = 1;
nodes = (
"140 0 LINE",
"168 112 OFFCURVE",
"241 187 OFFCURVE",
"380 187 CURVE SMOOTH",
"519 187 OFFCURVE",
"593 113 OFFCURVE",
"620 0 CURVE",
"710 0 LINE",
"678 157 OFFCURVE",
"556 264 OFFCURVE",
"380 264 CURVE SMOOTH",
"203 264 OFFCURVE",
"82 156 OFFCURVE",
"50 0 CURVE"
);
},
{
closed = 1;
nodes = (
"425 0 LINE",
"425 714 LINE",
"336 714 LINE",
"336 0 LINE"
);
},
{
closed = 1;
nodes = (
"686 322 LINE",
"686 393 LINE",
"75 393 LINE",
"75 322 LINE"
);
}
);
width = 760;
}
);
note = uni2D65;
category = Letter;
subCategory = Other;
},
{
color = 7;
export = 0;
glyphname = "yazzHawad-tifi";
layers = (
{
anchors = (
{
name = bottom;
position = "{380, 0}";
}
);
layerId = "87A198ED-C658-42EA-BEAB-8875AC5554B6";
paths = (
{
closed = 1;
nodes = (
"561 421 OFFCURVE",
"685 536 OFFCURVE",
"711 714 CURVE",
"621 714 LINE",
"599 582 OFFCURVE",
"523 500 OFFCURVE",
"380 500 CURVE SMOOTH",
"237 500 OFFCURVE",
"162 582 OFFCURVE",
"140 714 CURVE",
"50 714 LINE",
"76 536 OFFCURVE",
"199 421 OFFCURVE",
"380 421 CURVE SMOOTH"
);
},
{
closed = 1;
nodes = (
"140 0 LINE",
"162 132 OFFCURVE",
"237 214 OFFCURVE",
"380 214 CURVE SMOOTH",
"523 214 OFFCURVE",
"599 132 OFFCURVE",
"621 0 CURVE",
"711 0 LINE",
"685 178 OFFCURVE",
"561 293 OFFCURVE",
"380 293 CURVE SMOOTH",
"199 293 OFFCURVE",
"76 178 OFFCURVE",
"50 0 CURVE"
);
},
{
closed = 1;
nodes = (
"425 0 LINE",
"425 714 LINE",
"336 714 LINE",
"336 0 LINE"
);
}
);
width = 761;
}
);
leftKerningGroup = yaz;
note = uni2D63;
rightKerningGroup = yaz;
},
{
color = 0;
export = 0;
glyphname = "yattHawad-tifi";
layers = (
{
layerId = "87A198ED-C658-42EA-BEAB-8875AC5554B6";
paths = (
{
closed = 1;
nodes = (
"557 0 LINE",
"557 79 LINE",
"186 79 LINE",
"186 318 LINE",
"311 318 LINE",
"311 193 LINE",
"392 193 LINE",
"392 318 LINE",
"506 318 LINE",
"506 397 LINE",
"392 397 LINE",
"392 522 LINE",
"311 522 LINE",
"311 397 LINE",
"186 397 LINE",
"186 635 LINE",
"547 635 LINE",
"547 714 LINE",
"97 714 LINE",
"97 0 LINE"
);
}
);
width = 617;
}
);
note = uni2D5F;
category = Letter;
subCategory = Other;
},
{
color = 6;
export = 0;
glyphname = "yassAPT-tifi";
layers = (
{
anchors = (
{
name = bottom;
position = "{389, 0}";
}
);
components = (
{
name = "yar-tifi";
},
{
name = dotbelowcomb;
transform = "{1, 0, 0, 1, 540, 0}";
}
);
layerId = "87A198ED-C658-42EA-BEAB-8875AC5554B6";
paths = (
{
closed = 1;
nodes = (
"434 277 OFFCURVE",
"470 314 OFFCURVE",
"470 357 CURVE SMOOTH",
"470 401 OFFCURVE",
"434 438 OFFCURVE",
"389 438 CURVE SMOOTH",
"345 438 OFFCURVE",
"309 401 OFFCURVE",
"309 357 CURVE SMOOTH",
"309 314 OFFCURVE",
"345 277 OFFCURVE",
"389 277 CURVE SMOOTH"
);
}
);
width = 779;
}
);
leftKerningGroup = yar;
note = uni2D59;
rightKerningGroup = yar;
},
{
color = 1;
export = 0;
glyphname = "yeRhissaIxa-tifi";
layers = (
{
layerId = "87A198ED-C658-42EA-BEAB-8875AC5554B6";
paths = (
{
closed = 1;
nodes = (
"446 -10 OFFCURVE",
"547 64 OFFCURVE",
"547 203 CURVE SMOOTH",
"547 344 OFFCURVE",
"464 406 OFFCURVE",
"342 406 CURVE SMOOTH",
"270 406 OFFCURVE",
"233 386 OFFCURVE",
"204 359 CURVE",
"201 362 LINE",
"224 424 OFFCURVE",
"348 561 OFFCURVE",
"543 654 CURVE",
"533 714 LINE",
"74 714 LINE",
"74 635 LINE",
"263 635 LINE SMOOTH",
"297 635 OFFCURVE",
"349 638 OFFCURVE",
"366 641 CURVE",
"367 635 LINE",
"327 613 OFFCURVE",
"276 577 OFFCURVE",
"230 533 CURVE SMOOTH",
"153 460 OFFCURVE",
"60 335 OFFCURVE",
"60 202 CURVE SMOOTH",
"60 67 OFFCURVE",
"144 -10 OFFCURVE",
"304 -10 CURVE SMOOTH"
);
},
{
closed = 1;
nodes = (
"204 72 OFFCURVE",
"155 113 OFFCURVE",
"155 201 CURVE SMOOTH",
"155 275 OFFCURVE",
"214 324 OFFCURVE",
"309 324 CURVE SMOOTH",
"404 324 OFFCURVE",
"452 293 OFFCURVE",
"452 204 CURVE SMOOTH",
"452 120 OFFCURVE",
"393 72 OFFCURVE",
"307 72 CURVE SMOOTH"
);
}
);
width = 622;
}
);
leftKerningGroup = yap;
note = uni2D52;
rightKerningGroup = yap;
},
{
color = 4;
export = 0;
glyphname = "yafAdrar-tifi";
layers = (
{
anchors = (
{
name = bottom;
position = "{255, 0}";
}
);
layerId = "87A198ED-C658-42EA-BEAB-8875AC5554B6";
paths = (
{
closed = 1;
nodes = (
"461 0 LINE",
"461 79 LINE",
"300 79 LINE",
"300 635 LINE",
"461 635 LINE",
"461 714 LINE",
"50 714 LINE",
"50 635 LINE",
"211 635 LINE",
"211 79 LINE",
"50 79 LINE",
"50 0 LINE"
);
}
);
width = 511;
}
);
leftKerningGroup = yazh;
note = uni2D4A;
rightKerningGroup = yazh;
},
{
color = 6;
export = 0;
glyphname = "yazzAPT-tifi";
layers = (
{
anchors = (
{
name = bottom;
position = "{380, 0}";
}
);
components = (
{
name = dotbelowcomb;
transform = "{1, 0, 0, 1, 530, 0}";
}
);
layerId = "87A198ED-C658-42EA-BEAB-8875AC5554B6";
paths = (
{
closed = 1;
nodes = (
"561 421 OFFCURVE",
"685 536 OFFCURVE",
"711 714 CURVE",
"621 714 LINE",
"599 582 OFFCURVE",
"523 500 OFFCURVE",
"380 500 CURVE SMOOTH",
"237 500 OFFCURVE",
"162 582 OFFCURVE",
"140 714 CURVE",
"50 714 LINE",
"76 536 OFFCURVE",
"199 421 OFFCURVE",
"380 421 CURVE SMOOTH"
);
},
{
closed = 1;
nodes = (
"140 0 LINE",
"162 132 OFFCURVE",
"237 214 OFFCURVE",
"380 214 CURVE SMOOTH",
"523 214 OFFCURVE",
"599 132 OFFCURVE",
"621 0 CURVE",
"711 0 LINE",
"685 178 OFFCURVE",
"561 293 OFFCURVE",
"380 293 CURVE SMOOTH",
"199 293 OFFCURVE",
"76 178 OFFCURVE",
"50 0 CURVE"
);
},
{
closed = 1;
nodes = (
"425 0 LINE",
"425 714 LINE",
"336 714 LINE",
"336 0 LINE"
);
}
);
width = 761;
}
);
note = uni2D63;
},
{
color = 0;
export = 0;
glyphname = "yattAPT-tifi";
layers = (
{
anchors = (
{
name = bottom;
position = "{275, 0}";
},
{
name = top;
position = "{275, 714}";
}
);
components = (
{
name = dotbelowcomb;
transform = "{1, 0, 0, 1, 424, 0}";
}
);
layerId = "87A198ED-C658-42EA-BEAB-8875AC5554B6";
paths = (
{
closed = 1;
nodes = (
"319 0 LINE",
"319 338 LINE",
"524 338 LINE",
"524 417 LINE",
"319 417 LINE",
"319 714 LINE",
"230 714 LINE",
"230 417 LINE",
"25 417 LINE",
"25 338 LINE",
"230 338 LINE",
"230 0 LINE"
);
}
);
width = 549;
}
);
note = uni2D5C;
},
{
color = 0;
export = 0;
glyphname = "yadAPT-tifi";
layers = (
{
anchors = (
{
name = bottom;
position = "{345, 0}";
}
);
layerId = "87A198ED-C658-42EA-BEAB-8875AC5554B6";
paths = (
{
closed = 1;
nodes = (
"125 0 LINE",
"296 443 LINE SMOOTH",
"314 489 OFFCURVE",
"331 534 OFFCURVE",
"342 587 CURVE",
"347 587 LINE",
"355 534 OFFCURVE",
"371 489 OFFCURVE",
"388 443 CURVE SMOOTH",
"554 0 LINE",
"649 0 LINE",
"649 8 LINE",
"387 714 LINE",
"310 714 LINE",
"40 8 LINE",
"40 0 LINE"
);
}
);
width = 689;
}
);
note = uni2D37;
category = Letter;
subCategory = Other;
},
{
color = 6;
export = 0;
glyphname = "yaddAPT-tifi";
layers = (
{
anchors = (
{
name = bottom;
position = "{321, 0}";
}
);
components = (
{
name = dotbelowcomb;
transform = "{1, 0, 0, 1, 470, 0}";
}
);
layerId = "87A198ED-C658-42EA-BEAB-8875AC5554B6";
paths = (
{
closed = 1;
nodes = (
"537 0 LINE",
"537 79 LINE",
"186 79 LINE",
"186 328 LINE",
"487 328 LINE",
"487 407 LINE",
"186 407 LINE",
"186 635 LINE",
"527 635 LINE",
"527 714 LINE",
"97 714 LINE",
"97 0 LINE"
);
}
);
width = 597;
}
);
note = uni2D39;
},
{
color = 7;
export = 0;
glyphname = "yayHawad-tifi";
layers = (
{
anchors = (
{
name = top;
position = "{247, 714}";
}
);
layerId = "87A198ED-C658-42EA-BEAB-8875AC5554B6";
paths = (
{
closed = 1;
nodes = (
"468 62 LINE",
"274 128 LINE SMOOTH",
"239 140 OFFCURVE",
"209 151 OFFCURVE",
"164 159 CURVE",
"164 165 LINE",
"202 181 OFFCURVE",
"239 203 OFFCURVE",
"276 227 CURVE SMOOTH",
"442 332 LINE",
"442 383 LINE",
"276 488 LINE SMOOTH",
"239 512 OFFCURVE",
"202 537 OFFCURVE",
"164 552 CURVE",
"164 558 LINE",
"203 566 OFFCURVE",
"241 575 OFFCURVE",
"276 587 CURVE SMOOTH",
"468 652 LINE",
"442 725 LINE",
"55 594 LINE",
"55 530 LINE",
"246 409 LINE SMOOTH",
"276 390 OFFCURVE",
"299 377 OFFCURVE",
"336 361 CURVE",
"336 355 LINE",
"297 339 OFFCURVE",
"274 323 OFFCURVE",
"246 306 CURVE SMOOTH",
"55 185 LINE",
"55 121 LINE",
"442 -10 LINE"
);
}
);
width = 528;
}
);
leftKerningGroup = yiHawad;
note = uni2D49;
rightKerningGroup = yiHawad;
},
{
color = 7;
export = 0;
glyphname = "yaqHawad-tifi";
layers = (
{
layerId = "87A198ED-C658-42EA-BEAB-8875AC5554B6";
paths = (
{
closed = 1;
nodes = (
"194 538 OFFCURVE",
"221 567 OFFCURVE",
"221 618 CURVE SMOOTH",
"221 670 OFFCURVE",
"192 697 OFFCURVE",
"147 697 CURVE SMOOTH",
"102 697 OFFCURVE",
"75 669 OFFCURVE",
"75 618 CURVE SMOOTH",
"75 567 OFFCURVE",
"102 538 OFFCURVE",
"147 538 CURVE SMOOTH"
);
},
{
closed = 1;
nodes = (
"194 20 OFFCURVE",
"221 49 OFFCURVE",
"221 100 CURVE SMOOTH",
"221 151 OFFCURVE",
"194 179 OFFCURVE",
"147 179 CURVE SMOOTH",
"102 179 OFFCURVE",
"75 151 OFFCURVE",
"75 100 CURVE SMOOTH",
"75 49 OFFCURVE",
"102 20 OFFCURVE",
"147 20 CURVE SMOOTH"
);
},
{
closed = 1;
nodes = (
"192 279 OFFCURVE",
"221 308 OFFCURVE",
"221 359 CURVE SMOOTH",
"221 410 OFFCURVE",
"194 438 OFFCURVE",
"147 438 CURVE SMOOTH",
"99 438 OFFCURVE",
"75 412 OFFCURVE",
"75 359 CURVE SMOOTH",
"75 308 OFFCURVE",
"102 279 OFFCURVE",
"147 279 CURVE SMOOTH"
);
}
);
width = 296;
}
);
note = uni2D57;
},
{
color = 10;
export = 0;
glyphname = "yayRhissaIxa-tifi";
layers = (
{
layerId = "87A198ED-C658-42EA-BEAB-8875AC5554B6";
paths = (
{
closed = 1;
nodes = (
"442 -10 OFFCURVE",
"538 61 OFFCURVE",
"559 188 CURVE",
"477 207 LINE",
"462 119 OFFCURVE",
"395 72 OFFCURVE",
"311 72 CURVE SMOOTH",
"234 72 OFFCURVE",
"165 100 OFFCURVE",
"165 181 CURVE SMOOTH",
"165 248 OFFCURVE",
"211 275 OFFCURVE",
"294 309 CURVE SMOOTH",
"367 339 LINE SMOOTH",
"469 381 OFFCURVE",
"534 433 OFFCURVE",
"534 537 CURVE SMOOTH",
"534 657 OFFCURVE",
"442 725 OFFCURVE",
"317 725 CURVE SMOOTH",
"193 725 OFFCURVE",
"102 661 OFFCURVE",
"82 539 CURVE",
"167 522 LINE",
"179 597 OFFCURVE",
"236 643 OFFCURVE",
"312 643 CURVE SMOOTH",
"395 643 OFFCURVE",
"439 602 OFFCURVE",
"439 537 CURVE SMOOTH",
"439 460 OFFCURVE",
"371 442 OFFCURVE",
"282 404 CURVE SMOOTH",
"226 380 LINE SMOOTH",
"120 335 OFFCURVE",
"70 276 OFFCURVE",
"70 179 CURVE SMOOTH",
"70 50 OFFCURVE",
"175 -10 OFFCURVE",
"308 -10 CURVE SMOOTH"
);
}
);
width = 629;
}
);
leftKerningGroup = yashAdrar;
note = uni2D52;
rightKerningGroup = yashAdrar;
},
{
color = 1;
export = 0;
glyphname = "yazzBerber-tifi";
layers = (
{
layerId = "87A198ED-C658-42EA-BEAB-8875AC5554B6";
paths = (
{
closed = 1;
nodes = (
"124 0 LINE",
"196 108 LINE SMOOTH",
"229 157 OFFCURVE",
"253 189 OFFCURVE",
"284 256 CURVE",
"289 254 LINE",
"276 173 OFFCURVE",
"277 139 OFFCURVE",
"277 75 CURVE SMOOTH",
"277 0 LINE",
"362 0 LINE",
"362 75 LINE SMOOTH",
"362 139 OFFCURVE",
"361 175 OFFCURVE",
"343 254 CURVE",
"348 256 LINE",
"377 191 OFFCURVE",
"400 158 OFFCURVE",
"433 108 CURVE SMOOTH",
"505 0 LINE",
"607 0 LINE",
"607 8 LINE",
"370 365 LINE",
"600 706 LINE",
"600 714 LINE",
"510 714 LINE",
"440 610 LINE SMOOTH",
"407 562 OFFCURVE",
"380 525 OFFCURVE",
"354 458 CURVE",
"349 460 LINE",
"362 541 OFFCURVE",
"361 575 OFFCURVE",
"361 639 CURVE SMOOTH",
"361 714 LINE",
"276 714 LINE",
"276 639 LINE SMOOTH",
"276 575 OFFCURVE",
"277 539 OFFCURVE",
"295 460 CURVE",
"290 458 LINE",
"263 523 OFFCURVE",
"242 559 OFFCURVE",
"209 608 CURVE SMOOTH",
"138 714 LINE",
"36 714 LINE",
"36 706 LINE",
"269 357 LINE",
"34 8 LINE",
"34 0 LINE"
);
}
);
width = 639;
}
);
leftKerningGroup = yath;
note = uni2D45;
rightKerningGroup = yath;
},
{
color = 0;
export = 0;
glyphname = "yoTawellemmet-tifi";
layers = (
{
anchors = (
{
name = top;
position = "{310, 436}";
}
);
layerId = "87A198ED-C658-42EA-BEAB-8875AC5554B6";
paths = (
{
closed = 1;
nodes = (
"596 318 LINE",
"596 397 LINE",
"350 397 LINE",
"350 318 LINE"
);
},
{
closed = 1;
nodes = (
"271 318 LINE",
"271 397 LINE",
"25 397 LINE",
"25 318 LINE"
);
}
);
width = 621;
}
);
note = uni2D67;
category = Letter;
subCategory = Other;
},
{
color = 3;
export = 0;
glyphname = "yashAdrar-tifi";
layers = (
{
layerId = "87A198ED-C658-42EA-BEAB-8875AC5554B6";
paths = (
{
closed = 1;
nodes = (
"469 -10 OFFCURVE",
"568 63 OFFCURVE",
"568 182 CURVE SMOOTH",
"568 271 OFFCURVE",
"517 327 OFFCURVE",
"432 360 CURVE",
"432 365 LINE",
"488 386 OFFCURVE",
"556 440 OFFCURVE",
"556 532 CURVE SMOOTH",
"556 650 OFFCURVE",
"466 725 OFFCURVE",
"327 725 CURVE SMOOTH",
"197 725 OFFCURVE",
"93 660 OFFCURVE",
"93 533 CURVE SMOOTH",
"93 452 OFFCURVE",
"133 399 OFFCURVE",
"207 365 CURVE",
"207 360 LINE",
"137 338 OFFCURVE",
"70 276 OFFCURVE",
"70 185 CURVE SMOOTH",
"70 54 OFFCURVE",
"183 -10 OFFCURVE",
"323 -10 CURVE SMOOTH"
);
},
{
closed = 1;
nodes = (
"230 72 OFFCURVE",
"162 111 OFFCURVE",
"162 189 CURVE SMOOTH",
"162 266 OFFCURVE",
"224 310 OFFCURVE",
"287 327 CURVE",
"306 321 LINE SMOOTH",
"396 293 OFFCURVE",
"474 262 OFFCURVE",
"474 182 CURVE SMOOTH",
"474 106 OFFCURVE",
"410 72 OFFCURVE",
"323 72 CURVE SMOOTH"
);
},
{
closed = 1;
nodes = (
"339 397 LINE SMOOTH",
"240 427 OFFCURVE",
"189 462 OFFCURVE",
"189 533 CURVE SMOOTH",
"189 598 OFFCURVE",
"244 643 OFFCURVE",
"327 643 CURVE SMOOTH",
"412 643 OFFCURVE",
"464 602 OFFCURVE",
"464 532 CURVE SMOOTH",
"464 459 OFFCURVE",
"409 415 OFFCURVE",
"352 393 CURVE"
);
}
);
width = 638;
}
);
leftKerningGroup = yashAdrar;
note = uni2D53;
rightKerningGroup = yashAdrar;
},
{
color = 1;
export = 0;
glyphname = "yachBerber-tifi";
layers = (
{
layerId = "87A198ED-C658-42EA-BEAB-8875AC5554B6";
paths = (
{
closed = 1;
nodes = (
"491 -10 OFFCURVE",
"594 54 OFFCURVE",
"594 151 CURVE SMOOTH",
"594 241 OFFCURVE",
"526 291 OFFCURVE",
"451 291 CURVE SMOOTH",
"376 291 OFFCURVE",
"311 249 OFFCURVE",
"311 168 CURVE SMOOTH",
"311 114 OFFCURVE",
"343 81 OFFCURVE",
"362 79 CURVE",
"362 73 LINE",
"351 72 OFFCURVE",
"343 72 OFFCURVE",
"340 72 CURVE SMOOTH",
"218 72 OFFCURVE",
"155 146 OFFCURVE",
"155 247 CURVE SMOOTH",
"155 447 OFFCURVE",
"345 563 OFFCURVE",
"557 654 CURVE",
"547 714 LINE",
"65 714 LINE",
"65 635 LINE",
"283 635 LINE SMOOTH",
"314 635 OFFCURVE",
"338 636 OFFCURVE",
"373 639 CURVE",
"374 633 LINE",
"321 619 OFFCURVE",
"243 580 OFFCURVE",
"177 514 CURVE SMOOTH",
"112 449 OFFCURVE",
"60 357 OFFCURVE",
"60 247 CURVE SMOOTH",
"60 104 OFFCURVE",
"167 -10 OFFCURVE",
"347 -10 CURVE SMOOTH"
);
},
{
closed = 1;
nodes = (
"417 90 OFFCURVE",
"391 116 OFFCURVE",
"391 153 CURVE SMOOTH",
"391 192 OFFCURVE",
"418 212 OFFCURVE",
"451 212 CURVE SMOOTH",
"484 212 OFFCURVE",
"509 186 OFFCURVE",
"509 152 CURVE SMOOTH",
"509 115 OFFCURVE",
"482 90 OFFCURVE",
"450 90 CURVE SMOOTH"
);
}
);
width = 629;
}
);
note = uni2D5B;
},
{
color = 6;
export = 0;
glyphname = "yachAPT-tifi";
layers = (
{
layerId = "87A198ED-C658-42EA-BEAB-8875AC5554B6";
paths = (
{
closed = 1;
nodes = (
"332 0 LINE",
"332 635 LINE",
"550 635 LINE",
"550 714 LINE",
"25 714 LINE",
"25 635 LINE",
"243 635 LINE",
"243 0 LINE"
);
}
);
width = 575;
}
);
note = uni2D4F2D5C;
},
{
color = 8;
export = 0;
glyphname = "yagTuareg1-tifi";
layers = (
{
layerId = "87A198ED-C658-42EA-BEAB-8875AC5554B6";
paths = (
{
closed = 1;
nodes = (
"322 0 LINE",
"322 714 LINE",
"233 714 LINE",
"233 0 LINE"
);
},
{
closed = 1;
nodes = (
"125 0 OFFCURVE",
"149 24 OFFCURVE",
"149 67 CURVE SMOOTH",
"149 108 OFFCURVE",
"125 135 OFFCURVE",
"86 135 CURVE SMOOTH",
"47 135 OFFCURVE",
"25 110 OFFCURVE",
"25 67 CURVE SMOOTH",
"25 22 OFFCURVE",
"45 0 OFFCURVE",
"86 0 CURVE SMOOTH"
);
},
{
closed = 1;
nodes = (
"507 0 OFFCURVE",
"530 25 OFFCURVE",
"530 68 CURVE SMOOTH",
"530 113 OFFCURVE",
"509 135 OFFCURVE",
"467 135 CURVE SMOOTH",
"430 135 OFFCURVE",
"406 113 OFFCURVE",
"406 68 CURVE SMOOTH",
"406 24 OFFCURVE",
"430 0 OFFCURVE",
"467 0 CURVE SMOOTH"
);
}
);
width = 555;
}
);
leftKerningGroup = yagTuareg1;
note = uni2D4F2D57;
rightKerningGroup = yagTuareg1;
},
{
color = 3;
export = 0;
glyphname = "yadTuareg-tifi";
layers = (
{
anchors = (
{
name = top;
position = "{350, 714}";
}
);
layerId = "87A198ED-C658-42EA-BEAB-8875AC5554B6";
paths = (
{
closed = 1;
nodes = (
"608 0 LINE",
"608 714 LINE",
"519 714 LINE",
"519 79 LINE",
"186 79 LINE",
"186 714 LINE",
"97 714 LINE",
"97 0 LINE"
);
}
);
width = 705;
}
);
note = uni2D61;
},
{
color = 0;
export = 0;
glyphname = "yashTawellemmet-tifi";
layers = (
{
layerId = "87A198ED-C658-42EA-BEAB-8875AC5554B6";
paths = (
{
closed = 1;
nodes = (
"551 -10 OFFCURVE",
"654 57 OFFCURVE",
"654 151 CURVE SMOOTH",
"654 241 OFFCURVE",
"586 291 OFFCURVE",
"511 291 CURVE SMOOTH",
"436 291 OFFCURVE",
"371 249 OFFCURVE",
"371 168 CURVE SMOOTH",
"371 114 OFFCURVE",
"403 81 OFFCURVE",
"422 79 CURVE",
"422 74 LINE",
"407 72 OFFCURVE",
"399 72 OFFCURVE",
"392 72 CURVE SMOOTH",
"260 72 OFFCURVE",
"155 166 OFFCURVE",
"155 358 CURVE",
"60 358 LINE",
"60 133 OFFCURVE",
"209 -10 OFFCURVE",
"407 -10 CURVE SMOOTH"
);
},
{
closed = 1;
nodes = (
"477 90 OFFCURVE",
"451 116 OFFCURVE",
"451 153 CURVE SMOOTH",
"451 192 OFFCURVE",
"478 212 OFFCURVE",
"511 212 CURVE SMOOTH",
"544 212 OFFCURVE",
"569 186 OFFCURVE",
"569 152 CURVE SMOOTH",
"569 115 OFFCURVE",
"542 90 OFFCURVE",
"510 90 CURVE SMOOTH"
);
},
{
closed = 1;
nodes = (
"155 358 LINE",
"155 549 OFFCURVE",
"260 643 OFFCURVE",
"391 643 CURVE SMOOTH",
"399 643 OFFCURVE",
"407 643 OFFCURVE",
"422 641 CURVE",
"422 636 LINE",
"403 634 OFFCURVE",
"371 601 OFFCURVE",
"371 547 CURVE SMOOTH",
"371 466 OFFCURVE",
"436 424 OFFCURVE",
"511 424 CURVE SMOOTH",
"586 424 OFFCURVE",
"654 474 OFFCURVE",
"654 564 CURVE SMOOTH",
"654 658 OFFCURVE",
"551 725 OFFCURVE",
"407 725 CURVE SMOOTH",
"209 725 OFFCURVE",
"60 582 OFFCURVE",
"60 358 CURVE"
);
},
{
closed = 1;
nodes = (
"478 503 OFFCURVE",
"451 523 OFFCURVE",
"451 562 CURVE SMOOTH",
"451 599 OFFCURVE",
"477 625 OFFCURVE",
"510 625 CURVE SMOOTH",
"542 625 OFFCURVE",
"569 600 OFFCURVE",
"569 563 CURVE SMOOTH",
"569 529 OFFCURVE",
"544 503 OFFCURVE",
"511 503 CURVE SMOOTH"
);
}
);
width = 719;
}
);
note = uni2D5B;
category = Letter;
subCategory = Other;
},
{
color = 1;
export = 0;
glyphname = "labializationBerber-tifi";
layers = (
{
layerId = "87A198ED-C658-42EA-BEAB-8875AC5554B6";
paths = (
{
closed = 1;
nodes = (
"222 487 OFFCURVE",
"271 531 OFFCURVE",
"271 606 CURVE SMOOTH",
"271 681 OFFCURVE",
"222 724 OFFCURVE",
"153 724 CURVE SMOOTH",
"84 724 OFFCURVE",
"35 681 OFFCURVE",
"35 606 CURVE SMOOTH",
"35 531 OFFCURVE",
"84 487 OFFCURVE",
"153 487 CURVE SMOOTH"
);
},
{
closed = 1;
nodes = (
"120 550 OFFCURVE",
"102 575 OFFCURVE",
"102 606 CURVE SMOOTH",
"102 637 OFFCURVE",
"120 662 OFFCURVE",
"153 662 CURVE SMOOTH",
"186 662 OFFCURVE",
"204 637 OFFCURVE",
"204 606 CURVE SMOOTH",
"204 575 OFFCURVE",
"186 550 OFFCURVE",
"153 550 CURVE SMOOTH"
);
}
);
width = 306;
}
);
note = uni0306;
},
{
color = 1;
export = 0;
glyphname = "yasBerber-tifi";
layers = (
{
layerId = "87A198ED-C658-42EA-BEAB-8875AC5554B6";
paths = (
{
closed = 1;
nodes = (
"743 50 LINE",
"743 646 LINE",
"705 662 LINE",
"416 406 LINE",
"127 666 LINE",
"90 652 LINE",
"90 56 LINE",
"128 40 LINE",
"418 295 LINE",
"706 36 LINE"
);
},
{
closed = 1;
nodes = (
"175 191 LINE",
"178 228 OFFCURVE",
"179 258 OFFCURVE",
"179 298 CURVE SMOOTH",
"179 402 LINE SMOOTH",
"179 441 OFFCURVE",
"178 475 OFFCURVE",
"175 508 CURVE",
"180 510 LINE",
"202 485 OFFCURVE",
"212 473 OFFCURVE",
"245 444 CURVE SMOOTH",
"271 420 LINE SMOOTH",
"300 394 OFFCURVE",
"326 373 OFFCURVE",
"359 351 CURVE",
"359 345 LINE",
"329 325 OFFCURVE",
"304 302 OFFCURVE",
"275 278 CURVE SMOOTH",
"259 265 LINE SMOOTH",
"225 237 OFFCURVE",
"204 217 OFFCURVE",
"180 189 CURVE"
);
},
{
closed = 1;
nodes = (
"631 217 OFFCURVE",
"616 233 OFFCURVE",
"586 261 CURVE SMOOTH",
"564 281 LINE SMOOTH",
"534 309 OFFCURVE",
"510 327 OFFCURVE",
"475 351 CURVE",
"475 357 LINE",
"511 382 OFFCURVE",
"530 400 OFFCURVE",
"559 424 CURVE SMOOTH",
"577 439 LINE SMOOTH",
"611 467 OFFCURVE",
"626 485 OFFCURVE",
"653 513 CURVE",
"658 511 LINE",
"655 474 OFFCURVE",
"654 444 OFFCURVE",
"654 404 CURVE SMOOTH",
"654 300 LINE SMOOTH",
"654 261 OFFCURVE",
"655 227 OFFCURVE",
"658 194 CURVE",
"653 192 LINE"
);
}
);
width = 833;
}
);
note = uni2D33;
},
{
color = 1;
export = 0;
glyphname = "yarrBerber-tifi";
layers = (
{
anchors = (
{
name = bottom;
position = "{389, 0}";
}
);
layerId = "87A198ED-C658-42EA-BEAB-8875AC5554B6";
paths = (
{
closed = 1;
nodes = (
"595 -10 OFFCURVE",
"719 137 OFFCURVE",
"719 357 CURVE SMOOTH",
"719 577 OFFCURVE",
"593 725 OFFCURVE",
"389 725 CURVE SMOOTH",
"185 725 OFFCURVE",
"60 577 OFFCURVE",
"60 357 CURVE SMOOTH",
"60 137 OFFCURVE",
"183 -10 OFFCURVE",
"389 -10 CURVE SMOOTH"
);
},
{
closed = 1;
nodes = (
"429 -250 OFFCURVE",
"455 -224 OFFCURVE",
"455 -180 CURVE SMOOTH",
"455 -137 OFFCURVE",
"432 -110 OFFCURVE",
"389 -110 CURVE SMOOTH",
"348 -110 OFFCURVE",
"326 -136 OFFCURVE",
"326 -180 CURVE SMOOTH",
"326 -225 OFFCURVE",
"350 -250 OFFCURVE",
"389 -250 CURVE SMOOTH"
);
},
{
closed = 1;
nodes = (
"236 72 OFFCURVE",
"155 177 OFFCURVE",
"155 357 CURVE SMOOTH",
"155 537 OFFCURVE",
"235 643 OFFCURVE",
"389 643 CURVE SMOOTH",
"543 643 OFFCURVE",
"624 537 OFFCURVE",
"624 357 CURVE SMOOTH",
"624 177 OFFCURVE",
"542 72 OFFCURVE",
"389 72 CURVE SMOOTH"
);
}
);
width = 779;
}
);
leftKerningGroup = yar;
note = uni2D54;
rightKerningGroup = yar;
},
{
color = 1;
export = 0;
glyphname = "yayBerber-tifi";
layers = (
{
anchors = (
{
name = top;
position = "{350, 714}";
}
);
layerId = "87A198ED-C658-42EA-BEAB-8875AC5554B6";
paths = (
{
closed = 1;
nodes = (
"186 0 LINE",
"186 635 LINE",
"519 635 LINE",
"519 0 LINE",
"608 0 LINE",
"608 714 LINE",
"97 714 LINE",
"97 0 LINE"
);
}
);
width = 705;
}
);
note = uni2D61;
},
{
color = 6;
export = 0;
glyphname = "yavAPT-tifi";
layers = (
{
layerId = "87A198ED-C658-42EA-BEAB-8875AC5554B6";
paths = (
{
closed = 1;
nodes = (
"566 418 OFFCURVE",
"664 560 OFFCURVE",
"685 714 CURVE",
"591 714 LINE",
"574 601 OFFCURVE",
"513 500 OFFCURVE",
"360 500 CURVE SMOOTH",
"207 500 OFFCURVE",
"147 601 OFFCURVE",
"130 714 CURVE",
"35 714 LINE",
"56 560 OFFCURVE",
"154 418 OFFCURVE",
"360 418 CURVE SMOOTH"
);
},
{
closed = 1;
nodes = (
"405 0 LINE",
"405 474 LINE",
"316 474 LINE",
"316 0 LINE"
);
}
);
width = 721;
}
);
note = uni2D63;
},
{
color = 6;
export = 0;
glyphname = "yeyAPT-tifi";
layers = (
{
layerId = "87A198ED-C658-42EA-BEAB-8875AC5554B6";
paths = (
{
closed = 1;
nodes = (
"462 -10 OFFCURVE",
"586 150 OFFCURVE",
"586 367 CURVE SMOOTH",
"586 601 OFFCURVE",
"442 725 OFFCURVE",
"273 725 CURVE SMOOTH",
"148 725 OFFCURVE",
"55 660 OFFCURVE",
"55 553 CURVE SMOOTH",
"55 441 OFFCURVE",
"133 403 OFFCURVE",
"211 393 CURVE",
"232 479 LINE",
"185 485 OFFCURVE",
"150 504 OFFCURVE",
"150 553 CURVE SMOOTH",
"150 611 OFFCURVE",
"199 643 OFFCURVE",
"273 643 CURVE SMOOTH",
"399 643 OFFCURVE",
"491 550 OFFCURVE",
"491 367 CURVE SMOOTH",
"491 195 OFFCURVE",
"410 72 OFFCURVE",
"251 72 CURVE SMOOTH",
"189 72 OFFCURVE",
"151 87 OFFCURVE",
"119 97 CURVE",
"93 19 LINE",
"130 4 OFFCURVE",
"168 -10 OFFCURVE",
"251 -10 CURVE SMOOTH"
);
}
);
width = 646;
}
);
note = uni2D5B;
rightKerningGroup = yar;
},
{
color = 6;
export = 0;
glyphname = "yapAPT-tifi";
layers = (
{
layerId = "87A198ED-C658-42EA-BEAB-8875AC5554B6";
paths = (
{
closed = 1;
nodes = (
"425 0 LINE",
"425 714 LINE",
"25 714 LINE",
"25 635 LINE",
"336 635 LINE",
"336 0 LINE"
);
}
);
width = 522;
}
);
note = uni2D5C2D59;
},
{
color = 0;
export = 0;
glyphname = "yafTawellemmet-tifi";
layers = (
{
layerId = "87A198ED-C658-42EA-BEAB-8875AC5554B6";
paths = (
{
closed = 1;
nodes = (
"280 0 LINE",
"280 328 LINE",
"484 328 LINE",
"484 0 LINE",
"719 0 LINE",
"719 79 LINE",
"573 79 LINE",
"573 635 LINE",
"719 635 LINE",
"719 714 LINE",
"484 714 LINE",
"484 407 LINE",
"280 407 LINE",
"280 714 LINE",
"45 714 LINE",
"45 635 LINE",
"191 635 LINE",
"191 79 LINE",
"45 79 LINE",
"45 0 LINE"
);
}
);
width = 764;
}
);
note = uni2D3C;
category = Letter;
subCategory = Other;
},
{
color = 0;
export = 0;
glyphname = "yabBerber-tifi";
layers = (
{
anchors = (
{
name = bottom;
position = "{390, 0}";
}
);
components = (
{
name = "yar-tifi";
}
);
layerId = "87A198ED-C658-42EA-BEAB-8875AC5554B6";
paths = (
{
closed = 1;
nodes = (
"665 318 LINE",
"665 397 LINE",
"113 397 LINE",
"112 318 LINE"
);
}
);
width = 779;
}
);
leftKerningGroup = yar;
note = uni2D31;
rightKerningGroup = yar;
category = Letter;
subCategory = Other;
},
{
color = 1;
export = 0;
glyphname = "yiBerber-tifi";
layers = (
{
anchors = (
{
name = top;
position = "{250, 714}";
}
);
layerId = "87A198ED-C658-42EA-BEAB-8875AC5554B6";
paths = (
{
closed = 1;
nodes = (
"425 298 LINE",
"425 351 LINE",
"266 487 LINE SMOOTH",
"236 513 OFFCURVE",
"206 541 OFFCURVE",
"165 564 CURVE",
"165 571 LINE",
"212 578 OFFCURVE",
"243 587 OFFCURVE",
"290 600 CURVE SMOOTH",
"466 649 LINE",
"446 725 LINE",
"59 612 LINE",
"59 550 LINE",
"256 381 LINE SMOOTH",
"278 362 OFFCURVE",
"302 342 OFFCURVE",
"334 322 CURVE",
"334 316 LINE",
"305 296 OFFCURVE",
"287 277 OFFCURVE",
"262 252 CURVE SMOOTH",
"55 45 LINE",
"119 -10 LINE"
);
}
);
width = 516;
}
);
note = uni2D62;
},
{
color = 1;
export = 0;
glyphname = "yaghhBerber-tifi";
layers = (
{
anchors = (
{
name = top;
position = "{314, 714}";
}
);
layerId = "87A198ED-C658-42EA-BEAB-8875AC5554B6";
paths = (
{
closed = 1;
nodes = (
"124 0 LINE",
"208 131 LINE SMOOTH",
"242 186 OFFCURVE",
"279 242 OFFCURVE",
"313 307 CURVE",
"319 307 LINE",
"352 242 OFFCURVE",
"384 186 OFFCURVE",
"418 131 CURVE SMOOTH",
"499 0 LINE",
"598 0 LINE",
"598 8 LINE",
"368 382 LINE",
"542 654 LINE",
"526 714 LINE",
"61 714 LINE",
"61 635 LINE",
"335 635 LINE SMOOTH",
"373 635 OFFCURVE",
"411 636 OFFCURVE",
"437 639 CURVE",
"439 633 LINE",
"420 614 OFFCURVE",
"397 582 OFFCURVE",
"373 545 CURVE SMOOTH",
"30 8 LINE",
"30 0 LINE"
);
}
);
width = 630;
}
);
note = uni2D43;
},
{
color = 0;
export = 0;
glyphname = "yawBerber-tifi";
layers = (
{
anchors = (
{
name = top;
position = "{350, 714}";
}
);
layerId = "87A198ED-C658-42EA-BEAB-8875AC5554B6";
paths = (
{
closed = 1;
nodes = (
"608 0 LINE",
"608 714 LINE",
"519 714 LINE",
"519 79 LINE",
"186 79 LINE",
"186 714 LINE",
"97 714 LINE",
"97 0 LINE"
);
}
);
width = 705;
}
);
note = uni2D61;
category = Letter;
subCategory = Other;
},
{
color = 1;
export = 0;
glyphname = "yattBerber-tifi";
layers = (
{
layerId = "87A198ED-C658-42EA-BEAB-8875AC5554B6";
paths = (
{
closed = 1;
nodes = (
"588 0 LINE",
"588 714 LINE",
"499 714 LINE",
"499 377 LINE",
"186 377 LINE",
"186 714 LINE",
"97 714 LINE",
"97 298 LINE",
"499 298 LINE",
"499 0 LINE"
);
},
{
closed = 1;
nodes = (
"508 0 LINE",
"508 79 LINE",
"87 79 LINE",
"87 0 LINE"
);
}
);
width = 685;
}
);
note = uni2D5F;
},
{
color = 1;
export = 0;
glyphname = "yuBerber-tifi";
layers = (
{
anchors = (
{
name = top;
position = "{170, 714}";
}
);
layerId = "87A198ED-C658-42EA-BEAB-8875AC5554B6";
paths = (
{
closed = 1;
nodes = (
"226 435 OFFCURVE",
"265 470 OFFCURVE",
"265 530 CURVE SMOOTH",
"265 590 OFFCURVE",
"226 625 OFFCURVE",
"170 625 CURVE SMOOTH",
"114 625 OFFCURVE",
"75 590 OFFCURVE",
"75 530 CURVE SMOOTH",
"75 470 OFFCURVE",
"114 435 OFFCURVE",
"170 435 CURVE SMOOTH"
);
},
{
closed = 1;
nodes = (
"226 90 OFFCURVE",
"265 125 OFFCURVE",
"265 185 CURVE SMOOTH",
"265 245 OFFCURVE",
"226 280 OFFCURVE",
"170 280 CURVE SMOOTH",
"114 280 OFFCURVE",
"75 245 OFFCURVE",
"75 185 CURVE SMOOTH",
"75 125 OFFCURVE",
"114 90 OFFCURVE",
"170 90 CURVE SMOOTH"
);
}
);
width = 340;
}
);
note = uni2D53;
},
{
color = 0;
export = 0;
glyphname = "yalBerber-tifi";
layers = (
{
layerId = "87A198ED-C658-42EA-BEAB-8875AC5554B6";
paths = (
{
closed = 1;
nodes = (
"186 0 LINE",
"186 131 LINE",
"320 344 LINE SMOOTH",
"348 389 OFFCURVE",
"367 422 OFFCURVE",
"382 463 CURVE",
"387 461 LINE",
"381 425 OFFCURVE",
"380 377 OFFCURVE",
"380 310 CURVE SMOOTH",
"380 0 LINE",
"469 0 LINE",
"469 714 LINE",
"380 714 LINE",
"380 584 LINE",
"244 369 LINE SMOOTH",
"218 328 OFFCURVE",
"201 298 OFFCURVE",
"184 252 CURVE",
"179 254 LINE",
"185 290 OFFCURVE",
"186 338 OFFCURVE",
"186 405 CURVE SMOOTH",
"186 714 LINE",
"97 714 LINE",
"97 0 LINE"
);
}
);
width = 566;
}
);
note = uni2D4D;
category = Letter;
subCategory = Other;
},
{
color = 1;
export = 0;
glyphname = "yaqBerber-tifi";
layers = (
{
layerId = "87A198ED-C658-42EA-BEAB-8875AC5554B6";
paths = (
{
closed = 1;
nodes = (
"571 535 LINE",
"571 614 LINE",
"80 614 LINE",
"80 535 LINE"
);
},
{
closed = 1;
nodes = (
"571 100 LINE",
"571 179 LINE",
"80 179 LINE",
"80 100 LINE"
);
},
{
closed = 1;
nodes = (
"571 318 LINE",
"571 397 LINE",
"80 397 LINE",
"80 318 LINE"
);
}
);
width = 651;
}
);
note = uni2D4A;
},
{
color = 1;
export = 0;
glyphname = "yakBerber-tifi";
layers = (
{
anchors = (
{
name = bottom;
position = "{322, 0}";
}
);
layerId = "87A198ED-C658-42EA-BEAB-8875AC5554B6";
paths = (
{
closed = 1;
nodes = (
"666 408 LINE",
"684 457 LINE",
"457 724 LINE",
"392 671 LINE",
"498 546 LINE SMOOTH",
"518 523 OFFCURVE",
"540 498 OFFCURVE",
"568 481 CURVE",
"566 476 LINE",
"522 487 OFFCURVE",
"486 487 OFFCURVE",
"448 487 CURVE SMOOTH",
"40 487 LINE",
"40 408 LINE"
);
},
{
closed = 1;
nodes = (
"684 257 LINE",
"666 306 LINE",
"40 306 LINE",
"40 227 LINE",
"448 227 LINE SMOOTH",
"486 227 OFFCURVE",
"522 227 OFFCURVE",
"566 238 CURVE",
"568 233 LINE",
"540 216 OFFCURVE",
"518 191 OFFCURVE",
"498 168 CURVE SMOOTH",
"392 43 LINE",
"457 -10 LINE"
);
}
);
width = 729;
}
);
note = uni2D4F2D64;
},
{
color = 1;
export = 0;
glyphname = "yeyBerber-tifi";
layers = (
{
layerId = "87A198ED-C658-42EA-BEAB-8875AC5554B6";
paths = (
{
closed = 1;
nodes = (
"500 318 LINE",
"500 397 LINE",
"40 397 LINE",
"40 318 LINE"
);
},
{
closed = 1;
nodes = (
"326 -10 OFFCURVE",
"365 25 OFFCURVE",
"365 85 CURVE SMOOTH",
"365 145 OFFCURVE",
"326 180 OFFCURVE",
"270 180 CURVE SMOOTH",
"214 180 OFFCURVE",
"175 145 OFFCURVE",
"175 85 CURVE SMOOTH",
"175 25 OFFCURVE",
"214 -10 OFFCURVE",
"270 -10 CURVE SMOOTH"
);
},
{
closed = 1;
nodes = (
"326 535 OFFCURVE",
"365 570 OFFCURVE",
"365 630 CURVE SMOOTH",
"365 690 OFFCURVE",
"326 725 OFFCURVE",
"270 725 CURVE SMOOTH",
"214 725 OFFCURVE",
"175 690 OFFCURVE",
"175 630 CURVE SMOOTH",
"175 570 OFFCURVE",
"214 535 OFFCURVE",
"270 535 CURVE SMOOTH"
);
}
);
width = 540;
}
);
note = uni2D3B;
},
{
color = 1;
export = 0;
glyphname = "yafBerber-tifi";
layers = (
{
layerId = "87A198ED-C658-42EA-BEAB-8875AC5554B6";
paths = (
{
closed = 1;
nodes = (
"724 0 LINE",
"724 79 LINE",
"548 79 LINE",
"548 635 LINE",
"724 635 LINE",
"724 714 LINE",
"459 714 LINE",
"459 0 LINE"
);
},
{
closed = 1;
nodes = (
"315 0 LINE",
"315 714 LINE",
"50 714 LINE",
"50 635 LINE",
"226 635 LINE",
"226 79 LINE",
"50 79 LINE",
"50 0 LINE"
);
}
);
width = 774;
}
);
note = uni2D3C;
},
{
color = 7;
export = 0;
glyphname = "yiHawad-tifi";
layers = (
{
anchors = (
{
name = top;
position = "{247, 714}";
}
);
components = (
{
name = dotaccentcomb;
transform = "{1, 0, 0, 1, 325, 0}";
}
);
layerId = "87A198ED-C658-42EA-BEAB-8875AC5554B6";
paths = (
{
closed = 1;
nodes = (
"468 62 LINE",
"274 128 LINE SMOOTH",
"239 140 OFFCURVE",
"209 151 OFFCURVE",
"164 159 CURVE",
"164 165 LINE",
"202 181 OFFCURVE",
"239 203 OFFCURVE",
"276 227 CURVE SMOOTH",
"442 332 LINE",
"442 383 LINE",
"276 488 LINE SMOOTH",
"239 512 OFFCURVE",
"202 537 OFFCURVE",
"164 552 CURVE",
"164 558 LINE",
"203 566 OFFCURVE",
"241 575 OFFCURVE",
"276 587 CURVE SMOOTH",
"468 652 LINE",
"442 725 LINE",
"55 594 LINE",
"55 530 LINE",
"246 409 LINE SMOOTH",
"276 390 OFFCURVE",
"299 377 OFFCURVE",
"336 361 CURVE",
"336 355 LINE",
"297 339 OFFCURVE",
"274 323 OFFCURVE",
"246 306 CURVE SMOOTH",
"55 185 LINE",
"55 121 LINE",
"442 -10 LINE"
);
}
);
width = 518;
}
);
leftKerningGroup = yiHawad;
note = uni2D49;
rightKerningGroup = yiHawad;
},
{
color = 7;
export = 0;
glyphname = "yeyHawad-tifi";
layers = (
{
layerId = "87A198ED-C658-42EA-BEAB-8875AC5554B6";
paths = (
{
closed = 1;
nodes = (
"124 0 LINE",
"228 155 LINE SMOOTH",
"263 207 OFFCURVE",
"304 263 OFFCURVE",
"314 299 CURVE",
"319 299 LINE",
"330 264 OFFCURVE",
"373 199 OFFCURVE",
"402 155 CURVE SMOOTH",
"505 0 LINE",
"607 0 LINE",
"607 8 LINE",
"370 365 LINE",
"600 706 LINE",
"600 714 LINE",
"510 714 LINE",
"413 570 LINE SMOOTH",
"378 518 OFFCURVE",
"333 462 OFFCURVE",
"323 426 CURVE",
"318 426 LINE",
"305 461 OFFCURVE",
"263 526 OFFCURVE",
"234 570 CURVE SMOOTH",
"138 714 LINE",
"36 714 LINE",
"36 706 LINE",
"269 357 LINE",
"34 8 LINE",
"34 0 LINE"
);
}
);
width = 641;
}
);
leftKerningGroup = yath;
note = uni2D5D;
rightKerningGroup = yath;
},
{
color = 1;
export = 0;
glyphname = "yaBerber-tifi";
layers = (
{
anchors = (
{
name = top;
position = "{155, 436}";
}
);
layerId = "87A198ED-C658-42EA-BEAB-8875AC5554B6";
paths = (
{
closed = 1;
nodes = (
"211 100 OFFCURVE",
"250 135 OFFCURVE",
"250 195 CURVE SMOOTH",
"250 255 OFFCURVE",
"211 290 OFFCURVE",
"155 290 CURVE SMOOTH",
"99 290 OFFCURVE",
"60 255 OFFCURVE",
"60 195 CURVE SMOOTH",
"60 135 OFFCURVE",
"99 100 OFFCURVE",
"155 100 CURVE SMOOTH"
);
}
);
width = 310;
}
);
note = uni2D30;
},
{
color = 7;
export = 0;
glyphname = "yeHawad-tifi";
layers = (
{
anchors = (
{
name = top;
position = "{247, 714}";
}
);
components = (
{
name = dieresiscomb;
transform = "{1, 0, 0, 1, 417, 0}";
}
);
layerId = "87A198ED-C658-42EA-BEAB-8875AC5554B6";
paths = (
{
closed = 1;
nodes = (
"468 62 LINE",
"274 128 LINE SMOOTH",
"239 140 OFFCURVE",
"209 151 OFFCURVE",
"164 159 CURVE",
"164 165 LINE",
"202 181 OFFCURVE",
"239 203 OFFCURVE",
"276 227 CURVE SMOOTH",
"442 332 LINE",
"442 383 LINE",
"276 488 LINE SMOOTH",
"239 512 OFFCURVE",
"202 537 OFFCURVE",
"164 552 CURVE",
"164 558 LINE",
"203 566 OFFCURVE",
"241 575 OFFCURVE",
"276 587 CURVE SMOOTH",
"468 652 LINE",
"442 725 LINE",
"55 594 LINE",
"55 530 LINE",
"246 409 LINE SMOOTH",
"276 390 OFFCURVE",
"299 377 OFFCURVE",
"336 361 CURVE",
"336 355 LINE",
"297 339 OFFCURVE",
"274 323 OFFCURVE",
"246 306 CURVE SMOOTH",
"55 185 LINE",
"55 121 LINE",
"442 -10 LINE"
);
}
);
width = 528;
}
);
leftKerningGroup = yiHawad;
note = uni2D49;
rightKerningGroup = yiHawad;
},
{
color = 0;
export = 0;
glyphname = "yaSIL-tifi";
layers = (
{
layerId = "87A198ED-C658-42EA-BEAB-8875AC5554B6";
paths = (
{
closed = 1;
nodes = (
"354 -10 OFFCURVE",
"434 60 OFFCURVE",
"434 181 CURVE SMOOTH",
"434 302 OFFCURVE",
"354 373 OFFCURVE",
"242 373 CURVE SMOOTH",
"130 373 OFFCURVE",
"50 302 OFFCURVE",
"50 181 CURVE SMOOTH",
"50 60 OFFCURVE",
"130 -10 OFFCURVE",
"242 -10 CURVE SMOOTH"
);
},
{
closed = 1;
nodes = (
"176 68 OFFCURVE",
"139 112 OFFCURVE",
"139 181 CURVE SMOOTH",
"139 250 OFFCURVE",
"173 295 OFFCURVE",
"242 295 CURVE SMOOTH",
"309 295 OFFCURVE",
"345 250 OFFCURVE",
"345 181 CURVE SMOOTH",
"345 112 OFFCURVE",
"309 68 OFFCURVE",
"242 68 CURVE SMOOTH"
);
}
);
width = 484;
}
);
note = uni2D30;
category = Letter;
subCategory = Other;
},
{
color = 0;
export = 0;
glyphname = "yeTawellemmet-tifi";
layers = (
{
anchors = (
{
name = top;
position = "{329, 614}";
}
);
layerId = "87A198ED-C658-42EA-BEAB-8875AC5554B6";
paths = (
{
closed = 1;
nodes = (
"572 146 LINE",
"256 301 LINE SMOOTH",
"216 321 OFFCURVE",
"164 344 OFFCURVE",
"125 351 CURVE",
"125 357 LINE",
"160 364 OFFCURVE",
"208 385 OFFCURVE",
"252 407 CURVE SMOOTH",
"569 569 LINE",
"533 644 LINE",
"20 383 LINE",
"20 316 LINE",
"532 65 LINE"
);
}
);
width = 622;
}
);
note = uni2D66;
category = Letter;
subCategory = Other;
},
{
color = 0;
export = 0;
glyphname = "yiTawellemmet-tifi";
layers = (
{
anchors = (
{
name = top;
position = "{247, 714}";
}
);
layerId = "87A198ED-C658-42EA-BEAB-8875AC5554B6";
paths = (
{
closed = 1;
nodes = (
"468 62 LINE",
"274 128 LINE SMOOTH",
"239 140 OFFCURVE",
"209 151 OFFCURVE",
"164 159 CURVE",
"164 165 LINE",
"202 181 OFFCURVE",
"239 203 OFFCURVE",
"276 227 CURVE SMOOTH",
"442 332 LINE",
"442 383 LINE",
"276 488 LINE SMOOTH",
"239 512 OFFCURVE",
"202 537 OFFCURVE",
"164 552 CURVE",
"164 558 LINE",
"203 566 OFFCURVE",
"241 575 OFFCURVE",
"276 587 CURVE SMOOTH",
"468 652 LINE",
"442 725 LINE",
"55 594 LINE",
"55 530 LINE",
"246 409 LINE SMOOTH",
"276 390 OFFCURVE",
"299 377 OFFCURVE",
"336 361 CURVE",
"336 355 LINE",
"297 339 OFFCURVE",
"274 323 OFFCURVE",
"246 306 CURVE SMOOTH",
"55 185 LINE",
"55 121 LINE",
"442 -10 LINE"
);
}
);
width = 528;
}
);
note = uni2D49;
category = Letter;
subCategory = Other;
},
{
color = 8;
export = 0;
glyphname = "yahTawellemmet-tifi";
layers = (
{
layerId = "87A198ED-C658-42EA-BEAB-8875AC5554B6";
paths = (
{
closed = 1;
nodes = (
"588 585 LINE",
"588 664 LINE",
"97 664 LINE",
"97 585 LINE"
);
},
{
closed = 1;
nodes = (
"588 70 LINE",
"588 149 LINE",
"97 149 LINE",
"97 70 LINE"
);
},
{
closed = 1;
nodes = (
"588 242 LINE",
"588 321 LINE",
"97 321 LINE",
"97 242 LINE"
);
},
{
closed = 1;
nodes = (
"588 414 LINE",
"588 493 LINE",
"97 493 LINE",
"97 414 LINE"
);
}
);
width = 685;
}
);
note = uni2D4A;
},
{
color = 0;
export = 0;
glyphname = "yeyTawellemmet-tifi";
layers = (
{
layerId = "87A198ED-C658-42EA-BEAB-8875AC5554B6";
paths = (
{
closed = 1;
nodes = (
"380 460 OFFCURVE",
"436 512 OFFCURVE",
"436 592 CURVE SMOOTH",
"436 673 OFFCURVE",
"380 725 OFFCURVE",
"280 725 CURVE SMOOTH",
"180 725 OFFCURVE",
"124 673 OFFCURVE",
"124 592 CURVE SMOOTH",
"124 512 OFFCURVE",
"180 460 OFFCURVE",
"280 460 CURVE SMOOTH"
);
},
{
closed = 1;
nodes = (
"380 -10 OFFCURVE",
"436 42 OFFCURVE",
"436 122 CURVE SMOOTH",
"436 203 OFFCURVE",
"380 255 OFFCURVE",
"280 255 CURVE SMOOTH",
"180 255 OFFCURVE",
"124 203 OFFCURVE",
"124 122 CURVE SMOOTH",
"124 42 OFFCURVE",
"180 -10 OFFCURVE",
"280 -10 CURVE SMOOTH"
);
},
{
closed = 1;
nodes = (
"234 64 OFFCURVE",
"211 87 OFFCURVE",
"211 122 CURVE SMOOTH",
"211 157 OFFCURVE",
"233 180 OFFCURVE",
"280 180 CURVE SMOOTH",
"327 180 OFFCURVE",
"349 157 OFFCURVE",
"349 122 CURVE SMOOTH",
"349 87 OFFCURVE",
"327 64 OFFCURVE",
"280 64 CURVE SMOOTH"
);
},
{
closed = 1;
nodes = (
"510 318 LINE",
"510 397 LINE",
"50 397 LINE",
"50 318 LINE"
);
},
{
closed = 1;
nodes = (
"233 534 OFFCURVE",
"211 557 OFFCURVE",
"211 592 CURVE SMOOTH",
"211 627 OFFCURVE",
"233 650 OFFCURVE",
"280 650 CURVE SMOOTH",
"327 650 OFFCURVE",
"349 627 OFFCURVE",
"349 592 CURVE SMOOTH",
"349 557 OFFCURVE",
"327 534 OFFCURVE",
"280 534 CURVE SMOOTH"
);
}
);
width = 560;
}
);
note = uni2D3B;
category = Letter;
subCategory = Other;
},
{
color = 0;
export = 0;
glyphname = "yuTawellemmet-tifi";
layers = (
{
layerId = "87A198ED-C658-42EA-BEAB-8875AC5554B6";
paths = (
{
closed = 1;
nodes = (
"317 418 OFFCURVE",
"384 472 OFFCURVE",
"384 571 CURVE SMOOTH",
"384 671 OFFCURVE",
"317 725 OFFCURVE",
"227 725 CURVE SMOOTH",
"136 725 OFFCURVE",
"70 671 OFFCURVE",
"70 571 CURVE SMOOTH",
"70 472 OFFCURVE",
"136 418 OFFCURVE",
"227 418 CURVE SMOOTH"
);
},
{
closed = 1;
nodes = (
"317 -10 OFFCURVE",
"384 44 OFFCURVE",
"384 143 CURVE SMOOTH",
"384 243 OFFCURVE",
"317 297 OFFCURVE",
"227 297 CURVE SMOOTH",
"136 297 OFFCURVE",
"70 243 OFFCURVE",
"70 143 CURVE SMOOTH",
"70 44 OFFCURVE",
"136 -10 OFFCURVE",
"227 -10 CURVE SMOOTH"
);
},
{
closed = 1;
nodes = (
"181 62 OFFCURVE",
"155 91 OFFCURVE",
"155 143 CURVE SMOOTH",
"155 194 OFFCURVE",
"179 224 OFFCURVE",
"227 224 CURVE SMOOTH",
"274 224 OFFCURVE",
"299 194 OFFCURVE",
"299 143 CURVE SMOOTH",
"299 91 OFFCURVE",
"274 62 OFFCURVE",
"227 62 CURVE SMOOTH"
);
},
{
closed = 1;
nodes = (
"181 490 OFFCURVE",
"155 519 OFFCURVE",
"155 571 CURVE SMOOTH",
"155 622 OFFCURVE",
"179 652 OFFCURVE",
"227 652 CURVE SMOOTH",
"274 652 OFFCURVE",
"299 622 OFFCURVE",
"299 571 CURVE SMOOTH",
"299 519 OFFCURVE",
"274 490 OFFCURVE",
"227 490 CURVE SMOOTH"
);
}
);
width = 454;
}
);
note = uni2D53;
category = Letter;
subCategory = Other;
},
{
color = 6;
export = 0;
glyphname = "yuAPT-tifi";
layers = (
{
anchors = (
{
name = bottom;
position = "{248, 0}";
},
{
name = top;
position = "{248, 436}";
}
);
layerId = "87A198ED-C658-42EA-BEAB-8875AC5554B6";
paths = (
{
closed = 1;
nodes = (
"399 0 LINE",
"399 444 LINE",
"310 444 LINE",
"310 0 LINE"
);
},
{
closed = 1;
nodes = (
"186 0 LINE",
"186 444 LINE",
"97 444 LINE",
"97 0 LINE"
);
}
);
width = 496;
}
);
note = uni2D4D;
},
{
color = 1;
export = 0;
glyphname = "yazBerber-tifi";
layers = (
{
layerId = "87A198ED-C658-42EA-BEAB-8875AC5554B6";
paths = (
{
closed = 1;
nodes = (
"576 418 OFFCURVE",
"674 560 OFFCURVE",
"695 714 CURVE",
"601 714 LINE",
"584 601 OFFCURVE",
"523 500 OFFCURVE",
"370 500 CURVE SMOOTH",
"217 500 OFFCURVE",
"157 601 OFFCURVE",
"140 714 CURVE",
"45 714 LINE",
"66 560 OFFCURVE",
"164 418 OFFCURVE",
"370 418 CURVE SMOOTH"
);
},
{
closed = 1;
nodes = (
"140 0 LINE",
"157 113 OFFCURVE",
"217 214 OFFCURVE",
"370 214 CURVE SMOOTH",
"523 214 OFFCURVE",
"584 113 OFFCURVE",
"601 0 CURVE",
"695 0 LINE",
"674 154 OFFCURVE",
"576 296 OFFCURVE",
"370 296 CURVE SMOOTH",
"164 296 OFFCURVE",
"66 154 OFFCURVE",
"45 0 CURVE"
);
},
{
closed = 1;
nodes = (
"415 240 LINE",
"415 474 LINE",
"326 474 LINE",
"326 240 LINE"
);
}
);
width = 741;
}
);
note = uni2D63;
},
{
color = 6;
export = 0;
glyphname = "yawAPT-tifi";
layers = (
{
layerId = "87A198ED-C658-42EA-BEAB-8875AC5554B6";
paths = (
{
closed = 1;
nodes = (
"541 318 LINE",
"541 397 LINE",
"50 397 LINE",
"50 318 LINE"
);
},
{
closed = 1;
nodes = (
"541 100 LINE",
"541 179 LINE",
"50 179 LINE",
"50 100 LINE"
);
}
);
width = 591;
}
);
note = uni2D61;
},
{
color = 0;
export = 0;
glyphname = "yagTuareg2-tifi";
layers = (
{
layerId = "87A198ED-C658-42EA-BEAB-8875AC5554B6";
paths = (
{
closed = 1;
nodes = (
"127 0 LINE",
"258 178 LINE SMOOTH",
"283 212 OFFCURVE",
"317 257 OFFCURVE",
"334 293 CURVE",
"339 293 LINE",
"355 257 OFFCURVE",
"390 211 OFFCURVE",
"413 178 CURVE SMOOTH",
"544 0 LINE",
"645 0 LINE",
"645 8 LINE",
"390 356 LINE",
"627 678 LINE",
"611 714 LINE",
"62 714 LINE",
"46 678 LINE",
"285 353 LINE",
"30 8 LINE",
"30 0 LINE"
);
},
{
closed = 1;
nodes = (
"320 452 OFFCURVE",
"290 491 OFFCURVE",
"267 523 CURVE SMOOTH",
"250 546 LINE SMOOTH",
"220 587 OFFCURVE",
"201 608 OFFCURVE",
"176 633 CURVE",
"178 639 LINE",
"210 636 OFFCURVE",
"252 635 OFFCURVE",
"290 635 CURVE SMOOTH",
"387 635 LINE SMOOTH",
"425 635 OFFCURVE",
"463 636 OFFCURVE",
"499 639 CURVE",
"501 633 LINE",
"475 607 OFFCURVE",
"457 587 OFFCURVE",
"426 545 CURVE SMOOTH",
"410 523 LINE SMOOTH",
"387 491 OFFCURVE",
"358 453 OFFCURVE",
"341 416 CURVE",
"336 416 LINE"
);
}
);
width = 675;
}
);
note = uni2D33;
category = Letter;
subCategory = Other;
},
{
color = 1;
export = 0;
glyphname = "yaghhBerber-tifi.RTL";
layers = (
{
anchors = (
{
name = top;
position = "{316, 714}";
}
);
layerId = "87A198ED-C658-42EA-BEAB-8875AC5554B6";
paths = (
{
closed = 1;
nodes = (
"125 0 LINE",
"206 131 LINE SMOOTH",
"240 186 OFFCURVE",
"273 242 OFFCURVE",
"306 307 CURVE",
"312 307 LINE",
"346 242 OFFCURVE",
"380 185 OFFCURVE",
"415 131 CURVE SMOOTH",
"499 0 LINE",
"600 0 LINE",
"600 8 LINE",
"257 545 LINE SMOOTH",
"233 582 OFFCURVE",
"210 614 OFFCURVE",
"191 633 CURVE",
"193 639 LINE",
"219 636 OFFCURVE",
"257 635 OFFCURVE",
"295 635 CURVE SMOOTH",
"569 635 LINE",
"569 714 LINE",
"93 714 LINE",
"81 654 LINE",
"258 376 LINE",
"30 8 LINE",
"30 0 LINE"
);
}
);
width = 630;
}
);
note = uni2D43;
},
{
color = 7;
export = 0;
glyphname = "yachHawad-tifi";
layers = (
{
layerId = "87A198ED-C658-42EA-BEAB-8875AC5554B6";
paths = (
{
closed = 1;
nodes = (
"550 0 LINE",
"550 79 LINE",
"332 79 LINE",
"332 714 LINE",
"243 714 LINE",
"243 79 LINE",
"25 79 LINE",
"25 0 LINE"
);
}
);
width = 575;
}
);
leftKerningGroup = yagTuareg1;
note = uni2D4F2D5C;
rightKerningGroup = yagTuareg1;
},
{
color = 1;
export = 0;
glyphname = "yaaBerber-tifi";
layers = (
{
layerId = "87A198ED-C658-42EA-BEAB-8875AC5554B6";
paths = (
{
closed = 1;
nodes = (
"140 0 LINE",
"140 180 OFFCURVE",
"220 286 OFFCURVE",
"374 286 CURVE SMOOTH",
"528 286 OFFCURVE",
"609 180 OFFCURVE",
"609 0 CURVE",
"704 0 LINE",
"704 220 OFFCURVE",
"578 368 OFFCURVE",
"374 368 CURVE SMOOTH",
"170 368 OFFCURVE",
"45 220 OFFCURVE",
"45 0 CURVE"
);
},
{
closed = 1;
nodes = (
"430 -10 OFFCURVE",
"469 25 OFFCURVE",
"469 85 CURVE SMOOTH",
"469 145 OFFCURVE",
"430 180 OFFCURVE",
"374 180 CURVE SMOOTH",
"318 180 OFFCURVE",
"279 145 OFFCURVE",
"279 85 CURVE SMOOTH",
"279 25 OFFCURVE",
"318 -10 OFFCURVE",
"374 -10 CURVE SMOOTH"
);
}
);
width = 749;
}
);
note = uni2D30;
},
{
color = 6;
glyphname = "yadAPT-tifi.RTL";
layers = (
{
anchors = (
{
name = bottom;
position = "{276, 0}";
}
);
layerId = "87A198ED-C658-42EA-BEAB-8875AC5554B6";
paths = (
{
closed = 1;
nodes = (
"500 714 LINE",
"70 714 LINE",
"70 635 LINE",
"411 635 LINE",
"411 407 LINE",
"110 407 LINE",
"110 328 LINE",
"411 328 LINE",
"411 79 LINE",
"60 79 LINE",
"60 0 LINE",
"500 0 LINE"
);
}
);
width = 597;
}
);
note = uni2D39;
},
{
color = 8;
export = 0;
glyphname = "yakhTawellemmet-tifi";
layers = (
{
layerId = "87A198ED-C658-42EA-BEAB-8875AC5554B6";
paths = (
{
closed = 1;
nodes = (
"612 0 LINE",
"612 714 LINE",
"523 714 LINE",
"523 0 LINE"
);
},
{
closed = 1;
nodes = (
"186 0 LINE",
"186 714 LINE",
"97 714 LINE",
"97 0 LINE"
);
},
{
closed = 1;
nodes = (
"399 0 LINE",
"399 714 LINE",
"310 714 LINE",
"310 0 LINE"
);
}
);
width = 709;
}
);
note = uni2D4D;
},
{
color = 1;
export = 0;
glyphname = "yiRhissaIxa-tifi";
layers = (
{
layerId = "87A198ED-C658-42EA-BEAB-8875AC5554B6";
paths = (
{
closed = 1;
nodes = (
"446 -10 OFFCURVE",
"547 64 OFFCURVE",
"547 203 CURVE SMOOTH",
"547 344 OFFCURVE",
"464 406 OFFCURVE",
"342 406 CURVE SMOOTH",
"270 406 OFFCURVE",
"233 386 OFFCURVE",
"204 359 CURVE",
"201 362 LINE",
"224 424 OFFCURVE",
"348 561 OFFCURVE",
"543 654 CURVE",
"533 714 LINE",
"74 714 LINE",
"74 635 LINE",
"263 635 LINE SMOOTH",
"297 635 OFFCURVE",
"349 638 OFFCURVE",
"366 641 CURVE",
"367 635 LINE",
"327 613 OFFCURVE",
"276 577 OFFCURVE",
"230 533 CURVE SMOOTH",
"153 460 OFFCURVE",
"60 335 OFFCURVE",
"60 202 CURVE SMOOTH",
"60 67 OFFCURVE",
"144 -10 OFFCURVE",
"304 -10 CURVE SMOOTH"
);
},
{
closed = 1;
nodes = (
"204 72 OFFCURVE",
"155 113 OFFCURVE",
"155 201 CURVE SMOOTH",
"155 275 OFFCURVE",
"214 324 OFFCURVE",
"309 324 CURVE SMOOTH",
"404 324 OFFCURVE",
"452 293 OFFCURVE",
"452 204 CURVE SMOOTH",
"452 120 OFFCURVE",
"393 72 OFFCURVE",
"307 72 CURVE SMOOTH"
);
}
);
width = 622;
}
);
leftKerningGroup = yap;
note = uni2D52;
rightKerningGroup = yap;
},
